Open Sans-Light.ufo
<glyph name="exclam" format="1">
  <advance width="492"/>
  <unicode hex="0021"/>
  <note>
    exclam
  </note>
  <outline>
    <contour>
      <point x="215" y="377" type="line"/>
      <point x="186" y="1462" type="line"/>
      <point x="305" y="1462" type="line"/>
      <point x="276" y="377" type="line"/>
    </contour>
    <contour>
      <point x="244" y="-20" type="qcurve" smooth="yes"/>
      <point x="164" y="-20"/>
      <point x="164" y="78" type="qcurve" smooth="yes"/>
      <point x="164" y="176"/>
      <point x="244" y="176" type="qcurve" smooth="yes"/>
      <point x="326" y="176"/>
      <point x="326" y="78" type="qcurve" smooth="yes"/>
      <point x="326" y="-20"/>
    </contour>
  </outline>
</glyph>
<glyph name="percent" format="1">
  <advance width="1653"/>
  <unicode hex="0025"/>
  <note>
    percent
  </note>
  <outline>
    <contour>
      <point x="373" y="0" type="line"/>
      <point x="1184" y="1462" type="line"/>
      <point x="1280" y="1462" type="line"/>
      <point x="469" y="0" type="line"/>
    </contour>
    <contour>
      <point x="397" y="565" type="qcurve" smooth="yes"/>
      <point x="264.25" y="565"/>
      <point x="113" y="806.25"/>
      <point x="113" y="1026" type="qcurve" smooth="yes"/>
      <point x="113" y="1248.75"/>
      <point x="256.75" y="1483"/>
      <point x="397" y="1483" type="qcurve" smooth="yes"/>
      <point x="535.75" y="1483"/>
      <point x="688" y="1242"/>
      <point x="688" y="1026" type="qcurve" smooth="yes"/>
      <point x="688" y="800.25"/>
      <point x="538" y="565"/>
    </contour>
    <contour>
      <point x="397" y="653" type="qcurve" smooth="yes"/>
      <point x="467.45455" y="653"/>
      <point x="512" y="702" type="qcurve" smooth="yes"/>
      <point x="590" y="787.5"/>
      <point x="590" y="1026" type="qcurve" smooth="yes"/>
      <point x="590" y="1271.60345"/>
      <point x="501" y="1356" type="qcurve" smooth="yes"/>
      <point x="457.5" y="1395"/>
      <point x="397" y="1395" type="qcurve" smooth="yes"/>
      <point x="334.48148" y="1395"/>
      <point x="293" y="1355" type="qcurve" smooth="yes"/>
      <point x="211" y="1275.92857"/>
      <point x="211" y="1026" type="qcurve" smooth="yes"/>
      <point x="211" y="806.57143"/>
      <point x="273" y="718" type="qcurve" smooth="yes"/>
      <point x="318.34884" y="653"/>
    </contour>
    <contour>
      <point x="1251" y="-23" type="qcurve" smooth="yes"/>
      <point x="1115.25" y="-23"/>
      <point x="965" y="219.75"/>
      <point x="965" y="438" type="qcurve" smooth="yes"/>
      <point x="965" y="663"/>
      <point x="1112.25" y="895"/>
      <point x="1251" y="895" type="qcurve" smooth="yes"/>
      <point x="1388.25" y="895"/>
      <point x="1540" y="654.75"/>
      <point x="1540" y="438" type="qcurve" smooth="yes"/>
      <point x="1540" y="212.25"/>
      <point x="1392" y="-23"/>
    </contour>
    <contour>
      <point x="1249" y="68" type="qcurve" smooth="yes"/>
      <point x="1322.42857" y="68"/>
      <point x="1367" y="120" type="qcurve" smooth="yes"/>
      <point x="1442" y="207"/>
      <point x="1442" y="438" type="qcurve" smooth="yes"/>
      <point x="1442" y="689"/>
      <point x="1352" y="770" type="qcurve" smooth="yes"/>
      <point x="1312.04" y="807"/>
      <point x="1249" y="807" type="qcurve" smooth="yes"/>
      <point x="1187" y="807"/>
      <point x="1145" y="768" type="qcurve" smooth="yes"/>
      <point x="1063" y="688.92857"/>
      <point x="1063" y="438" type="qcurve" smooth="yes"/>
      <point x="1063" y="193.41509"/>
      <point x="1141" y="111" type="qcurve" smooth="yes"/>
      <point x="1182.51724" y="68"/>
    </contour>
  </outline>
</glyph>
<glyph name="ampersand" format="1">
  <advance width="1460"/>
  <unicode hex="0026"/>
  <note>
    ampersand
  </note>
  <outline>
    <contour>
      <point x="571" y="-20" type="qcurve" smooth="yes"/>
      <point x="361.75" y="-20"/>
      <point x="123" y="185.75"/>
      <point x="123" y="371" type="qcurve" smooth="yes"/>
      <point x="123" y="463"/>
      <point x="185.33333" y="607.66667"/>
      <point x="337" y="739"/>
      <point x="471" y="811" type="qcurve"/>
      <point x="396" y="893" type="line" smooth="yes"/>
      <point x="330" y="964.25"/>
      <point x="266" y="1099.75"/>
      <point x="266" y="1174" type="qcurve" smooth="yes"/>
      <point x="266" y="1317.25"/>
      <point x="456.75" y="1485"/>
      <point x="618" y="1485" type="qcurve" smooth="yes"/>
      <point x="773.25" y="1485"/>
      <point x="954" y="1323.25"/>
      <point x="954" y="1180" type="qcurve" smooth="yes"/>
      <point x="954" y="1110"/>
      <point x="894.16667" y="987.75"/>
      <point x="753" y="864.5"/>
      <point x="631" y="793" type="qcurve"/>
      <point x="1083" y="336" type="line"/>
      <point x="1143.75" y="408"/>
      <point x="1229.75" y="577.75"/>
      <point x="1262" y="694" type="qcurve"/>
      <point x="1358" y="694" type="line"/>
      <point x="1295.23187" y="448.90541"/>
      <point x="1149" y="268" type="qcurve"/>
      <point x="1415" y="0" type="line"/>
      <point x="1280" y="0" type="line"/>
      <point x="1087" y="197" type="line"/>
      <point x="1007.5" y="119"/>
      <point x="855.25" y="23.5"/>
      <point x="682" y="-20"/>
    </contour>
    <contour>
      <point x="578" y="70" type="qcurve" smooth="yes"/>
      <point x="706.25" y="70"/>
      <point x="919.25" y="157.25"/>
      <point x="1022" y="260" type="qcurve"/>
      <point x="539" y="745" type="line"/>
      <point x="437.5" y="691"/>
      <point x="298.41667" y="592.08333"/>
      <point x="227" y="467.5"/>
      <point x="227" y="375" type="qcurve" smooth="yes"/>
      <point x="227" y="231.75"/>
      <point x="413" y="70"/>
    </contour>
    <contour>
      <point x="565" y="856" type="qcurve"/>
      <point x="724" y="940.75"/>
      <point x="848" y="1088.75"/>
      <point x="848" y="1184" type="qcurve" smooth="yes"/>
      <point x="848" y="1277.75"/>
      <point x="723.75" y="1395"/>
      <point x="618" y="1395" type="qcurve" smooth="yes"/>
      <point x="504" y="1395"/>
      <point x="373" y="1278.75"/>
      <point x="373" y="1176" type="qcurve" smooth="yes"/>
      <point x="373" y="1123.5"/>
      <point x="406.91667" y="1031.83333"/>
      <point x="490.5" y="927.5"/>
    </contour>
  </outline>
</glyph>
<glyph name="parenleft" format="1">
  <advance width="557"/>
  <unicode hex="0028"/>
  <note>
    parenleft
  </note>
  <outline>
    <contour>
      <point x="383" y="-324" type="line"/>
      <point x="236" y="-153.75"/>
      <point x="82" y="300"/>
      <point x="82" y="561" type="qcurve" smooth="yes"/>
      <point x="82" y="825.75"/>
      <point x="236.75" y="1288"/>
      <point x="383" y="1462" type="qcurve"/>
      <point x="496" y="1462" type="line"/>
      <point x="348.25" y="1279.75"/>
      <point x="190" y="818.75"/>
      <point x="190" y="563" type="qcurve" smooth="yes"/>
      <point x="190" y="78.83744"/>
      <point x="494" y="-324" type="qcurve"/>
    </contour>
  </outline>
</glyph>
<glyph name="parenright" format="1">
  <advance width="557"/>
  <unicode hex="0029"/>
  <note>
parenright
</note>
  <outline>
    <contour>
      <point x="63" y="-324" type="line"/>
      <point x="215.25" y="-122.25"/>
      <point x="367.0" y="321.5"/>
      <point x="367.0" y="563.0" type="qcurve" smooth="yes"/>
      <point x="367.0" y="820.25"/>
      <point x="208.75" y="1281.25"/>
      <point x="61" y="1462" type="qcurve"/>
      <point x="174.0" y="1462.0" type="line"/>
      <point x="321.0" y="1287.25"/>
      <point x="475.0" y="824.25"/>
      <point x="475.0" y="561.0" type="qcurve" smooth="yes"/>
      <point x="475.0" y="297.75"/>
      <point x="320.25" y="-156.0"/>
      <point x="174" y="-324" type="qcurve"/>
    </contour>
  </outline>
</glyph>
<glyph name="comma" format="1">
  <advance width="440"/>
  <unicode hex="002C"/>
  <outline>
    <contour>
      <point x="68" y="-264" type="line"/>
      <point x="145.24245" y="13.16408"/>
      <point x="178" y="238" type="qcurve"/>
      <point x="295" y="238" type="line"/>
      <point x="307" y="217" type="line"/>
      <point x="232.36814" y="-47.19679"/>
      <point x="133" y="-264" type="qcurve"/>
    </contour>
  </outline>
</glyph>
<glyph name="period" format="1">
  <advance width="487"/>
  <unicode hex="002E"/>
  <outline>
    <contour>
      <point x="242" y="-20" type="qcurve" smooth="yes"/>
      <point x="162" y="-20"/>
      <point x="162" y="78" type="qcurve" smooth="yes"/>
      <point x="162" y="176"/>
      <point x="242" y="176" type="qcurve" smooth="yes"/>
      <point x="324" y="176"/>
      <point x="324" y="78" type="qcurve" smooth="yes"/>
      <point x="324" y="-20"/>
    </contour>
  </outline>
</glyph>
<glyph name="slash" format="1">
  <advance width="698"/>
  <unicode hex="002F"/>
  <note>
slash
</note>
  <outline>
    <contour>
      <point x="25" y="0" type="line"/>
      <point x="569" y="1462" type="line"/>
      <point x="674" y="1462" type="line"/>
      <point x="129" y="0" type="line"/>
    </contour>
  </outline>
</glyph>
<glyph name="zero" format="1">
  <advance width="1169"/>
  <unicode hex="0030"/>
  <outline>
    <contour>
      <point x="582" y="-20" type="qcurve" smooth="yes"/>
      <point x="378.66667" y="-20"/>
      <point x="262" y="130" type="qcurve" smooth="yes"/>
      <point x="115" y="319.43299"/>
      <point x="115" y="735" type="qcurve" smooth="yes"/>
      <point x="115" y="1190.59459"/>
      <point x="280" y="1366" type="qcurve" smooth="yes"/>
      <point x="391.5625" y="1485"/>
      <point x="582" y="1485" type="qcurve" smooth="yes"/>
      <point x="763.51899" y="1485"/>
      <point x="878" y="1366" type="qcurve" smooth="yes"/>
      <point x="1055" y="1181.37069"/>
      <point x="1055" y="735" type="qcurve" smooth="yes"/>
      <point x="1055" y="244.12308"/>
      <point x="861" y="74" type="qcurve" smooth="yes"/>
      <point x="752.07937" y="-20"/>
    </contour>
    <contour>
      <point x="582" y="70" type="qcurve" smooth="yes"/>
      <point x="740.275" y="70"/>
      <point x="828" y="191" type="qcurve" smooth="yes"/>
      <point x="887.25" y="272.75"/>
      <point x="944" y="545.25"/>
      <point x="944" y="735" type="qcurve" smooth="yes"/>
      <point x="944" y="941.25"/>
      <point x="874.75" y="1228.75"/>
      <point x="802" y="1306" type="qcurve" smooth="yes"/>
      <point x="717.52542" y="1395"/>
      <point x="582" y="1395" type="qcurve" smooth="yes"/>
      <point x="430.5" y="1395"/>
      <point x="345" y="1284" type="qcurve" smooth="yes"/>
      <point x="282" y="1203.75"/>
      <point x="223" y="927.75"/>
      <point x="223" y="735" type="qcurve" smooth="yes"/>
      <point x="223" y="365.23944"/>
      <point x="329" y="204" type="qcurve" smooth="yes"/>
      <point x="418.33333" y="70"/>
    </contour>
  </outline>
</glyph>
<glyph name="two" format="1">
  <advance width="1169"/>
  <unicode hex="0032"/>
  <outline>
    <contour>
      <point x="113" y="0" type="line"/>
      <point x="113" y="88" type="line"/>
      <point x="502.0" y="494.0" type="line" smooth="yes"/>
      <point x="666.0561224489796" y="664.0765306122449"/>
      <point x="732.0" y="754.0" type="qcurve" smooth="yes"/>
      <point x="798.0" y="844.0"/>
      <point x="860.0" y="1008.0"/>
      <point x="860.0" y="1098.0" type="qcurve" smooth="yes"/>
      <point x="860.0" y="1229.25"/>
      <point x="688.25" y="1393.0"/>
      <point x="551.0" y="1393.0" type="qcurve" smooth="yes"/>
      <point x="366.87640449438203" y="1393.0"/>
      <point x="201" y="1260" type="qcurve"/>
      <point x="147.0" y="1329.0" type="line"/>
      <point x="329.4077669902913" y="1483.0"/>
      <point x="553.0" y="1483.0" type="qcurve" smooth="yes"/>
      <point x="744.25" y="1483.0"/>
      <point x="963.0" y="1279.25"/>
      <point x="963.0" y="1100.0" type="qcurve" smooth="yes"/>
      <point x="963.0" y="1018.25"/>
      <point x="919.75" y="866.0"/>
      <point x="868.0" y="782.0" type="qcurve" smooth="yes"/>
      <point x="788.5864406779662" y="655.5265536723164"/>
      <point x="621.0" y="485.0" type="qcurve" smooth="yes"/>
      <point x="527.25" y="389.0"/>
      <point x="339.75" y="196.0"/>
      <point x="246" y="100" type="qcurve"/>
      <point x="246" y="96" type="line"/>
      <point x="1028" y="96" type="line"/>
      <point x="1028" y="0" type="line"/>
    </contour>
  </outline>
</glyph>
<glyph name="three" format="1">
  <advance width="1169"/>
  <unicode hex="0033"/>
  <outline>
    <contour>
      <point x="483.0" y="-20.0" type="qcurve" smooth="yes"/>
      <point x="261.5090909090909" y="-20.0"/>
      <point x="94" y="63" type="qcurve"/>
      <point x="94.0" y="162.0" type="line"/>
      <point x="178.0" y="117.75"/>
      <point x="386.75" y="68.0"/>
      <point x="479.0" y="68.0" type="qcurve" smooth="yes"/>
      <point x="700.25" y="68.0"/>
      <point x="922.0" y="247.25"/>
      <point x="922.0" y="410.0" type="qcurve" smooth="yes"/>
      <point x="922.0" y="614.2307692307693"/>
      <point x="705.0" y="681.0" type="qcurve" smooth="yes"/>
      <point x="609.0" y="711.0"/>
      <point x="475" y="711" type="qcurve" smooth="yes"/>
      <point x="317" y="711" type="line"/>
      <point x="317" y="807" type="line"/>
      <point x="477.0" y="807.0" type="line" smooth="yes"/>
      <point x="659.25" y="807.0"/>
      <point x="872.0" y="980.25"/>
      <point x="872.0" y="1128.0" type="qcurve" smooth="yes"/>
      <point x="872.0" y="1250.25"/>
      <point x="699.25" y="1397.0"/>
      <point x="559.0" y="1397.0" type="qcurve" smooth="yes"/>
      <point x="450.25" y="1397.0"/>
      <point x="269.75" y="1336.25"/>
      <point x="158" y="1262" type="qcurve"/>
      <point x="109.0" y="1329.0" type="line"/>
      <point x="193.75" y="1400.25"/>
      <point x="434.0" y="1483.0"/>
      <point x="557.0" y="1483.0" type="qcurve" smooth="yes"/>
      <point x="758.75" y="1483.0"/>
      <point x="979.0" y="1292.0"/>
      <point x="979.0" y="1118.0" type="qcurve" smooth="yes"/>
      <point x="979.0" y="982.25"/>
      <point x="808.0" y="796.25"/>
      <point x="664" y="770" type="qcurve"/>
      <point x="664.0" y="764.0" type="line"/>
      <point x="840.25" y="742.25"/>
      <point x="1024.0" y="562.25"/>
      <point x="1024.0" y="410.0" type="qcurve" smooth="yes"/>
      <point x="1024.0" y="205.25"/>
      <point x="744.75" y="-20.0"/>
    </contour>
  </outline>
</glyph>
<glyph name="four" format="1">
  <advance width="1169"/>
  <unicode hex="0034"/>
  <outline>
    <contour>
      <point x="795" y="0" type="line"/>
      <point x="795" y="373" type="line"/>
      <point x="43" y="373" type="line"/>
      <point x="43" y="440" type="line"/>
      <point x="768" y="1470" type="line"/>
      <point x="889" y="1470" type="line"/>
      <point x="889" y="459" type="line"/>
      <point x="1141" y="459" type="line"/>
      <point x="1141" y="373" type="line"/>
      <point x="889" y="373" type="line"/>
      <point x="889" y="0" type="line"/>
    </contour>
    <contour>
      <point x="162" y="459" type="line"/>
      <point x="795" y="459" type="line"/>
      <point x="795.0" y="877.0" type="line" smooth="yes"/>
      <point x="795.0" y="1027.75"/>
      <point x="802.25" y="1281.25"/>
      <point x="809" y="1384" type="qcurve"/>
      <point x="801.0" y="1384.0" type="line"/>
      <point x="791.25" y="1365.25"/>
      <point x="729.75" y="1271.75"/>
      <point x="678" y="1196" type="qcurve" smooth="yes"/>
    </contour>
  </outline>
</glyph>
<glyph name="five" format="1">
  <advance width="1169"/>
  <unicode hex="0035"/>
  <outline>
    <contour>
      <point x="514" y="-20" type="qcurve" smooth="yes"/>
      <point x="405.25" y="-20"/>
      <point x="209" y="23.25"/>
      <point x="143" y="63" type="qcurve"/>
      <point x="143" y="166" type="line"/>
      <point x="251" y="111.25"/>
      <point x="418.75" y="68"/>
      <point x="514" y="68" type="qcurve" smooth="yes"/>
      <point x="706" y="68"/>
      <point x="938" y="270.75"/>
      <point x="938" y="444" type="qcurve" smooth="yes"/>
      <point x="938" y="606.75"/>
      <point x="712.25" y="793"/>
      <point x="518" y="793" type="qcurve" smooth="yes"/>
      <point x="388.5" y="793"/>
      <point x="246" y="754" type="qcurve"/>
      <point x="186" y="793" type="line"/>
      <point x="244" y="1462" type="line"/>
      <point x="948" y="1462" type="line"/>
      <point x="948" y="1366" type="line"/>
      <point x="338" y="1366" type="line"/>
      <point x="293" y="850" type="line"/>
      <point x="451.73684" y="879"/>
      <point x="537" y="879" type="qcurve" smooth="yes"/>
      <point x="771" y="879"/>
      <point x="1040" y="653"/>
      <point x="1040" y="455" type="qcurve" smooth="yes"/>
      <point x="1040" y="230"/>
      <point x="760" y="-20"/>
    </contour>
  </outline>
</glyph>
<glyph name="six" format="1">
  <advance width="1169"/>
  <unicode hex="0036"/>
  <outline>
    <contour>
      <point x="610" y="-20" type="qcurve" smooth="yes"/>
      <point x="388" y="-20"/>
      <point x="131" y="319.25"/>
      <point x="131" y="623" type="qcurve" smooth="yes"/>
      <point x="131" y="908"/>
      <point x="286.5" y="1297.25"/>
      <point x="429" y="1391" type="qcurve" smooth="yes"/>
      <point x="570.74603" y="1485"/>
      <point x="772" y="1485" type="qcurve" smooth="yes"/>
      <point x="864.26667" y="1485"/>
      <point x="944" y="1462" type="qcurve"/>
      <point x="944" y="1374" type="line"/>
      <point x="870.5" y="1401"/>
      <point x="768" y="1401" type="qcurve" smooth="yes"/>
      <point x="535.28571" y="1401"/>
      <point x="399" y="1242" type="qcurve" smooth="yes"/>
      <point x="247.03521" y="1064.20119"/>
      <point x="229" y="705" type="qcurve"/>
      <point x="242" y="705" type="line"/>
      <point x="317.75" y="803.25"/>
      <point x="514.25" y="903"/>
      <point x="623" y="903" type="qcurve" smooth="yes"/>
      <point x="827.75" y="903"/>
      <point x="1059" y="669.25"/>
      <point x="1059" y="463" type="qcurve" smooth="yes"/>
      <point x="1059" y="238.75"/>
      <point x="816.25" y="-20"/>
    </contour>
    <contour>
      <point x="610" y="68" type="qcurve" smooth="yes"/>
      <point x="759.92857" y="68"/>
      <point x="849" y="154" type="qcurve" smooth="yes"/>
      <point x="956" y="257.89855"/>
      <point x="956" y="465" type="qcurve" smooth="yes"/>
      <point x="956" y="633"/>
      <point x="776.25" y="821"/>
      <point x="621" y="821" type="qcurve" smooth="yes"/>
      <point x="519" y="821"/>
      <point x="343.75" y="731.25"/>
      <point x="292" y="657" type="qcurve" smooth="yes"/>
      <point x="240" y="582.71429"/>
      <point x="240" y="504" type="qcurve" smooth="yes"/>
      <point x="240" y="393"/>
      <point x="339.25" y="188"/>
      <point x="424" y="128" type="qcurve" smooth="yes"/>
      <point x="508" y="68"/>
    </contour>
  </outline>
</glyph>
<glyph name="seven" format="1">
  <advance width="1169"/>
  <unicode hex="0037"/>
  <outline>
    <contour>
      <point x="334" y="0" type="line"/>
      <point x="936" y="1366" type="line"/>
      <point x="109" y="1366" type="line"/>
      <point x="109" y="1462" type="line"/>
      <point x="1055" y="1462" type="line"/>
      <point x="1055" y="1389" type="line"/>
      <point x="451" y="0" type="line"/>
    </contour>
  </outline>
</glyph>
<glyph name="eight" format="1">
  <advance width="1169"/>
  <unicode hex="0038"/>
  <outline>
    <contour>
      <point x="578" y="-20" type="qcurve" smooth="yes"/>
      <point x="356.75" y="-20"/>
      <point x="121" y="182.25"/>
      <point x="121" y="375" type="qcurve" smooth="yes"/>
      <point x="121" y="506.25"/>
      <point x="287" y="704.25"/>
      <point x="461" y="774" type="qcurve"/>
      <point x="299.75" y="849.75"/>
      <point x="168" y="1019.25"/>
      <point x="168" y="1137" type="qcurve" smooth="yes"/>
      <point x="168" y="1248.5"/>
      <point x="280" y="1404.91667"/>
      <point x="468" y="1487"/>
      <point x="582" y="1487" type="qcurve" smooth="yes"/>
      <point x="768" y="1487"/>
      <point x="995" y="1297"/>
      <point x="995" y="1135" type="qcurve" smooth="yes"/>
      <point x="995" y="1023.25"/>
      <point x="854.25" y="850.75"/>
      <point x="696" y="778" type="qcurve"/>
      <point x="888" y="699.25"/>
      <point x="1044" y="511.25"/>
      <point x="1044" y="377" type="qcurve" smooth="yes"/>
      <point x="1044" y="196.25"/>
      <point x="791" y="-20"/>
    </contour>
    <contour>
      <point x="578" y="70" type="qcurve" smooth="yes"/>
      <point x="742.25" y="70"/>
      <point x="942" y="231"/>
      <point x="942" y="369" type="qcurve" smooth="yes"/>
      <point x="942" y="451.5"/>
      <point x="876.08333" y="572.66667"/>
      <point x="710.5" y="676.5"/>
      <point x="561" y="733" type="qcurve"/>
      <point x="377.25" y="661.75"/>
      <point x="223" y="489.75"/>
      <point x="223" y="360" type="qcurve" smooth="yes"/>
      <point x="223" y="222"/>
      <point x="410" y="70"/>
    </contour>
    <contour>
      <point x="590" y="815" type="qcurve"/>
      <point x="752.75" y="878"/>
      <point x="895" y="1029.75"/>
      <point x="895" y="1137" type="qcurve" smooth="yes"/>
      <point x="895" y="1257"/>
      <point x="726.25" y="1397"/>
      <point x="580" y="1397" type="qcurve" smooth="yes"/>
      <point x="439" y="1397"/>
      <point x="268" y="1257.75"/>
      <point x="268" y="1137" type="qcurve" smooth="yes"/>
      <point x="268" y="1054"/>
      <point x="350.25" y="939.75"/>
      <point x="495.5" y="854.5"/>
    </contour>
  </outline>
</glyph>
<glyph name="nine" format="1">
  <advance width="1169"/>
  <unicode hex="0039"/>
  <outline>
    <contour>
      <point x="391" y="-20" type="qcurve" smooth="yes"/>
      <point x="289.23529" y="-20"/>
      <point x="199" y="6" type="qcurve"/>
      <point x="199" y="92" type="line"/>
      <point x="241.75" y="77.75"/>
      <point x="362.75" y="63"/>
      <point x="395" y="63" type="qcurve" smooth="yes"/>
      <point x="641.75" y="63"/>
      <point x="922.25" y="420"/>
      <point x="938" y="762" type="qcurve"/>
      <point x="926" y="762" type="line"/>
      <point x="853.25" y="666"/>
      <point x="651.25" y="563"/>
      <point x="541" y="563" type="qcurve" smooth="yes"/>
      <point x="337.75" y="563"/>
      <point x="111" y="786.75"/>
      <point x="111" y="993" type="qcurve" smooth="yes"/>
      <point x="111" y="1139.5"/>
      <point x="224.58333" y="1361.08333"/>
      <point x="426.5" y="1485"/>
      <point x="559" y="1485" type="qcurve" smooth="yes"/>
      <point x="703" y="1485"/>
      <point x="919.5" y="1334.25"/>
      <point x="978" y="1188" type="qcurve" smooth="yes"/>
      <point x="1036" y="1043.74359"/>
      <point x="1036" y="842" type="qcurve" smooth="yes"/>
      <point x="1036" y="554"/>
      <point x="885" y="166"/>
      <point x="741" y="73" type="qcurve" smooth="yes"/>
      <point x="595.5" y="-20"/>
    </contour>
    <contour>
      <point x="549" y="645" type="qcurve" smooth="yes"/>
      <point x="650.25" y="645"/>
      <point x="825.25" y="735"/>
      <point x="877" y="810" type="qcurve" smooth="yes"/>
      <point x="928" y="883.5"/>
      <point x="928" y="961" type="qcurve" smooth="yes"/>
      <point x="928" y="1078"/>
      <point x="835.25" y="1282.25"/>
      <point x="752" y="1340" type="qcurve" smooth="yes"/>
      <point x="668" y="1397"/>
      <point x="559" y="1397" type="qcurve" smooth="yes"/>
      <point x="413" y="1397"/>
      <point x="322" y="1306" type="qcurve" smooth="yes"/>
      <point x="213" y="1200.11429"/>
      <point x="213" y="999" type="qcurve" smooth="yes"/>
      <point x="213" y="825"/>
      <point x="387" y="645"/>
    </contour>
  </outline>
</glyph>
<glyph name="colon" format="1">
  <advance width="487"/>
  <unicode hex="003A"/>
  <note>
    colon
  </note>
  <outline>
    <contour>
      <point x="242" y="872" type="qcurve" smooth="yes"/>
      <point x="208.25" y="872"/>
      <point x="162" y="917.75"/>
      <point x="162" y="971" type="qcurve" smooth="yes"/>
      <point x="162" y="1069"/>
      <point x="242" y="1069" type="qcurve" smooth="yes"/>
      <point x="324" y="1069"/>
      <point x="324" y="971" type="qcurve" smooth="yes"/>
      <point x="324" y="917.75"/>
      <point x="277.25" y="872"/>
    </contour>
    <contour>
      <point x="242" y="-20" type="qcurve" smooth="yes"/>
      <point x="162" y="-20"/>
      <point x="162" y="78" type="qcurve" smooth="yes"/>
      <point x="162" y="176"/>
      <point x="242" y="176" type="qcurve" smooth="yes"/>
      <point x="324" y="176"/>
      <point x="324" y="78" type="qcurve" smooth="yes"/>
      <point x="324" y="-20"/>
    </contour>
  </outline>
</glyph>
<glyph name="semicolon" format="1">
  <advance width="487"/>
  <unicode hex="003B"/>
  <note>
    semicolon
  </note>
  <outline>
    <contour>
      <point x="76" y="-264" type="line"/>
      <point x="95.5" y="-199.5"/>
      <point x="138.91667" y="-19.25"/>
      <point x="176" y="166"/>
      <point x="186" y="238" type="qcurve"/>
      <point x="303" y="238" type="line"/>
      <point x="315" y="217" type="line"/>
      <point x="240.36814" y="-47.19679"/>
      <point x="141" y="-264" type="qcurve"/>
    </contour>
    <contour>
      <point x="242" y="872" type="qcurve" smooth="yes"/>
      <point x="208.25" y="872"/>
      <point x="162" y="917.75"/>
      <point x="162" y="971" type="qcurve" smooth="yes"/>
      <point x="162" y="1069"/>
      <point x="242" y="1069" type="qcurve" smooth="yes"/>
      <point x="324" y="1069"/>
      <point x="324" y="971" type="qcurve" smooth="yes"/>
      <point x="324" y="917.75"/>
      <point x="277.25" y="872"/>
    </contour>
  </outline>
</glyph>
<glyph name="question" format="1">
  <advance width="862"/>
  <unicode hex="003F"/>
  <note>
    question
  </note>
  <outline>
    <contour>
      <point x="293" y="377" type="line"/>
      <point x="293" y="414" type="line" smooth="yes"/>
      <point x="293" y="496"/>
      <point x="324.75" y="616.75"/>
      <point x="401.5" y="722.5"/>
      <point x="469" y="782" type="qcurve" smooth="yes"/>
      <point x="491.5" y="801.5"/>
      <point x="537.5" y="841.5"/>
      <point x="560" y="861" type="qcurve" smooth="yes"/>
      <point x="632" y="921.75"/>
      <point x="694" y="1042"/>
      <point x="694" y="1120" type="qcurve" smooth="yes"/>
      <point x="694" y="1246.75"/>
      <point x="526.75" y="1397"/>
      <point x="391" y="1397" type="qcurve" smooth="yes"/>
      <point x="312.25" y="1397"/>
      <point x="174.25" y="1362"/>
      <point x="94" y="1323" type="qcurve"/>
      <point x="57" y="1403" type="line"/>
      <point x="167.25" y="1451"/>
      <point x="316.25" y="1483"/>
      <point x="395" y="1483" type="qcurve" smooth="yes"/>
      <point x="578" y="1483"/>
      <point x="788" y="1285.75"/>
      <point x="788" y="1114" type="qcurve" smooth="yes"/>
      <point x="788" y="1045.75"/>
      <point x="752.25" y="944.5"/>
      <point x="720" y="901" type="qcurve" smooth="yes"/>
      <point x="687" y="857.5"/>
      <point x="595.25" y="776.25"/>
      <point x="539" y="729" type="qcurve" smooth="yes"/>
      <point x="475.25" y="675"/>
      <point x="406" y="585.75"/>
      <point x="391" y="537" type="qcurve" smooth="yes"/>
      <point x="375" y="489"/>
      <point x="375" y="391" type="qcurve" smooth="yes"/>
      <point x="375" y="377" type="line"/>
    </contour>
    <contour>
      <point x="340" y="-20" type="qcurve" smooth="yes"/>
      <point x="260" y="-20"/>
      <point x="260" y="78" type="qcurve" smooth="yes"/>
      <point x="260" y="176"/>
      <point x="340" y="176" type="qcurve" smooth="yes"/>
      <point x="422" y="176"/>
      <point x="422" y="78" type="qcurve" smooth="yes"/>
      <point x="422" y="-20"/>
    </contour>
  </outline>
</glyph>
<glyph name="at" format="1">
  <advance width="1815"/>
  <unicode hex="0040"/>
  <note>
at
</note>
  <outline>
    <contour>
      <point x="852.0" y="-197.0" type="qcurve" smooth="yes"/>
      <point x="677.625" y="-197.0"/>
      <point x="403.5260416666667" y="-94.45833333333333"/>
      <point x="212.72395833333334" y="101.45833333333333"/>
      <point x="113.0" y="382.5"/>
      <point x="113.0" y="561.0" type="qcurve" smooth="yes"/>
      <point x="113.0" y="757.125"/>
      <point x="238.0" y="1083.484375"/>
      <point x="468.0" y="1321.765625"/>
      <point x="785.0" y="1452.0"/>
      <point x="977.0" y="1452.0" type="qcurve" smooth="yes"/>
      <point x="1141.625" y="1452.0"/>
      <point x="1408.6510416666667" y="1350.0572916666667"/>
      <point x="1599.5989583333333" y="1159.1927083333333"/>
      <point x="1702.0" y="891.125"/>
      <point x="1702.0" y="725.0" type="qcurve" smooth="yes"/>
      <point x="1702.0" y="573.0"/>
      <point x="1620.25" y="346.33333333333337"/>
      <point x="1469.5" y="221.0"/>
      <point x="1366.0" y="221.0" type="qcurve" smooth="yes"/>
      <point x="1276.75" y="221.0"/>
      <point x="1166.0" y="329.0"/>
      <point x="1157" y="422" type="qcurve"/>
      <point x="1153.0" y="422.0" type="line"/>
      <point x="1110.25" y="322.25"/>
      <point x="948.0" y="221.0"/>
      <point x="840.0" y="221.0" type="qcurve" smooth="yes"/>
      <point x="692.25" y="221.0"/>
      <point x="530.0" y="414.0"/>
      <point x="530.0" y="588.0" type="qcurve" smooth="yes"/>
      <point x="530.0" y="722.5"/>
      <point x="639.5833333333333" y="929.5833333333333"/>
      <point x="835.5" y="1047.0"/>
      <point x="965.0" y="1047.0" type="qcurve" smooth="yes"/>
      <point x="1034.0" y="1047.0"/>
      <point x="1176.75" y="1026.25"/>
      <point x="1251" y="1006" type="qcurve"/>
      <point x="1229.0" y="542.0" type="line"/>
      <point x="1229.0" y="534.5"/>
      <point x="1229.0" y="519.5"/>
      <point x="1229.0" y="512.0" type="qcurve" smooth="yes"/>
      <point x="1229.0" y="419.0"/>
      <point x="1256.0" y="368.0" type="qcurve" smooth="yes"/>
      <point x="1292.2790697674418" y="303.0"/>
      <point x="1380.0" y="303.0" type="qcurve" smooth="yes"/>
      <point x="1431.375" y="303.0"/>
      <point x="1517.046875" y="363.734375"/>
      <point x="1579.703125" y="475.515625"/>
      <point x="1614.0" y="629.625"/>
      <point x="1614.0" y="723.0" type="qcurve" smooth="yes"/>
      <point x="1614.0" y="870.75"/>
      <point x="1523.5" y="1108.0833333333333"/>
      <point x="1355.0" y="1276.4166666666667"/>
      <point x="1119.75" y="1366.0"/>
      <point x="975.0" y="1366.0" type="qcurve" smooth="yes"/>
      <point x="797.25" y="1366.0"/>
      <point x="512.8020833333334" y="1250.2760416666667"/>
      <point x="311.6979166666667" y="1037.4739583333333"/>
      <point x="205.0" y="744.375"/>
      <point x="205.0" y="567.0" type="qcurve" smooth="yes"/>
      <point x="205.0" y="245.25"/>
      <point x="539.25" y="-106.0"/>
      <point x="846.0" y="-106.0" type="qcurve" smooth="yes"/>
      <point x="939.0" y="-106.0"/>
      <point x="1130.25" y="-69.75"/>
      <point x="1266" y="-18" type="qcurve"/>
      <point x="1266.0" y="-117.0" type="line"/>
      <point x="1164.75" y="-156.75"/>
      <point x="957.75" y="-197.0"/>
    </contour>
    <contour>
      <point x="862.0" y="303.0" type="qcurve" smooth="yes"/>
      <point x="917.5" y="303.0"/>
      <point x="1007.0" y="336.0"/>
      <point x="1040.0" y="369.0" type="qcurve" smooth="yes"/>
      <point x="1082.75" y="411.75"/>
      <point x="1129.75" y="551.5"/>
      <point x="1135" y="649" type="qcurve" smooth="yes"/>
      <point x="1151.0" y="940.0" type="line"/>
      <point x="1071.5" y="967.0"/>
      <point x="958.0" y="967.0" type="qcurve" smooth="yes"/>
      <point x="892.75" y="967.0"/>
      <point x="784.5" y="926.25"/>
      <point x="744.0" y="888.0" type="qcurve" smooth="yes"/>
      <point x="690.75" y="838.5"/>
      <point x="633.0" y="686.75"/>
      <point x="633.0" y="590.0" type="qcurve" smooth="yes"/>
      <point x="633.0" y="518.75"/>
      <point x="659.5" y="411.0"/>
      <point x="688.0" y="375.0" type="qcurve" smooth="yes"/>
      <point x="743.5" y="303.0"/>
    </contour>
  </outline>
</glyph>
<glyph name="A" format="1">
  <advance width="1229"/>
  <unicode hex="0041"/>
  <outline>
    <contour>
      <point x="1229" y="0" type="line"/>
      <point x="1114" y="0" type="line"/>
      <point x="911" y="516" type="line"/>
      <point x="317" y="516" type="line"/>
      <point x="113" y="0" type="line"/>
      <point x="0" y="0" type="line"/>
      <point x="588" y="1468" type="line"/>
      <point x="653" y="1468" type="line"/>
    </contour>
    <contour>
      <point x="354" y="608" type="qcurve"/>
      <point x="877" y="608" type="line"/>
      <point x="678.0" y="1135.0" type="line" smooth="yes"/>
      <point x="653.8120805369127" y="1193.3355704697988"/>
      <point x="618.0" y="1307.0" type="qcurve"/>
      <point x="604.5" y="1259.0"/>
      <point x="574.75" y="1172.0"/>
      <point x="559.0" y="1133.0" type="qcurve" smooth="yes"/>
      <point x="508.0" y="1001.75"/>
      <point x="405.0" y="739.25"/>
    </contour>
    <contour>
      <point x="615" y="0" type="move" name="bottom"/>
    </contour>
    <contour>
      <point x="1106" y="10" type="move" name="ogonek"/>
    </contour>
    <contour>
      <point x="615" y="1462" type="move" name="top"/>
    </contour>
  </outline>
</glyph>
<glyph name="B" format="1">
  <advance width="1284"/>
  <unicode hex="0042"/>
  <outline>
    <contour>
      <point x="207" y="0" type="line"/>
      <point x="207" y="1462" type="line"/>
      <point x="608" y="1462" type="line" smooth="yes"/>
      <point x="878.75" y="1462"/>
      <point x="1133" y="1278"/>
      <point x="1133" y="1092" type="qcurve" smooth="yes"/>
      <point x="1133" y="965.25"/>
      <point x="978.25" y="796"/>
      <point x="829" y="772" type="qcurve"/>
      <point x="829" y="766" type="line"/>
      <point x="1003.75" y="739.75"/>
      <point x="1169" y="570.75"/>
      <point x="1169" y="420" type="qcurve" smooth="yes"/>
      <point x="1169" y="218.25"/>
      <point x="901" y="0"/>
      <point x="655" y="0" type="qcurve" smooth="yes"/>
    </contour>
    <contour>
      <point x="309" y="1372" type="line"/>
      <point x="309" y="811" type="line"/>
      <point x="631" y="811" type="line" smooth="yes"/>
      <point x="837.25" y="811"/>
      <point x="1024" y="947.75"/>
      <point x="1024" y="1094" type="qcurve" smooth="yes"/>
      <point x="1024" y="1240.25"/>
      <point x="813.25" y="1372"/>
      <point x="604" y="1372" type="qcurve" smooth="yes"/>
    </contour>
    <contour>
      <point x="631" y="721" type="qcurve" smooth="yes"/>
      <point x="309" y="721" type="line"/>
      <point x="309" y="90" type="line"/>
      <point x="653" y="90" type="line" smooth="yes"/>
      <point x="1059" y="90"/>
      <point x="1059" y="420" type="qcurve" smooth="yes"/>
      <point x="1059" y="721"/>
    </contour>
    <contour>
      <point x="642" y="0" type="move" name="bottom"/>
    </contour>
    <contour>
      <point x="642" y="1462" type="move" name="top"/>
    </contour>
  </outline>
</glyph>
<glyph name="C" format="1">
  <advance width="1272"/>
  <unicode hex="0043"/>
  <outline>
    <contour>
      <point x="831" y="1391" type="qcurve" smooth="yes"/>
      <point x="647.5" y="1391"/>
      <point x="382.58333" y="1232"/>
      <point x="240" y="937"/>
      <point x="240" y="733" type="qcurve" smooth="yes"/>
      <point x="240" y="520.75"/>
      <point x="377.75" y="225.25"/>
      <point x="503" y="151" type="qcurve" smooth="yes"/>
      <point x="633.9" y="74"/>
      <point x="815" y="74" type="qcurve" smooth="yes"/>
      <point x="996.83871" y="74"/>
      <point x="1153" y="121" type="qcurve"/>
      <point x="1153" y="31" type="line"/>
      <point x="1007.5" y="-20"/>
      <point x="791" y="-20" type="qcurve" smooth="yes"/>
      <point x="585.5" y="-20"/>
      <point x="288.75" y="159.16667"/>
      <point x="129" y="497"/>
      <point x="129" y="735" type="qcurve" smooth="yes"/>
      <point x="129" y="957.75"/>
      <point x="298" y="1298"/>
      <point x="457" y="1391" type="qcurve" smooth="yes"/>
      <point x="615.36066" y="1483"/>
      <point x="825" y="1483" type="qcurve" smooth="yes"/>
      <point x="1037.43396" y="1483"/>
      <point x="1208" y="1403" type="qcurve"/>
      <point x="1167" y="1311" type="line"/>
      <point x="1005.49057" y="1391"/>
    </contour>
    <contour>
      <point x="636" y="0" type="move" name="bottom"/>
    </contour>
    <contour>
      <point x="710" y="4" type="move" name="cyrillichookleft"/>
    </contour>
    <contour>
      <point x="636" y="1462" type="move" name="top"/>
    </contour>
  </outline>
</glyph>
<glyph name="D" format="1">
  <advance width="1446"/>
  <unicode hex="0044"/>
  <outline>
    <contour>
      <point x="1317" y="745" type="qcurve" smooth="yes"/>
      <point x="1317" y="376.75"/>
      <point x="931.25" y="0"/>
      <point x="557" y="0" type="qcurve" smooth="yes"/>
      <point x="207" y="0" type="line"/>
      <point x="207" y="1462" type="line"/>
      <point x="602" y="1462" type="line" smooth="yes"/>
      <point x="952.25" y="1462"/>
      <point x="1317" y="1096"/>
    </contour>
    <contour>
      <point x="1206" y="741" type="qcurve" smooth="yes"/>
      <point x="1206" y="1055.25"/>
      <point x="887" y="1372"/>
      <point x="578" y="1372" type="qcurve" smooth="yes"/>
      <point x="309" y="1372" type="line"/>
      <point x="309" y="90" type="line"/>
      <point x="551" y="90" type="line" smooth="yes"/>
      <point x="1206" y="90"/>
    </contour>
    <contour>
      <point x="723" y="0" type="move" name="bottom"/>
    </contour>
    <contour>
      <point x="723" y="731" type="move" name="center"/>
    </contour>
    <contour>
      <point x="723" y="1462" type="move" name="top"/>
    </contour>
  </outline>
</glyph>
<glyph name="G" format="1">
  <advance width="1481"/>
  <unicode hex="0047"/>
  <outline>
    <contour>
      <point x="856.0" y="-20.0" type="qcurve" smooth="yes"/>
      <point x="501.25" y="-20.0"/>
      <point x="129.0" y="368.75"/>
      <point x="129.0" y="713.0" type="qcurve" smooth="yes"/>
      <point x="129.0" y="961.25"/>
      <point x="316.5" y="1298.75"/>
      <point x="483.0" y="1391.0" type="qcurve" smooth="yes"/>
      <point x="572.25" y="1440.5"/>
      <point x="768.0" y="1485.0"/>
      <point x="879.0" y="1485.0" type="qcurve" smooth="yes"/>
      <point x="993.75" y="1485.0"/>
      <point x="1210.0" y="1440.5"/>
      <point x="1303" y="1397" type="qcurve"/>
      <point x="1262.0" y="1305.0" type="line"/>
      <point x="1072.5762711864406" y="1393.0"/>
      <point x="870.0" y="1393.0" type="qcurve" smooth="yes"/>
      <point x="676.5" y="1393.0"/>
      <point x="393.74999999999994" y="1234.5833333333335"/>
      <point x="240.0" y="930.5"/>
      <point x="240.0" y="712.0" type="qcurve" smooth="yes"/>
      <point x="240.0" y="402.25"/>
      <point x="564.0" y="70.0"/>
      <point x="882.0" y="70.0" type="qcurve" smooth="yes"/>
      <point x="973.5" y="70.0"/>
      <point x="1147.25" y="98.5"/>
      <point x="1217" y="127" type="qcurve"/>
      <point x="1217" y="641" type="line"/>
      <point x="782" y="641" type="line"/>
      <point x="782" y="737" type="line"/>
      <point x="1321" y="737" type="line"/>
      <point x="1321.0" y="70.0" type="line"/>
      <point x="1216.75" y="25.0"/>
      <point x="973.0" y="-20.0"/>
    </contour>
    <contour>
      <point x="741" y="0" type="move" name="bottom"/>
    </contour>
    <contour>
      <point x="741" y="1462" type="move" name="top"/>
    </contour>
  </outline>
</glyph>
<glyph name="H" format="1">
  <advance width="1473"/>
  <unicode hex="0048"/>
  <outline>
    <contour>
      <point x="1266" y="1462" type="line"/>
      <point x="1266" y="0" type="line"/>
      <point x="1163" y="0" type="line"/>
      <point x="1163" y="719" type="line"/>
      <point x="309" y="719" type="line"/>
      <point x="309" y="0" type="line"/>
      <point x="207" y="0" type="line"/>
      <point x="207" y="1462" type="line"/>
      <point x="309" y="1462" type="line"/>
      <point x="309" y="813" type="line"/>
      <point x="1163" y="813" type="line"/>
      <point x="1163" y="1462" type="line"/>
    </contour>
    <contour>
      <point x="737" y="0" type="move" name="bottom"/>
    </contour>
    <contour>
      <point x="737" y="731" type="move" name="center"/>
    </contour>
    <contour>
      <point x="737" y="1462" type="move" name="top"/>
    </contour>
    <contour>
      <point x="20" y="1462" type="move" name="topleft"/>
    </contour>
  </outline>
</glyph>
<glyph name="I" format="1">
  <advance width="516"/>
  <unicode hex="0049"/>
  <outline>
    <contour>
      <point x="309" y="0" type="line"/>
      <point x="207" y="0" type="line"/>
      <point x="207" y="1462" type="line"/>
      <point x="309" y="1462" type="line"/>
    </contour>
    <contour>
      <point x="258" y="0" type="move" name="bottom"/>
    </contour>
    <contour>
      <point x="209" y="10" type="move" name="ogonek"/>
    </contour>
    <contour>
      <point x="258" y="1462" type="move" name="top"/>
    </contour>
    <contour>
      <point x="20" y="1462" type="move" name="topleft"/>
    </contour>
  </outline>
</glyph>
<glyph name="J" format="1">
  <advance width="506"/>
  <unicode hex="004A"/>
  <outline>
    <contour>
      <point x="-33.0" y="-369.0" type="qcurve" smooth="yes"/>
      <point x="-78.75" y="-369.0"/>
      <point x="-154.75" y="-355.5"/>
      <point x="-184" y="-342" type="qcurve"/>
      <point x="-184.0" y="-254.0" type="line"/>
      <point x="-145.0" y="-263.75"/>
      <point x="-70.25" y="-274.0"/>
      <point x="-35.0" y="-274.0" type="qcurve" smooth="yes"/>
      <point x="82.48780487804878" y="-274.0"/>
      <point x="142.0" y="-213.0" type="qcurve" smooth="yes"/>
      <point x="174.25" y="-180.0"/>
      <point x="207.0" y="-78.25"/>
      <point x="207" y="-10" type="qcurve" smooth="yes"/>
      <point x="207" y="1462" type="line"/>
      <point x="309" y="1462" type="line"/>
      <point x="309.0" y="0.0" type="line" smooth="yes"/>
      <point x="309.0" y="-97.5"/>
      <point x="261.25" y="-240.25"/>
      <point x="214.0" y="-286.0" type="qcurve" smooth="yes"/>
      <point x="171.25" y="-327.25"/>
      <point x="48.0" y="-369.0"/>
    </contour>
    <contour>
      <point x="253" y="0" type="move" name="bottom"/>
    </contour>
    <contour>
      <point x="253" y="1462" type="move" name="top"/>
    </contour>
  </outline>
</glyph>
<glyph name="K" format="1">
  <advance width="1190"/>
  <unicode hex="004B"/>
  <outline>
    <contour>
      <point x="575" y="844" type="line"/>
      <point x="1190" y="0" type="line"/>
      <point x="1065" y="0" type="line"/>
      <point x="504" y="772" type="line"/>
      <point x="309" y="600" type="line"/>
      <point x="309" y="0" type="line"/>
      <point x="207" y="0" type="line"/>
      <point x="207" y="1462" type="line"/>
      <point x="309" y="1462" type="line"/>
      <point x="309" y="702" type="line"/>
      <point x="349.5" y="742.5"/>
      <point x="430.5" y="823.5"/>
      <point x="471" y="864" type="qcurve" smooth="yes"/>
      <point x="1044" y="1462" type="line"/>
      <point x="1174" y="1462" type="line"/>
    </contour>
    <contour>
      <point x="595" y="0" type="move" name="bottom"/>
    </contour>
    <contour>
      <point x="595" y="1462" type="move" name="top"/>
    </contour>
  </outline>
</glyph>
<glyph name="L" format="1">
  <advance width="1051"/>
  <unicode hex="004C"/>
  <outline>
    <contour>
      <point x="1006" y="0" type="line"/>
      <point x="207" y="0" type="line"/>
      <point x="207" y="1462" type="line"/>
      <point x="309" y="1462" type="line"/>
      <point x="309" y="96" type="line"/>
      <point x="1006" y="96" type="line"/>
    </contour>
    <contour>
      <point x="526" y="0" type="move" name="bottom"/>
    </contour>
    <contour>
      <point x="526" y="731" type="move" name="center"/>
    </contour>
    <contour>
      <point x="426" y="1462" type="move" name="top"/>
    </contour>
    <contour>
      <point x="874" y="1462" type="move" name="topright"/>
    </contour>
  </outline>
</glyph>
<glyph name="O" format="1">
  <advance width="1565"/>
  <unicode hex="004F"/>
  <outline>
    <contour>
      <point x="1436" y="733" type="qcurve" smooth="yes"/>
      <point x="1436" y="501"/>
      <point x="1279" y="163.16667"/>
      <point x="986" y="-20"/>
      <point x="782" y="-20" type="qcurve" smooth="yes"/>
      <point x="578.5" y="-20"/>
      <point x="285.91667" y="162.91667"/>
      <point x="129" y="501.5"/>
      <point x="129" y="735" type="qcurve" smooth="yes"/>
      <point x="129" y="967.5"/>
      <point x="287.75" y="1303.75"/>
      <point x="581.5" y="1485"/>
      <point x="784" y="1485" type="qcurve" smooth="yes"/>
      <point x="988" y="1485"/>
      <point x="1280" y="1302.75"/>
      <point x="1436" y="965.5"/>
    </contour>
    <contour>
      <point x="240" y="733" type="qcurve" smooth="yes"/>
      <point x="240" y="418.75"/>
      <point x="520.25" y="76"/>
      <point x="782" y="76" type="qcurve" smooth="yes"/>
      <point x="1046" y="76"/>
      <point x="1325" y="415.75"/>
      <point x="1325" y="733" type="qcurve" smooth="yes"/>
      <point x="1325" y="1048.75"/>
      <point x="1045.75" y="1386"/>
      <point x="784" y="1386" type="qcurve" smooth="yes"/>
      <point x="523" y="1386"/>
      <point x="240" y="1045.75"/>
    </contour>
    <contour>
      <point x="783" y="0" type="move" name="bottom"/>
    </contour>
    <contour>
      <point x="783" y="731" type="move" name="center"/>
    </contour>
    <contour>
      <point x="1408" y="10" type="move" name="ogonek"/>
    </contour>
    <contour>
      <point x="783" y="1462" type="move" name="top"/>
    </contour>
    <contour>
      <point x="20" y="1462" type="move" name="topleft"/>
    </contour>
    <contour>
      <point x="1545" y="1462" type="move" name="topright"/>
    </contour>
  </outline>
</glyph>
<glyph name="P" format="1">
  <advance width="1198"/>
  <unicode hex="0050"/>
  <outline>
    <contour>
      <point x="207" y="0" type="line"/>
      <point x="207" y="1462" type="line"/>
      <point x="565" y="1462" type="line" smooth="yes"/>
      <point x="1087" y="1462"/>
      <point x="1087" y="1042" type="qcurve" smooth="yes"/>
      <point x="1087" y="829.75"/>
      <point x="799" y="604"/>
      <point x="535" y="604" type="qcurve" smooth="yes"/>
      <point x="309" y="604" type="line"/>
      <point x="309" y="0" type="line"/>
    </contour>
    <contour>
      <point x="309" y="692" type="line"/>
      <point x="510" y="692" type="line" smooth="yes"/>
      <point x="756.75" y="692"/>
      <point x="977" y="855"/>
      <point x="977" y="1038" type="qcurve" smooth="yes"/>
      <point x="977" y="1206.75"/>
      <point x="769.25" y="1370"/>
      <point x="551" y="1370" type="qcurve" smooth="yes"/>
      <point x="309" y="1370" type="line"/>
    </contour>
    <contour>
      <point x="599" y="0" type="move" name="bottom"/>
    </contour>
    <contour>
      <point x="599" y="1462" type="move" name="top"/>
    </contour>
  </outline>
</glyph>
<glyph name="Q" format="1">
  <advance width="1565"/>
  <unicode hex="0051"/>
  <outline>
    <contour>
      <point x="1128" y="-348" type="line"/>
      <point x="846" y="-18" type="line"/>
      <point x="831" y="-18.75"/>
      <point x="797.75" y="-20"/>
      <point x="782" y="-20" type="qcurve" smooth="yes"/>
      <point x="578.5" y="-19.5"/>
      <point x="285.91667" y="163.33333"/>
      <point x="129" y="501.5"/>
      <point x="129" y="735" type="qcurve" smooth="yes"/>
      <point x="129" y="967.5"/>
      <point x="287.75" y="1303.75"/>
      <point x="581.5" y="1485"/>
      <point x="784" y="1485" type="qcurve" smooth="yes"/>
      <point x="988" y="1485"/>
      <point x="1280" y="1302.75"/>
      <point x="1436" y="965.5"/>
      <point x="1436" y="733" type="qcurve" smooth="yes"/>
      <point x="1436" y="439"/>
      <point x="1183.75" y="54"/>
      <point x="961" y="0" type="qcurve"/>
      <point x="1294" y="-348" type="line"/>
    </contour>
    <contour>
      <point x="782" y="76" type="qcurve" smooth="yes"/>
      <point x="1046" y="76"/>
      <point x="1325" y="415.75"/>
      <point x="1325" y="733" type="qcurve" smooth="yes"/>
      <point x="1325" y="1048.75"/>
      <point x="1045.75" y="1386"/>
      <point x="784" y="1386" type="qcurve" smooth="yes"/>
      <point x="523" y="1386"/>
      <point x="240" y="1045.75"/>
      <point x="240" y="733" type="qcurve" smooth="yes"/>
      <point x="240" y="418.75"/>
      <point x="520.25" y="76"/>
    </contour>
    <contour>
      <point x="783" y="0" type="move" name="bottom"/>
    </contour>
    <contour>
      <point x="783" y="1462" type="move" name="top"/>
    </contour>
  </outline>
</glyph>
<glyph name="R" format="1">
  <advance width="1217"/>
  <unicode hex="0052"/>
  <outline>
    <contour>
      <point x="207" y="0" type="line"/>
      <point x="207" y="1462" type="line"/>
      <point x="555" y="1462" type="line" smooth="yes"/>
      <point x="827.25" y="1462"/>
      <point x="1087" y="1260.75"/>
      <point x="1087" y="1059" type="qcurve" smooth="yes"/>
      <point x="1087" y="912"/>
      <point x="932.25" y="710.25"/>
      <point x="774" y="666" type="qcurve"/>
      <point x="1171" y="0" type="line"/>
      <point x="1049" y="0" type="line"/>
      <point x="672" y="637" type="line"/>
      <point x="309" y="637" type="line"/>
      <point x="309" y="0" type="line"/>
    </contour>
    <contour>
      <point x="309" y="725" type="line"/>
      <point x="588" y="725" type="line" smooth="yes"/>
      <point x="773.25" y="725"/>
      <point x="977" y="889.75"/>
      <point x="977" y="1051" type="qcurve" smooth="yes"/>
      <point x="977" y="1218.25"/>
      <point x="776.75" y="1370"/>
      <point x="551" y="1370" type="qcurve" smooth="yes"/>
      <point x="309" y="1370" type="line"/>
    </contour>
    <contour>
      <point x="609" y="0" type="move" name="bottom"/>
    </contour>
    <contour>
      <point x="609" y="1462" type="move" name="top"/>
    </contour>
  </outline>
</glyph>
<glyph name="S" format="1">
  <advance width="1116"/>
  <unicode hex="0053"/>
  <outline>
    <contour>
      <point x="492" y="-20" type="qcurve" smooth="yes"/>
      <point x="435" y="-20"/>
      <point x="294.83333" y="-8"/>
      <point x="160" y="18"/>
      <point x="111" y="39" type="qcurve"/>
      <point x="111" y="141" type="line"/>
      <point x="190.5" y="105.75"/>
      <point x="404.5" y="74"/>
      <point x="490" y="74" type="qcurve" smooth="yes"/>
      <point x="700" y="74"/>
      <point x="905" y="239.75"/>
      <point x="905" y="377" type="qcurve" smooth="yes"/>
      <point x="905" y="471"/>
      <point x="810.75" y="585.75"/>
      <point x="639.5" y="665.5"/>
      <point x="524" y="707" type="qcurve" smooth="yes"/>
      <point x="389" y="755.75"/>
      <point x="211.75" y="859.25"/>
      <point x="169" y="932" type="qcurve" smooth="yes"/>
      <point x="129" y="1000.14815"/>
      <point x="129" y="1097" type="qcurve" smooth="yes"/>
      <point x="129" y="1281.5"/>
      <point x="388.75" y="1483"/>
      <point x="598" y="1483" type="qcurve" smooth="yes"/>
      <point x="689.5" y="1483"/>
      <point x="887.25" y="1443.25"/>
      <point x="975" y="1405" type="qcurve"/>
      <point x="938" y="1317" type="line"/>
      <point x="757.68627" y="1393"/>
      <point x="592" y="1393" type="qcurve" smooth="yes"/>
      <point x="428.5" y="1393"/>
      <point x="236" y="1244.75"/>
      <point x="236" y="1106" type="qcurve" smooth="yes"/>
      <point x="236" y="1034"/>
      <point x="295.25" y="929.25"/>
      <point x="362" y="888" type="qcurve" smooth="yes"/>
      <point x="404" y="861.75"/>
      <point x="513.25" y="817.25"/>
      <point x="592" y="788" type="qcurve" smooth="yes"/>
      <point x="719" y="740.5"/>
      <point x="908.83333" y="645"/>
      <point x="1014" y="499.5"/>
      <point x="1014" y="377" type="qcurve" smooth="yes"/>
      <point x="1014" y="194"/>
      <point x="749.25" y="-20"/>
    </contour>
    <contour>
      <point x="558" y="0" type="move" name="bottom"/>
    </contour>
    <contour>
      <point x="558" y="1462" type="move" name="top"/>
    </contour>
  </outline>
</glyph>
<glyph name="U" format="1">
  <advance width="1473"/>
  <unicode hex="0055"/>
  <outline>
    <contour>
      <point x="729.0" y="-20.0" type="qcurve" smooth="yes"/>
      <point x="474.75" y="-20.0"/>
      <point x="190.0" y="265.0"/>
      <point x="190" y="520" type="qcurve" smooth="yes"/>
      <point x="190" y="1462" type="line"/>
      <point x="293" y="1462" type="line"/>
      <point x="293.0" y="516.0" type="line" smooth="yes"/>
      <point x="293.0" y="305.25"/>
      <point x="527.25" y="70.0"/>
      <point x="741.0" y="70.0" type="qcurve" smooth="yes"/>
      <point x="950.25" y="70.0"/>
      <point x="1180.0" y="301.25"/>
      <point x="1180" y="506" type="qcurve" smooth="yes"/>
      <point x="1180" y="1462" type="line"/>
      <point x="1282" y="1462" type="line"/>
      <point x="1282.0" y="516.0" type="line" smooth="yes"/>
      <point x="1282.0" y="264.0"/>
      <point x="990.0" y="-20.0"/>
    </contour>
    <contour>
      <point x="737" y="0" type="move" name="bottom"/>
    </contour>
    <contour>
      <point x="1326" y="10" type="move" name="ogonek"/>
    </contour>
    <contour>
      <point x="737" y="1462" type="move" name="top"/>
    </contour>
    <contour>
      <point x="1453" y="1462" type="move" name="topright"/>
    </contour>
  </outline>
</glyph>
<glyph name="V" format="1">
  <advance width="1182"/>
  <unicode hex="0056"/>
  <outline>
    <contour>
      <point x="545" y="0" type="line"/>
      <point x="0" y="1462" type="line"/>
      <point x="109" y="1462" type="line"/>
      <point x="477" y="467" type="line" smooth="yes"/>
      <point x="562.16148" y="238.88889"/>
      <point x="590" y="129" type="qcurve"/>
      <point x="599.75" y="166.5"/>
      <point x="639.75" y="282.5"/>
      <point x="669" y="362" type="qcurve" smooth="yes"/>
      <point x="1071" y="1462" type="line"/>
      <point x="1182" y="1462" type="line"/>
      <point x="635" y="0" type="line"/>
    </contour>
    <contour>
      <point x="591" y="0" type="move" name="bottom"/>
    </contour>
    <contour>
      <point x="591" y="1462" type="move" name="top"/>
    </contour>
  </outline>
</glyph>
<glyph name="W" format="1">
  <advance width="1827"/>
  <unicode hex="0057"/>
  <outline>
    <contour>
      <point x="453" y="0" type="line"/>
      <point x="51" y="1462" type="line"/>
      <point x="158" y="1462" type="line"/>
      <point x="414.0" y="520.0" type="line" smooth="yes"/>
      <point x="436.5" y="437.0"/>
      <point x="464.5" y="329.33333333333337"/>
      <point x="486.5" y="231.0"/>
      <point x="500.0" y="162.0" type="qcurve"/>
      <point x="523.530474040632" y="295.8295711060948"/>
      <point x="602" y="575" type="qcurve" smooth="yes"/>
      <point x="852" y="1462" type="line"/>
      <point x="965" y="1462" type="line"/>
      <point x="1258.0" y="444.0" type="line" smooth="yes"/>
      <point x="1283.5" y="356.25"/>
      <point x="1319.75" y="214.0"/>
      <point x="1331.0" y="160.0" type="qcurve"/>
      <point x="1337.75" y="196.0"/>
      <point x="1353.75" y="272.5"/>
      <point x="1365" y="313" type="qcurve" smooth="yes"/>
      <point x="1673" y="1462" type="line"/>
      <point x="1776" y="1462" type="line"/>
      <point x="1372" y="0" type="line"/>
      <point x="1288" y="0" type="line"/>
      <point x="967.0" y="1128.0" type="line" smooth="yes"/>
      <point x="926.5" y="1267.5"/>
      <point x="907.0" y="1356.0" type="qcurve"/>
      <point x="898.75" y="1312.5"/>
      <point x="877.75" y="1212.25"/>
      <point x="862" y="1156" type="qcurve" smooth="yes"/>
      <point x="539" y="0" type="line"/>
    </contour>
    <contour>
      <point x="914" y="0" type="move" name="bottom"/>
    </contour>
    <contour>
      <point x="914" y="1462" type="move" name="top"/>
    </contour>
  </outline>
</glyph>
<glyph name="Y" format="1">
  <advance width="1081"/>
  <unicode hex="0059"/>
  <outline>
    <contour>
      <point x="117" y="1462" type="line"/>
      <point x="543" y="662" type="line"/>
      <point x="971" y="1462" type="line"/>
      <point x="1081" y="1462" type="line"/>
      <point x="594" y="565" type="line"/>
      <point x="594" y="0" type="line"/>
      <point x="489" y="0" type="line"/>
      <point x="489" y="557" type="line"/>
      <point x="0" y="1462" type="line"/>
    </contour>
    <contour>
      <point x="541" y="0" type="move" name="bottom"/>
    </contour>
    <contour>
      <point x="541" y="1462" type="move" name="top"/>
    </contour>
    <contour>
      <point x="20" y="1462" type="move" name="topleft"/>
    </contour>
  </outline>
</glyph>
<glyph name="Z" format="1">
  <advance width="1180"/>
  <unicode hex="005A"/>
  <outline>
    <contour>
      <point x="1098" y="96" type="line"/>
      <point x="1098" y="0" type="line"/>
      <point x="82" y="0" type="line"/>
      <point x="82" y="76" type="line"/>
      <point x="938" y="1366" type="line"/>
      <point x="121" y="1366" type="line"/>
      <point x="121" y="1462" type="line"/>
      <point x="1075" y="1462" type="line"/>
      <point x="1075" y="1386" type="line"/>
      <point x="217" y="96" type="line"/>
    </contour>
    <contour>
      <point x="590" y="0" type="move" name="bottom"/>
    </contour>
    <contour>
      <point x="590" y="1462" type="move" name="top"/>
    </contour>
  </outline>
</glyph>
<glyph name="bracketleft" format="1">
  <advance width="653"/>
  <unicode hex="005B"/>
  <note>
    bracketleft
  </note>
  <outline>
    <contour>
      <point x="174" y="-324" type="line"/>
      <point x="174" y="1462" type="line"/>
      <point x="602" y="1462" type="line"/>
      <point x="602" y="1368" type="line"/>
      <point x="272" y="1368" type="line"/>
      <point x="272" y="-229" type="line"/>
      <point x="602" y="-229" type="line"/>
      <point x="602" y="-324" type="line"/>
    </contour>
  </outline>
</glyph>
<glyph name="backslash" format="1">
  <advance width="698"/>
  <unicode hex="005C"/>
  <note>
    backslash
  </note>
  <outline>
    <contour>
      <point x="571" y="0" type="line"/>
      <point x="25" y="1462" type="line"/>
      <point x="127" y="1462" type="line"/>
      <point x="674" y="0" type="line"/>
    </contour>
  </outline>
</glyph>
<glyph name="a" format="1">
  <advance width="1085"/>
  <unicode hex="0061"/>
  <outline>
    <contour>
      <point x="915" y="0" type="line"/>
      <point x="842" y="0" type="line"/>
      <point x="817" y="172" type="line"/>
      <point x="809" y="172" type="line"/>
      <point x="727.25" y="67"/>
      <point x="553.75" y="-20"/>
      <point x="436" y="-20" type="qcurve" smooth="yes"/>
      <point x="276.25" y="-20"/>
      <point x="98" y="144.25"/>
      <point x="98" y="289" type="qcurve" smooth="yes"/>
      <point x="98" y="448"/>
      <point x="362.75" y="621.5"/>
      <point x="614" y="629" type="qcurve" smooth="yes"/>
      <point x="821" y="635" type="line"/>
      <point x="821" y="707" type="line" smooth="yes"/>
      <point x="821" y="862.25"/>
      <point x="695.25" y="1020"/>
      <point x="555" y="1020" type="qcurve" smooth="yes"/>
      <point x="404" y="1020"/>
      <point x="242" y="936" type="qcurve"/>
      <point x="205" y="1022" type="line"/>
      <point x="383.5" y="1106"/>
      <point x="559" y="1106" type="qcurve" smooth="yes"/>
      <point x="738.25" y="1106"/>
      <point x="915" y="920.25"/>
      <point x="915" y="723" type="qcurve" smooth="yes"/>
    </contour>
    <contour>
      <point x="442" y="70" type="qcurve" smooth="yes"/>
      <point x="616" y="70"/>
      <point x="817" y="269"/>
      <point x="817" y="446" type="qcurve" smooth="yes"/>
      <point x="817" y="553" type="line"/>
      <point x="627" y="545" type="line" smooth="yes"/>
      <point x="398.25" y="535.25"/>
      <point x="203" y="413.25"/>
      <point x="203" y="285" type="qcurve" smooth="yes"/>
      <point x="203" y="183"/>
      <point x="328" y="70"/>
    </contour>
    <contour>
      <point x="543" y="0" type="move" name="bottom"/>
    </contour>
    <contour>
      <point x="816" y="10" type="move" name="ogonek"/>
    </contour>
    <contour>
      <point x="543" y="1087" type="move" name="top"/>
    </contour>
  </outline>
</glyph>
<glyph name="b" format="1">
  <advance width="1219"/>
  <unicode hex="0062"/>
  <outline>
    <contour>
      <point x="637.0" y="-20.0" type="qcurve" smooth="yes"/>
      <point x="520.75" y="-20.0"/>
      <point x="335.0" y="76.25"/>
      <point x="281" y="164" type="qcurve"/>
      <point x="272" y="164" type="line"/>
      <point x="244" y="0" type="line"/>
      <point x="182" y="0" type="line"/>
      <point x="182" y="1556" type="line"/>
      <point x="281" y="1556" type="line"/>
      <point x="281.0" y="1165.0" type="line" smooth="yes"/>
      <point x="281.0" y="1119.25"/>
      <point x="277.75" y="993.75"/>
      <point x="274" y="918" type="qcurve"/>
      <point x="281.0" y="918.0" type="line"/>
      <point x="343.25" y="1016.25"/>
      <point x="518.0" y="1108.0"/>
      <point x="641.0" y="1108.0" type="qcurve" smooth="yes"/>
      <point x="869.0" y="1108.0"/>
      <point x="1100.0" y="821.0"/>
      <point x="1100.0" y="545.0" type="qcurve" smooth="yes"/>
      <point x="1100.0" y="274.25"/>
      <point x="856.75" y="-20.0"/>
    </contour>
    <contour>
      <point x="637.0" y="68.0" type="qcurve" smooth="yes"/>
      <point x="755.5" y="68.0"/>
      <point x="914.75" y="179.58333333333331"/>
      <point x="995.0" y="393.5"/>
      <point x="995.0" y="547.0" type="qcurve" smooth="yes"/>
      <point x="995.0" y="782.5"/>
      <point x="816.75" y="1018.0"/>
      <point x="639.0" y="1018.0" type="qcurve" smooth="yes"/>
      <point x="510.99999999999994" y="1018.0"/>
      <point x="353.33333333333337" y="921.9166666666667"/>
      <point x="281.0" y="713.5"/>
      <point x="281" y="545" type="qcurve" smooth="yes"/>
      <point x="281.0" y="528.0" type="line" smooth="yes"/>
      <point x="281.0" y="364.0"/>
      <point x="357.33333333333326" y="161.33333333333331"/>
      <point x="515.0" y="68.0"/>
    </contour>
    <contour>
      <point x="610" y="0" type="move" name="bottom"/>
    </contour>
    <contour>
      <point x="610" y="1087" type="move" name="top"/>
    </contour>
  </outline>
</glyph>
<glyph name="c" format="1">
  <advance width="973"/>
  <unicode hex="0063"/>
  <outline>
    <contour>
      <point x="616" y="-20" type="qcurve" smooth="yes"/>
      <point x="382.75" y="-20"/>
      <point x="119" y="273.75"/>
      <point x="119" y="537" type="qcurve" smooth="yes"/>
      <point x="119" y="807"/>
      <point x="393.25" y="1108"/>
      <point x="631" y="1108" type="qcurve" smooth="yes"/>
      <point x="773.30303" y="1108"/>
      <point x="901" y="1059" type="qcurve"/>
      <point x="874" y="971" type="line"/>
      <point x="731.48387" y="1018"/>
      <point x="629" y="1018" type="qcurve" smooth="yes"/>
      <point x="494.10526" y="1018"/>
      <point x="401" y="960" type="qcurve" smooth="yes"/>
      <point x="223" y="848.37288"/>
      <point x="223" y="539" type="qcurve" smooth="yes"/>
      <point x="223" y="285.13793"/>
      <point x="358" y="161" type="qcurve" smooth="yes"/>
      <point x="458.25424" y="70"/>
      <point x="614" y="70" type="qcurve" smooth="yes"/>
      <point x="760.28571" y="70"/>
      <point x="889" y="123" type="qcurve"/>
      <point x="889" y="31" type="line"/>
      <point x="785.5" y="-20"/>
    </contour>
    <contour>
      <point x="487" y="0" type="move" name="bottom"/>
    </contour>
    <contour>
      <point x="545" y="3" type="move" name="cyrillichookleft"/>
    </contour>
    <contour>
      <point x="487" y="1087" type="move" name="top"/>
    </contour>
  </outline>
</glyph>
<glyph name="d" format="1">
  <advance width="1219"/>
  <unicode hex="0064"/>
  <outline>
    <contour>
      <point x="582.0" y="-20.0" type="qcurve" smooth="yes"/>
      <point x="432.0" y="-20.0"/>
      <point x="225.49999999999997" y="105.25000000000001"/>
      <point x="119.0" y="349.5"/>
      <point x="119.0" y="528.0" type="qcurve" smooth="yes"/>
      <point x="119.0" y="810.0"/>
      <point x="355.0" y="1108.0"/>
      <point x="580.0" y="1108.0" type="qcurve" smooth="yes"/>
      <point x="697.75" y="1108.0"/>
      <point x="869.75" y="1022.25"/>
      <point x="938" y="918" type="qcurve"/>
      <point x="944.0" y="918.0" type="line"/>
      <point x="941.0" y="981.0"/>
      <point x="938.0" y="1104.25"/>
      <point x="938" y="1165" type="qcurve" smooth="yes"/>
      <point x="938" y="1556" type="line"/>
      <point x="1036" y="1556" type="line"/>
      <point x="1036" y="0" type="line"/>
      <point x="971" y="0" type="line"/>
      <point x="946" y="166" type="line"/>
      <point x="938.0" y="166.0" type="line"/>
      <point x="875.75" y="73.0"/>
      <point x="698.25" y="-20.0"/>
    </contour>
    <contour>
      <point x="582.0" y="68.0" type="qcurve" smooth="yes"/>
      <point x="704.5" y="68.0"/>
      <point x="862.0833333333334" y="161.33333333333331"/>
      <point x="938.0" y="364.0"/>
      <point x="938" y="528" type="qcurve" smooth="yes"/>
      <point x="938.0" y="545.0" type="line" smooth="yes"/>
      <point x="938.0" y="713.0"/>
      <point x="864.0" y="921.4999999999999"/>
      <point x="706.0" y="1018.0"/>
      <point x="580.0" y="1018.0" type="qcurve" smooth="yes"/>
      <point x="461.5" y="1018.0"/>
      <point x="302.74999999999994" y="906.0833333333333"/>
      <point x="223.0" y="688.5"/>
      <point x="223.0" y="530.0" type="qcurve" smooth="yes"/>
      <point x="223.0" y="376.0"/>
      <point x="302.9166666666667" y="170.66666666666663"/>
      <point x="462.5" y="68.0"/>
    </contour>
    <contour>
      <point x="610" y="0" type="move" name="bottom"/>
    </contour>
    <contour>
      <point x="610" y="544" type="move" name="center"/>
    </contour>
    <contour>
      <point x="610" y="1087" type="move" name="top"/>
    </contour>
    <contour>
      <point x="1339" y="1556" type="move" name="topright"/>
    </contour>
  </outline>
</glyph>
<glyph name="e" format="1">
  <advance width="1124"/>
  <unicode hex="0065"/>
  <outline>
    <contour>
      <point x="621.0" y="-20.0" type="qcurve" smooth="yes"/>
      <point x="384.0" y="-20.0"/>
      <point x="119.0" y="271.75"/>
      <point x="119.0" y="535.0" type="qcurve" smooth="yes"/>
      <point x="119.0" y="708.5"/>
      <point x="235.08333333333331" y="966.0833333333333"/>
      <point x="447.5" y="1108.0"/>
      <point x="592.0" y="1108.0" type="qcurve" smooth="yes"/>
      <point x="784.0" y="1108.0"/>
      <point x="1006.0" y="840.25"/>
      <point x="1006" y="610" type="qcurve" smooth="yes"/>
      <point x="1006" y="530" type="line"/>
      <point x="223.0" y="530.0" type="line"/>
      <point x="225.25" y="305.75"/>
      <point x="429.75" y="70.0"/>
      <point x="621.0" y="70.0" type="qcurve" smooth="yes"/>
      <point x="683.0" y="70.0"/>
      <point x="783.6666666666665" y="80.74999999999999"/>
      <point x="891.0" y="110.5"/>
      <point x="963" y="139" type="qcurve"/>
      <point x="963.0" y="49.0" type="line"/>
      <point x="870.75" y="9.25"/>
      <point x="714.75" y="-20.0"/>
    </contour>
    <contour>
      <point x="229" y="618" type="qcurve"/>
      <point x="901.0" y="618.0" type="line"/>
      <point x="901.0" y="807.0"/>
      <point x="736.75" y="1020.0"/>
      <point x="592.0" y="1020.0" type="qcurve" smooth="yes"/>
      <point x="435.25" y="1020.0"/>
      <point x="244.75" y="813.0"/>
    </contour>
    <contour>
      <point x="562" y="0" type="move" name="bottom"/>
    </contour>
    <contour>
      <point x="1017" y="47" type="move" name="ogonek"/>
    </contour>
    <contour>
      <point x="562" y="1087" type="move" name="top"/>
    </contour>
  </outline>
</glyph>
<glyph name="f" format="1">
  <advance width="614"/>
  <unicode hex="0066"/>
  <outline>
    <contour>
      <point x="231" y="0" type="line"/>
      <point x="231" y="1001" type="line"/>
      <point x="29" y="1001" type="line"/>
      <point x="29" y="1059" type="line"/>
      <point x="231" y="1096" type="line"/>
      <point x="231" y="1180" type="line" smooth="yes"/>
      <point x="231" y="1380.25"/>
      <point x="377.75" y="1567"/>
      <point x="545" y="1567" type="qcurve" smooth="yes"/>
      <point x="635" y="1567"/>
      <point x="725" y="1540" type="qcurve"/>
      <point x="702" y="1454" type="line"/>
      <point x="624.05882" y="1479"/>
      <point x="543" y="1479" type="qcurve" smooth="yes"/>
      <point x="454.66667" y="1479"/>
      <point x="407" y="1440" type="qcurve" smooth="yes"/>
      <point x="365.75" y="1407.75"/>
      <point x="330" y="1283.25"/>
      <point x="330" y="1188" type="qcurve" smooth="yes"/>
      <point x="330" y="1087" type="line"/>
      <point x="586" y="1087" type="line"/>
      <point x="586" y="1001" type="line"/>
      <point x="330" y="1001" type="line"/>
      <point x="330" y="0" type="line"/>
    </contour>
    <contour>
      <point x="307" y="0" type="move" name="bottom"/>
    </contour>
    <contour>
      <point x="307" y="1087" type="move" name="top"/>
    </contour>
  </outline>
</glyph>
<glyph name="g" format="1">
  <advance width="1071"/>
  <unicode hex="0067"/>
  <outline>
    <contour>
      <point x="682" y="1087" type="qcurve"/>
      <point x="1030" y="1087" type="line"/>
      <point x="1030" y="1018" type="line"/>
      <point x="805" y="1004" type="line"/>
      <point x="895" y="891.5"/>
      <point x="895" y="758" type="qcurve" smooth="yes"/>
      <point x="895" y="601.25"/>
      <point x="686.25" y="406"/>
      <point x="510" y="406" type="qcurve" smooth="yes"/>
      <point x="436" y="406"/>
      <point x="406" y="412" type="qcurve"/>
      <point x="285" y="349.20253"/>
      <point x="285" y="250" type="qcurve" smooth="yes"/>
      <point x="285" y="198.25"/>
      <point x="364" y="150"/>
      <point x="457" y="150" type="qcurve" smooth="yes"/>
      <point x="647" y="150" type="line" smooth="yes"/>
      <point x="824" y="150"/>
      <point x="1012" y="7.25"/>
      <point x="1012" y="-133" type="qcurve" smooth="yes"/>
      <point x="1012" y="-304.75"/>
      <point x="733" y="-492"/>
      <point x="475" y="-492" type="qcurve" smooth="yes"/>
      <point x="270.25" y="-492"/>
      <point x="45" y="-334"/>
      <point x="45" y="-193" type="qcurve" smooth="yes"/>
      <point x="45" y="-81.25"/>
      <point x="183.75" y="67"/>
      <point x="303" y="94" type="qcurve"/>
      <point x="254.25" y="115"/>
      <point x="195" y="191.75"/>
      <point x="195" y="242" type="qcurve" smooth="yes"/>
      <point x="195" y="351.7957"/>
      <point x="334" y="434" type="qcurve"/>
      <point x="238.75" y="473"/>
      <point x="133" y="640"/>
      <point x="133" y="748" type="qcurve" smooth="yes"/>
      <point x="133" y="910.75"/>
      <point x="339.75" y="1108"/>
      <point x="516" y="1108" type="qcurve" smooth="yes"/>
      <point x="623.5" y="1108"/>
    </contour>
    <contour>
      <point x="150" y="-184" type="qcurve" smooth="yes"/>
      <point x="150" y="-408"/>
      <point x="483" y="-408" type="qcurve" smooth="yes"/>
      <point x="911" y="-408"/>
      <point x="911" y="-135" type="qcurve" smooth="yes"/>
      <point x="911" y="-36.75"/>
      <point x="777" y="51"/>
      <point x="627" y="51" type="qcurve" smooth="yes"/>
      <point x="449" y="51" type="line" smooth="yes"/>
      <point x="150" y="51"/>
    </contour>
    <contour>
      <point x="233" y="748" type="qcurve" smooth="yes"/>
      <point x="233" y="622"/>
      <point x="385.75" y="483"/>
      <point x="514" y="483" type="qcurve" smooth="yes"/>
      <point x="649.75" y="483"/>
      <point x="795" y="620.75"/>
      <point x="795" y="752" type="qcurve" smooth="yes"/>
      <point x="795" y="890.75"/>
      <point x="646.25" y="1030"/>
      <point x="512" y="1030" type="qcurve" smooth="yes"/>
      <point x="382.25" y="1030"/>
      <point x="233" y="880.75"/>
    </contour>
    <contour>
      <point x="536" y="0" type="move" name="bottom"/>
    </contour>
    <contour>
      <point x="536" y="1087" type="move" name="top"/>
    </contour>
  </outline>
</glyph>
<glyph name="h" format="1">
  <advance width="1208"/>
  <unicode hex="0068"/>
  <outline>
    <contour>
      <point x="182" y="0" type="line"/>
      <point x="182" y="1556" type="line"/>
      <point x="281" y="1556" type="line"/>
      <point x="281" y="1061" type="line" smooth="yes"/>
      <point x="281" y="1026.5"/>
      <point x="278.25" y="956.5"/>
      <point x="276" y="922" type="qcurve"/>
      <point x="283" y="922" type="line"/>
      <point x="343.75" y="1020.25"/>
      <point x="530" y="1108"/>
      <point x="668" y="1108" type="qcurve" smooth="yes"/>
      <point x="1038" y="1108"/>
      <point x="1038" y="711" type="qcurve" smooth="yes"/>
      <point x="1038" y="0" type="line"/>
      <point x="940" y="0" type="line"/>
      <point x="940" y="705" type="line" smooth="yes"/>
      <point x="940" y="869.25"/>
      <point x="801.75" y="1018"/>
      <point x="657" y="1018" type="qcurve" smooth="yes"/>
      <point x="498.90698" y="1018"/>
      <point x="411" y="955" type="qcurve" smooth="yes"/>
      <point x="281" y="861.51685"/>
      <point x="281" y="600" type="qcurve" smooth="yes"/>
      <point x="281" y="0" type="line"/>
    </contour>
    <contour>
      <point x="604" y="0" type="move" name="bottom"/>
    </contour>
    <contour>
      <point x="604" y="544" type="move" name="center"/>
    </contour>
    <contour>
      <point x="604" y="1462" type="move" name="top"/>
    </contour>
  </outline>
</glyph>
<glyph name="l" format="1">
  <advance width="463"/>
  <unicode hex="006C"/>
  <outline>
    <contour>
      <point x="281" y="1556" type="line"/>
      <point x="281" y="0" type="line"/>
      <point x="182" y="0" type="line"/>
      <point x="182" y="1556" type="line"/>
    </contour>
    <contour>
      <point x="218" y="0" type="move" name="bottom"/>
    </contour>
    <contour>
      <point x="232" y="544" type="move" name="center"/>
    </contour>
    <contour>
      <point x="382" y="1556" type="move" name="top"/>
    </contour>
    <contour>
      <point x="584" y="1556" type="move" name="topright"/>
    </contour>
  </outline>
</glyph>
<glyph name="m" format="1">
  <advance width="1808"/>
  <unicode hex="006D"/>
  <outline>
    <contour>
      <point x="182" y="0" type="line"/>
      <point x="182" y="1087" type="line"/>
      <point x="264" y="1087" type="line"/>
      <point x="285" y="938" type="line"/>
      <point x="291.0" y="938.0" type="line"/>
      <point x="336.0" y="1019.0"/>
      <point x="502.25" y="1108.0"/>
      <point x="602.0" y="1108.0" type="qcurve" smooth="yes"/>
      <point x="730.25" y="1108.0"/>
      <point x="895.25" y="1011.75"/>
      <point x="932" y="915" type="qcurve"/>
      <point x="936.0" y="915.0" type="line"/>
      <point x="989.25" y="1008.0"/>
      <point x="1168.0" y="1108.0"/>
      <point x="1282.0" y="1108.0" type="qcurve" smooth="yes"/>
      <point x="1459.75" y="1108.0"/>
      <point x="1638.0" y="918.0"/>
      <point x="1638" y="711" type="qcurve" smooth="yes"/>
      <point x="1638" y="0" type="line"/>
      <point x="1540" y="0" type="line"/>
      <point x="1540.0" y="713.0" type="line" smooth="yes"/>
      <point x="1540.0" y="872.0"/>
      <point x="1416.25" y="1018.0"/>
      <point x="1288.0" y="1018.0" type="qcurve" smooth="yes"/>
      <point x="1202.5" y="1018.0"/>
      <point x="1078.5" y="970.75"/>
      <point x="1038.0" y="922.0" type="qcurve" smooth="yes"/>
      <point x="999.0" y="875.5"/>
      <point x="961.0" y="733.75"/>
      <point x="961" y="637" type="qcurve" smooth="yes"/>
      <point x="961" y="0" type="line"/>
      <point x="860" y="0" type="line"/>
      <point x="860.0" y="743.0" type="line" smooth="yes"/>
      <point x="860.0" y="1018.0"/>
      <point x="608.0" y="1018.0" type="qcurve" smooth="yes"/>
      <point x="519.5" y="1018.0"/>
      <point x="393.75" y="966.0"/>
      <point x="354.0" y="912.0" type="qcurve" smooth="yes"/>
      <point x="281.0" y="812.72"/>
      <point x="281" y="600" type="qcurve" smooth="yes"/>
      <point x="281" y="0" type="line"/>
    </contour>
    <contour>
      <point x="904" y="0" type="move" name="bottom"/>
    </contour>
    <contour>
      <point x="904" y="1087" type="move" name="top"/>
    </contour>
  </outline>
</glyph>
<glyph name="n" format="1">
  <advance width="1208"/>
  <unicode hex="006E"/>
  <outline>
    <contour>
      <point x="182" y="0" type="line"/>
      <point x="182" y="1087" type="line"/>
      <point x="266" y="1087" type="line"/>
      <point x="285" y="938" type="line"/>
      <point x="291.0" y="938.0" type="line"/>
      <point x="397.8141592920354" y="1108.0"/>
      <point x="668.0" y="1108.0" type="qcurve" smooth="yes"/>
      <point x="1038.0" y="1108.0"/>
      <point x="1038" y="711" type="qcurve" smooth="yes"/>
      <point x="1038" y="0" type="line"/>
      <point x="940" y="0" type="line"/>
      <point x="940.0" y="705.0" type="line" smooth="yes"/>
      <point x="940.0" y="869.25"/>
      <point x="801.75" y="1018.0"/>
      <point x="657.0" y="1018.0" type="qcurve" smooth="yes"/>
      <point x="456.943661971831" y="1018.0"/>
      <point x="367.0" y="915.0" type="qcurve" smooth="yes"/>
      <point x="281.0" y="814.1724137931035"/>
      <point x="281" y="600" type="qcurve" smooth="yes"/>
      <point x="281" y="0" type="line"/>
    </contour>
    <contour>
      <point x="604" y="0" type="move" name="bottom"/>
    </contour>
    <contour>
      <point x="684" y="1087" type="move" name="top"/>
    </contour>
  </outline>
</glyph>
<glyph name="o" format="1">
  <advance width="1200"/>
  <unicode hex="006F"/>
  <outline>
    <contour>
      <point x="596.0" y="-20.0" type="qcurve" smooth="yes"/>
      <point x="442.5" y="-20.0"/>
      <point x="229.5833333333333" y="126.66666666666666"/>
      <point x="119.0" y="382.0"/>
      <point x="119.0" y="545.0" type="qcurve" smooth="yes"/>
      <point x="119.0" y="722.5"/>
      <point x="235.5" y="974.4166666666666"/>
      <point x="452.0" y="1108.0"/>
      <point x="602.0" y="1108.0" type="qcurve" smooth="yes"/>
      <point x="751.5" y="1108.0"/>
      <point x="966.0833333333333" y="971.9166666666665"/>
      <point x="1081.0" y="719.5"/>
      <point x="1081.0" y="545.0" type="qcurve" smooth="yes"/>
      <point x="1081.0" y="367.5"/>
      <point x="964.75" y="114.58333333333333"/>
      <point x="747.5" y="-20.0"/>
    </contour>
    <contour>
      <point x="600.0" y="70.0" type="qcurve" smooth="yes"/>
      <point x="782.952380952381" y="70.0"/>
      <point x="882.0" y="200.0" type="qcurve" smooth="yes"/>
      <point x="928.5" y="260.75"/>
      <point x="977.0" y="434.75"/>
      <point x="977.0" y="545.0" type="qcurve" smooth="yes"/>
      <point x="977.0" y="659.0"/>
      <point x="924.5" y="836.25"/>
      <point x="875.0" y="897.0" type="qcurve" smooth="yes"/>
      <point x="775.4430379746835" y="1018.0"/>
      <point x="598.0" y="1018.0" type="qcurve" smooth="yes"/>
      <point x="523.0" y="1018.0"/>
      <point x="400.75" y="974.75"/>
      <point x="355.0" y="932.0" type="qcurve" smooth="yes"/>
      <point x="291.25" y="872.75"/>
      <point x="223.0" y="677.0"/>
      <point x="223.0" y="545.0" type="qcurve" smooth="yes"/>
      <point x="223.0" y="428.75"/>
      <point x="278.0" y="247.5"/>
      <point x="329.0" y="186.0" type="qcurve" smooth="yes"/>
      <point x="425.1578947368421" y="70.0"/>
    </contour>
    <contour>
      <point x="600" y="0" type="move" name="bottom"/>
    </contour>
    <contour>
      <point x="600" y="544" type="move" name="center"/>
    </contour>
    <contour>
      <point x="1080" y="10" type="move" name="ogonek"/>
    </contour>
    <contour>
      <point x="600" y="1087" type="move" name="top"/>
    </contour>
    <contour>
      <point x="1180" y="1087" type="move" name="topright"/>
    </contour>
  </outline>
</glyph>
<glyph name="p" format="1">
  <advance width="1219"/>
  <unicode hex="0070"/>
  <outline>
    <contour>
      <point x="182" y="-492" type="line"/>
      <point x="182" y="1087" type="line"/>
      <point x="266" y="1087" type="line"/>
      <point x="285" y="932" type="line"/>
      <point x="291" y="932" type="line"/>
      <point x="403.82051" y="1108"/>
      <point x="649" y="1108" type="qcurve" smooth="yes"/>
      <point x="868.75" y="1108"/>
      <point x="1100" y="819"/>
      <point x="1100" y="543" type="qcurve" smooth="yes"/>
      <point x="1100" y="275.25"/>
      <point x="857" y="-20"/>
      <point x="647" y="-20" type="qcurve" smooth="yes"/>
      <point x="396.808" y="-20"/>
      <point x="281" y="168" type="qcurve"/>
      <point x="274" y="168" type="line"/>
      <point x="277.75" y="84.75"/>
      <point x="281" y="-36"/>
      <point x="281" y="-78" type="qcurve" smooth="yes"/>
      <point x="281" y="-492" type="line"/>
    </contour>
    <contour>
      <point x="645" y="68" type="qcurve" smooth="yes"/>
      <point x="812.25" y="68"/>
      <point x="995" y="316.25"/>
      <point x="995" y="539" type="qcurve" smooth="yes"/>
      <point x="995" y="1018"/>
      <point x="649" y="1018" type="qcurve" smooth="yes"/>
      <point x="459.25" y="1018"/>
      <point x="281" y="809.25"/>
      <point x="281" y="573" type="qcurve" smooth="yes"/>
      <point x="281" y="541" type="line" smooth="yes"/>
      <point x="281" y="286"/>
      <point x="452.25" y="68"/>
    </contour>
    <contour>
      <point x="610" y="0" type="move" name="bottom"/>
    </contour>
    <contour>
      <point x="610" y="1087" type="move" name="top"/>
    </contour>
  </outline>
</glyph>
<glyph name="q" format="1">
  <advance width="1219"/>
  <unicode hex="0071"/>
  <outline>
    <contour>
      <point x="938" y="-492" type="line"/>
      <point x="938" y="-78" type="line" smooth="yes"/>
      <point x="938" y="44"/>
      <point x="944" y="170" type="qcurve"/>
      <point x="938" y="170" type="line"/>
      <point x="819.81102" y="-20"/>
      <point x="569" y="-20" type="qcurve" smooth="yes"/>
      <point x="355.25" y="-20"/>
      <point x="119" y="264.25"/>
      <point x="119" y="532" type="qcurve" smooth="yes"/>
      <point x="119" y="807.25"/>
      <point x="355.25" y="1108"/>
      <point x="575" y="1108" type="qcurve" smooth="yes"/>
      <point x="811" y="1108"/>
      <point x="928" y="934" type="qcurve"/>
      <point x="934" y="934" type="line"/>
      <point x="952" y="1087" type="line"/>
      <point x="1036" y="1087" type="line"/>
      <point x="1036" y="-492" type="line"/>
    </contour>
    <contour>
      <point x="571" y="68" type="qcurve" smooth="yes"/>
      <point x="700" y="68"/>
      <point x="859" y="157.25"/>
      <point x="898" y="257" type="qcurve" smooth="yes"/>
      <point x="938" y="363.66667"/>
      <point x="938" y="543" type="qcurve" smooth="yes"/>
      <point x="938" y="555" type="line" smooth="yes"/>
      <point x="938" y="818.64706"/>
      <point x="838" y="926" type="qcurve" smooth="yes"/>
      <point x="753.30159" y="1018"/>
      <point x="582" y="1018" type="qcurve" smooth="yes"/>
      <point x="405.75" y="1018"/>
      <point x="223" y="770"/>
      <point x="223" y="530" type="qcurve" smooth="yes"/>
      <point x="223" y="301.25"/>
      <point x="402.25" y="68"/>
    </contour>
    <contour>
      <point x="610" y="0" type="move" name="bottom"/>
    </contour>
    <contour>
      <point x="610" y="1087" type="move" name="top"/>
    </contour>
  </outline>
</glyph>
<glyph name="r" format="1">
  <advance width="797"/>
  <unicode hex="0072"/>
  <outline>
    <contour>
      <point x="182" y="0" type="line"/>
      <point x="182" y="1087" type="line"/>
      <point x="266" y="1087" type="line"/>
      <point x="276" y="891" type="line"/>
      <point x="283.0" y="891.0" type="line"/>
      <point x="349.75" y="1011.0"/>
      <point x="502.0" y="1108.0"/>
      <point x="610.0" y="1108.0" type="qcurve" smooth="yes"/>
      <point x="675.5555555555555" y="1108.0"/>
      <point x="758" y="1094" type="qcurve"/>
      <point x="739.0" y="999.0" type="line"/>
      <point x="669.4545454545455" y="1016.0"/>
      <point x="598.0" y="1016.0" type="qcurve" smooth="yes"/>
      <point x="511.0" y="1016.0"/>
      <point x="373.25" y="919.25"/>
      <point x="332.0" y="836.0" type="qcurve" smooth="yes"/>
      <point x="281.0" y="734.0"/>
      <point x="281" y="600" type="qcurve" smooth="yes"/>
      <point x="281" y="0" type="line"/>
    </contour>
    <contour>
      <point x="329" y="0" type="move" name="bottom"/>
    </contour>
    <contour>
      <point x="469" y="1087" type="move" name="top"/>
    </contour>
  </outline>
</glyph>
<glyph name="s" format="1">
  <advance width="954"/>
  <unicode hex="0073"/>
  <outline>
    <contour>
      <point x="421" y="-20" type="qcurve" smooth="yes"/>
      <point x="329.5" y="-20"/>
      <point x="149.25" y="11.75"/>
      <point x="84" y="47" type="qcurve"/>
      <point x="84" y="154" type="line"/>
      <point x="246.50909" y="72"/>
      <point x="434" y="72" type="qcurve" smooth="yes"/>
      <point x="592.25" y="72"/>
      <point x="758" y="179"/>
      <point x="758" y="272" type="qcurve" smooth="yes"/>
      <point x="758" y="362.75"/>
      <point x="605" y="466.5"/>
      <point x="473" y="516" type="qcurve" smooth="yes"/>
      <point x="386.75" y="548.25"/>
      <point x="286.75" y="590.25"/>
      <point x="244" y="618" type="qcurve" smooth="yes"/>
      <point x="179.5" y="660"/>
      <point x="111" y="764.5"/>
      <point x="111" y="838" type="qcurve" smooth="yes"/>
      <point x="111" y="967"/>
      <point x="316.25" y="1108"/>
      <point x="500" y="1108" type="qcurve" smooth="yes"/>
      <point x="676.5" y="1108"/>
      <point x="834" y="1042" type="qcurve"/>
      <point x="797" y="952" type="line"/>
      <point x="634.86957" y="1018"/>
      <point x="494" y="1018" type="qcurve" smooth="yes"/>
      <point x="365.75" y="1018"/>
      <point x="211" y="929.75"/>
      <point x="211" y="845" type="qcurve" smooth="yes"/>
      <point x="211" y="809.75"/>
      <point x="240.5" y="743"/>
      <point x="272" y="716" type="qcurve" smooth="yes"/>
      <point x="309.5" y="683.75"/>
      <point x="430.75" y="631.25"/>
      <point x="508" y="602" type="qcurve" smooth="yes"/>
      <point x="634" y="554"/>
      <point x="784" y="475.25"/>
      <point x="823" y="410" type="qcurve" smooth="yes"/>
      <point x="856" y="356"/>
      <point x="856" y="281" type="qcurve" smooth="yes"/>
      <point x="856" y="136.25"/>
      <point x="634.75" y="-20"/>
    </contour>
    <contour>
      <point x="454" y="-1" type="move" name="bottom"/>
    </contour>
    <contour>
      <point x="477" y="1087" type="move" name="top"/>
    </contour>
  </outline>
</glyph>
<glyph name="t" format="1">
  <advance width="686"/>
  <unicode hex="0074"/>
  <outline>
    <contour>
      <point x="467" y="-20" type="qcurve" smooth="yes"/>
      <point x="323" y="-20"/>
      <point x="186" y="134"/>
      <point x="186" y="299" type="qcurve" smooth="yes"/>
      <point x="186" y="1001" type="line"/>
      <point x="25" y="1001" type="line"/>
      <point x="25" y="1059" type="line"/>
      <point x="186" y="1104" type="line"/>
      <point x="236" y="1350" type="line"/>
      <point x="287" y="1350" type="line"/>
      <point x="287" y="1087" type="line"/>
      <point x="606" y="1087" type="line"/>
      <point x="606" y="1001" type="line"/>
      <point x="287" y="1001" type="line"/>
      <point x="287" y="313" type="line" smooth="yes"/>
      <point x="287" y="68"/>
      <point x="469" y="68" type="qcurve" smooth="yes"/>
      <point x="564.63636" y="68"/>
      <point x="633" y="84" type="qcurve"/>
      <point x="633" y="4" type="line"/>
      <point x="561" y="-20"/>
    </contour>
    <contour>
      <point x="363" y="0" type="move" name="bottom"/>
    </contour>
    <contour>
      <point x="343" y="544" type="move" name="center"/>
    </contour>
    <contour>
      <point x="343" y="1087" type="move" name="top"/>
    </contour>
    <contour>
      <point x="678" y="1556" type="move" name="topright"/>
    </contour>
  </outline>
</glyph>
<glyph name="u" format="1">
  <advance width="1208"/>
  <unicode hex="0075"/>
  <outline>
    <contour>
      <point x="541" y="-20" type="qcurve" smooth="yes"/>
      <point x="170" y="-20"/>
      <point x="170" y="377" type="qcurve" smooth="yes"/>
      <point x="170" y="1087" type="line"/>
      <point x="268" y="1087" type="line"/>
      <point x="268" y="383" type="line" smooth="yes"/>
      <point x="268" y="218.75"/>
      <point x="406.25" y="70"/>
      <point x="551" y="70" type="qcurve" smooth="yes"/>
      <point x="743.38462" y="70"/>
      <point x="834" y="165" type="qcurve" smooth="yes"/>
      <point x="928" y="263.40625"/>
      <point x="928" y="487" type="qcurve" smooth="yes"/>
      <point x="928" y="1087" type="line"/>
      <point x="1026" y="1087" type="line"/>
      <point x="1026" y="0" type="line"/>
      <point x="942" y="0" type="line"/>
      <point x="924" y="150" type="line"/>
      <point x="918" y="150" type="line"/>
      <point x="811.18584" y="-20"/>
    </contour>
    <contour>
      <point x="604" y="0" type="move" name="bottom"/>
    </contour>
    <contour>
      <point x="927" y="10" type="move" name="ogonek"/>
    </contour>
    <contour>
      <point x="604" y="1087" type="move" name="top"/>
    </contour>
    <contour>
      <point x="1188" y="1087" type="move" name="topright"/>
    </contour>
  </outline>
</glyph>
<glyph name="w" format="1">
  <advance width="1481"/>
  <unicode hex="0077"/>
  <outline>
    <contour>
      <point x="342" y="0" type="line"/>
      <point x="31" y="1087" type="line"/>
      <point x="137" y="1087" type="line"/>
      <point x="310" y="457" type="line" smooth="yes"/>
      <point x="347.5" y="319.75"/>
      <point x="380.5" y="170"/>
      <point x="391" y="113" type="qcurve"/>
      <point x="397" y="113" type="line"/>
      <point x="430" y="245"/>
      <point x="470.25" y="387.25"/>
      <point x="483" y="424" type="qcurve" smooth="yes"/>
      <point x="707" y="1087" type="line"/>
      <point x="797" y="1087" type="line"/>
      <point x="1009" y="426" type="line" smooth="yes"/>
      <point x="1053.25" y="288.75"/>
      <point x="1089.75" y="151"/>
      <point x="1098" y="115" type="qcurve"/>
      <point x="1104" y="115" type="line"/>
      <point x="1108.5" y="145.5"/>
      <point x="1124.08333" y="222.33333"/>
      <point x="1156" y="352.5"/>
      <point x="1185" y="463" type="qcurve" smooth="yes"/>
      <point x="1350" y="1087" type="line"/>
      <point x="1450" y="1087" type="line"/>
      <point x="1155" y="0" type="line"/>
      <point x="1051" y="0" type="line"/>
      <point x="813" y="727" type="line" smooth="yes"/>
      <point x="806.25" y="748"/>
      <point x="771.25" y="875"/>
      <point x="754" y="944" type="qcurve"/>
      <point x="748" y="944" type="line"/>
      <point x="732.25" y="888.5"/>
      <point x="702.25" y="786.5"/>
      <point x="682" y="725" type="qcurve" smooth="yes"/>
      <point x="440" y="0" type="line"/>
    </contour>
    <contour>
      <point x="741" y="0" type="move" name="bottom"/>
    </contour>
    <contour>
      <point x="741" y="1087" type="move" name="top"/>
    </contour>
  </outline>
</glyph>
<glyph name="y" format="1">
  <advance width="940"/>
  <unicode hex="0079"/>
  <outline>
    <contour>
      <point x="134" y="-492" type="qcurve" smooth="yes"/>
      <point x="74.5" y="-492"/>
      <point x="4" y="-471" type="qcurve"/>
      <point x="4" y="-385" type="line"/>
      <point x="33.25" y="-393.25"/>
      <point x="96" y="-401"/>
      <point x="120" y="-401" type="qcurve" smooth="yes"/>
      <point x="180.75" y="-401"/>
      <point x="258.5" y="-353"/>
      <point x="290" y="-302" type="qcurve" smooth="yes"/>
      <point x="304.25" y="-278.75"/>
      <point x="361.25" y="-152.25"/>
      <point x="416" y="0" type="qcurve"/>
      <point x="0" y="1087" type="line"/>
      <point x="102" y="1087" type="line"/>
      <point x="332" y="477" type="line" smooth="yes"/>
      <point x="358" y="408"/>
      <point x="412.25" y="257.91667"/>
      <point x="455.5" y="131.5"/>
      <point x="465" y="98" type="qcurve"/>
      <point x="471" y="98" type="line"/>
      <point x="487.125" y="146.375"/>
      <point x="510.9375" y="216.75521"/>
      <point x="537.5625" y="291.49479"/>
      <point x="577.125" y="398.25"/>
      <point x="609" y="483" type="qcurve" smooth="yes"/>
      <point x="838" y="1087" type="line"/>
      <point x="940" y="1087" type="line"/>
      <point x="453" y="-176" type="line" smooth="yes"/>
      <point x="414" y="-277"/>
      <point x="336.83333" y="-418.16667"/>
      <point x="225" y="-492"/>
    </contour>
    <contour>
      <point x="570" y="0" type="move" name="bottom"/>
    </contour>
    <contour>
      <point x="470" y="1087" type="move" name="top"/>
    </contour>
  </outline>
</glyph>
<glyph name="braceleft" format="1">
  <advance width="723"/>
  <unicode hex="007B"/>
  <note>
braceleft
</note>
  <outline>
    <contour>
      <point x="651" y="-324" type="line"/>
      <point x="534.75" y="-324.0"/>
      <point x="384.5" y="-271.0"/>
      <point x="344.0" y="-217.0" type="qcurve" smooth="yes"/>
      <point x="291.0" y="-146.8108108108108"/>
      <point x="291" y="-18" type="qcurve" smooth="yes"/>
      <point x="291.0" y="319.0" type="line" smooth="yes"/>
      <point x="291.0" y="358.75"/>
      <point x="274.25" y="422.25"/>
      <point x="257.0" y="447.0" type="qcurve" smooth="yes"/>
      <point x="229.25" y="486.0"/>
      <point x="131.5" y="526.5"/>
      <point x="61" y="528" type="qcurve"/>
      <point x="61.0" y="608.0" type="line"/>
      <point x="140.5" y="609.5"/>
      <point x="240.25" y="651.75"/>
      <point x="265.0" y="693.0" type="qcurve" smooth="yes"/>
      <point x="291.0" y="736.3333333333334"/>
      <point x="291" y="807" type="qcurve" smooth="yes"/>
      <point x="291.0" y="1157.0" type="line" smooth="yes"/>
      <point x="291.0" y="1237.25"/>
      <point x="343.5" y="1356.5"/>
      <point x="396.0" y="1394.0" type="qcurve" smooth="yes"/>
      <point x="440.25" y="1427.0"/>
      <point x="567.75" y="1460.5"/>
      <point x="651" y="1462" type="qcurve"/>
      <point x="651.0" y="1372.0" type="line"/>
      <point x="571.2028081123245" y="1369.0982839313572"/>
      <point x="514.0" y="1349.0" type="qcurve" smooth="yes"/>
      <point x="448.75" y="1325.75"/>
      <point x="389.0" y="1230.5"/>
      <point x="389" y="1157" type="qcurve" smooth="yes"/>
      <point x="389.0" y="852.0" type="line" smooth="yes"/>
      <point x="389.0" y="722.25"/>
      <point x="301.25" y="594.0"/>
      <point x="203" y="573" type="qcurve"/>
      <point x="203.0" y="565.0" type="line"/>
      <point x="299.75" y="544.75"/>
      <point x="389.0" y="418.0"/>
      <point x="389" y="295" type="qcurve" smooth="yes"/>
      <point x="389.0" y="-27.0" type="line" smooth="yes"/>
      <point x="389.0" y="-104.25"/>
      <point x="455.75" y="-199.5"/>
      <point x="533.0" y="-219.0" type="qcurve" smooth="yes"/>
      <point x="584.8149253731343" y="-231.56119402985075"/>
      <point x="651" y="-233" type="qcurve"/>
    </contour>
  </outline>
</glyph>
<glyph name="braceright" format="1">
  <advance width="723"/>
  <unicode hex="007D"/>
  <note>
    braceright
  </note>
  <outline>
    <contour>
      <point x="72" y="-324" type="qcurve"/>
      <point x="72" y="-233" type="line"/>
      <point x="184.43008" y="-231.50093"/>
      <point x="245" y="-199" type="qcurve" smooth="yes"/>
      <point x="334" y="-151.62903"/>
      <point x="334" y="-27" type="qcurve" smooth="yes"/>
      <point x="334" y="295" type="line" smooth="yes"/>
      <point x="334" y="418"/>
      <point x="423.25" y="544.75"/>
      <point x="520" y="565" type="qcurve"/>
      <point x="520" y="573" type="line"/>
      <point x="423.25" y="593.25"/>
      <point x="334" y="720.75"/>
      <point x="334" y="852" type="qcurve" smooth="yes"/>
      <point x="334" y="1157" type="line" smooth="yes"/>
      <point x="334" y="1301.86047"/>
      <point x="210" y="1348" type="qcurve" smooth="yes"/>
      <point x="154.34366" y="1369.05915"/>
      <point x="72" y="1372" type="qcurve"/>
      <point x="72" y="1462" type="line"/>
      <point x="234" y="1462"/>
      <point x="324" y="1396" type="qcurve" smooth="yes"/>
      <point x="432" y="1318.42254"/>
      <point x="432" y="1157" type="qcurve" smooth="yes"/>
      <point x="432" y="807" type="line" smooth="yes"/>
      <point x="432" y="740.5"/>
      <point x="456" y="697" type="qcurve" smooth="yes"/>
      <point x="504.96792" y="610.93518"/>
      <point x="662" y="608" type="qcurve"/>
      <point x="662" y="528" type="line"/>
      <point x="516.01329" y="525.02068"/>
      <point x="462" y="441" type="qcurve" smooth="yes"/>
      <point x="432" y="393"/>
      <point x="432" y="319" type="qcurve" smooth="yes"/>
      <point x="432" y="-18" type="line" smooth="yes"/>
      <point x="432" y="-103.5"/>
      <point x="384.5" y="-225.5"/>
      <point x="332" y="-263" type="qcurve" smooth="yes"/>
      <point x="245.70732" y="-324"/>
    </contour>
  </outline>
</glyph>
<glyph name="asciitilde" format="1">
  <advance width="1169"/>
  <unicode hex="007E"/>
  <note>
asciitilde
</note>
  <outline>
    <contour>
      <point x="111" y="625" type="qcurve"/>
      <point x="111.0" y="719.0" type="line"/>
      <point x="165.0" y="773.75"/>
      <point x="281.75" y="829.0"/>
      <point x="344.0" y="829.0" type="qcurve" smooth="yes"/>
      <point x="384.5" y="829.0"/>
      <point x="456.5" y="818.0833333333333"/>
      <point x="546.5" y="787.5"/>
      <point x="614.0" y="758.0" type="qcurve" smooth="yes"/>
      <point x="656.0" y="738.5"/>
      <point x="732.75" y="712.7499999999999"/>
      <point x="802.5" y="700.0"/>
      <point x="834.0" y="700.0" type="qcurve" smooth="yes"/>
      <point x="890.25" y="700.0"/>
      <point x="996.75" y="761.25"/>
      <point x="1059" y="825" type="qcurve"/>
      <point x="1059.0" y="729.0" type="line"/>
      <point x="1011.0" y="680.25"/>
      <point x="897.75" y="616.0"/>
      <point x="825.0" y="616.0" type="qcurve" smooth="yes"/>
      <point x="767.25" y="616.0"/>
      <point x="632.25" y="652.0"/>
      <point x="555.0" y="688.0" type="qcurve" smooth="yes"/>
      <point x="492.75" y="716.5"/>
      <point x="382.75" y="745.0"/>
      <point x="334.0" y="745.0" type="qcurve" smooth="yes"/>
      <point x="285.25" y="745.0"/>
      <point x="167.25" y="684.25"/>
    </contour>
  </outline>
</glyph>
<glyph name="exclamdown" format="1">
  <advance width="492"/>
  <unicode hex="00A1"/>
  <note>
    exclamdown
  </note>
  <outline>
    <contour>
      <point x="186" y="-375" type="line"/>
      <point x="215" y="711" type="line"/>
      <point x="276" y="711" type="line"/>
      <point x="305" y="-375" type="line"/>
    </contour>
    <contour>
      <point x="246" y="911" type="qcurve" smooth="yes"/>
      <point x="212.25" y="911"/>
      <point x="166" y="956.75"/>
      <point x="166" y="1010" type="qcurve" smooth="yes"/>
      <point x="166" y="1108"/>
      <point x="246" y="1108" type="qcurve" smooth="yes"/>
      <point x="328" y="1108"/>
      <point x="328" y="1010" type="qcurve" smooth="yes"/>
      <point x="328" y="956.75"/>
      <point x="281.25" y="911"/>
    </contour>
  </outline>
</glyph>
<glyph name="cent" format="1">
  <advance width="1169"/>
  <unicode hex="00A2"/>
  <note>
    cent
  </note>
  <outline>
    <contour>
      <point x="602" y="-20" type="line"/>
      <point x="602" y="190" type="line"/>
      <point x="416" y="220"/>
      <point x="211" y="510.25"/>
      <point x="211" y="745" type="qcurve" smooth="yes"/>
      <point x="211" y="976.75"/>
      <point x="416" y="1276"/>
      <point x="602" y="1309" type="qcurve"/>
      <point x="602" y="1483" type="line"/>
      <point x="684" y="1483" type="line"/>
      <point x="684" y="1267" type="line"/>
      <point x="634" y="1317" type="line"/>
      <point x="698" y="1317" type="line" smooth="yes"/>
      <point x="830.2973" y="1317"/>
      <point x="973" y="1262" type="qcurve"/>
      <point x="942" y="1178" type="line"/>
      <point x="808.5" y="1229"/>
      <point x="705" y="1229" type="qcurve" smooth="yes"/>
      <point x="561.29167" y="1229"/>
      <point x="467" y="1156" type="qcurve" smooth="yes"/>
      <point x="315" y="1037.77778"/>
      <point x="315" y="748" type="qcurve" smooth="yes"/>
      <point x="315" y="464.35"/>
      <point x="470" y="345" type="qcurve" smooth="yes"/>
      <point x="560.6383" y="274"/>
      <point x="696" y="274" type="qcurve" smooth="yes"/>
      <point x="827.66667" y="274"/>
      <point x="963" y="332" type="qcurve"/>
      <point x="963" y="240" type="line"/>
      <point x="852.51351" y="184"/>
      <point x="696" y="184" type="qcurve" smooth="yes"/>
      <point x="634" y="184" type="line"/>
      <point x="684" y="234" type="line"/>
      <point x="684" y="-20" type="line"/>
    </contour>
  </outline>
</glyph>
<glyph name="sterling" format="1">
  <advance width="1169"/>
  <unicode hex="00A3"/>
  <note>
    sterling
  </note>
  <outline>
    <contour>
      <point x="78" y="0" type="line"/>
      <point x="78" y="84" type="line"/>
      <point x="227.8225" y="112.75381"/>
      <point x="284" y="261" type="qcurve" smooth="yes"/>
      <point x="311" y="328.5"/>
      <point x="311" y="418" type="qcurve" smooth="yes"/>
      <point x="311" y="676" type="line"/>
      <point x="100" y="676" type="line"/>
      <point x="100" y="758" type="line"/>
      <point x="311" y="758" type="line"/>
      <point x="311" y="1055" type="line" smooth="yes"/>
      <point x="311" y="1259"/>
      <point x="507" y="1481"/>
      <point x="690" y="1481" type="qcurve" smooth="yes"/>
      <point x="864.35556" y="1481"/>
      <point x="1020" y="1413" type="qcurve"/>
      <point x="985" y="1327" type="line"/>
      <point x="827.5" y="1393"/>
      <point x="690" y="1393" type="qcurve" smooth="yes"/>
      <point x="549" y="1393"/>
      <point x="412" y="1230.75"/>
      <point x="412" y="1059" type="qcurve" smooth="yes"/>
      <point x="412" y="758" type="line"/>
      <point x="823" y="758" type="line"/>
      <point x="823" y="676" type="line"/>
      <point x="412" y="676" type="line"/>
      <point x="412" y="420" type="line" smooth="yes"/>
      <point x="412" y="303.75"/>
      <point x="342" y="144"/>
      <point x="264" y="96" type="qcurve"/>
      <point x="1073" y="96" type="line"/>
      <point x="1073" y="0" type="line"/>
    </contour>
  </outline>
</glyph>
<glyph name="currency" format="1">
  <advance width="1169"/>
  <unicode hex="00A4"/>
  <note>
    currency
  </note>
  <outline>
    <contour>
      <point x="981" y="266" type="line"/>
      <point x="844" y="408" type="line"/>
      <point x="734.5" y="315"/>
      <point x="584" y="315" type="qcurve" smooth="yes"/>
      <point x="430.5" y="315"/>
      <point x="324" y="408" type="qcurve"/>
      <point x="186" y="266" type="line"/>
      <point x="127" y="326" type="line"/>
      <point x="266" y="467" type="line"/>
      <point x="176" y="573.5"/>
      <point x="176" y="723" type="qcurve" smooth="yes"/>
      <point x="176" y="870"/>
      <point x="266" y="981" type="qcurve"/>
      <point x="127" y="1122" type="line"/>
      <point x="186" y="1182" type="line"/>
      <point x="324" y="1040" type="line"/>
      <point x="427.5" y="1133"/>
      <point x="584" y="1133" type="qcurve" smooth="yes"/>
      <point x="739" y="1133"/>
      <point x="844" y="1040" type="qcurve"/>
      <point x="981" y="1182" type="line"/>
      <point x="1040" y="1122" type="line"/>
      <point x="901" y="981" type="line"/>
      <point x="991" y="870"/>
      <point x="991" y="723" type="qcurve" smooth="yes"/>
      <point x="991" y="572"/>
      <point x="901" y="467" type="qcurve"/>
      <point x="1040" y="326" type="line"/>
    </contour>
    <contour>
      <point x="584" y="395" type="qcurve" smooth="yes"/>
      <point x="673.5" y="395"/>
      <point x="820.08333" y="482.75"/>
      <point x="907" y="631.5"/>
      <point x="907" y="723" type="qcurve" smooth="yes"/>
      <point x="907" y="813.5"/>
      <point x="819.25" y="963.41667"/>
      <point x="672.5" y="1053"/>
      <point x="584" y="1053" type="qcurve" smooth="yes"/>
      <point x="494.5" y="1053"/>
      <point x="347.41667" y="963.41667"/>
      <point x="260" y="813.5"/>
      <point x="260" y="723" type="qcurve" smooth="yes"/>
      <point x="260" y="632.5"/>
      <point x="347" y="483.58333"/>
      <point x="494" y="395"/>
    </contour>
  </outline>
</glyph>
<glyph name="brokenbar" format="1">
  <advance width="1108"/>
  <unicode hex="00A6"/>
  <note>
    brokenbar
  </note>
  <outline>
    <contour>
      <point x="508" y="797" type="line"/>
      <point x="508" y="1561" type="line"/>
      <point x="600" y="1561" type="line"/>
      <point x="600" y="797" type="line"/>
    </contour>
    <contour>
      <point x="508" y="-506" type="line"/>
      <point x="508" y="258" type="line"/>
      <point x="600" y="258" type="line"/>
      <point x="600" y="-506" type="line"/>
    </contour>
  </outline>
</glyph>
<glyph name="section" format="1">
  <advance width="1057"/>
  <unicode hex="00A7"/>
  <note>
section
</note>
  <outline>
    <contour>
      <point x="465.0" y="-4.0" type="qcurve" smooth="yes"/>
      <point x="372.75" y="-4.0"/>
      <point x="215.25" y="26.25"/>
      <point x="129" y="63" type="qcurve"/>
      <point x="129.0" y="158.0" type="line"/>
      <point x="310.5" y="80.0"/>
      <point x="461.0" y="80.0" type="qcurve" smooth="yes"/>
      <point x="623.0" y="80.0"/>
      <point x="793.0" y="179.25"/>
      <point x="793.0" y="270.0" type="qcurve" smooth="yes"/>
      <point x="793.0" y="324.75"/>
      <point x="743.0" y="390.0"/>
      <point x="680.0" y="423.0" type="qcurve" smooth="yes"/>
      <point x="616.4208566108008" y="455.5288640595903"/>
      <point x="489.0" y="502.0" type="qcurve" smooth="yes"/>
      <point x="391.088161209068" y="537.7455919395466"/>
      <point x="330.0" y="569.0" type="qcurve" smooth="yes"/>
      <point x="212.31" y="628.5714814814814"/>
      <point x="173.0" y="697.0" type="qcurve" smooth="yes"/>
      <point x="145.0" y="744.6"/>
      <point x="145.0" y="813.0" type="qcurve" smooth="yes"/>
      <point x="145.0" y="896.25"/>
      <point x="246.25" y="1034.75"/>
      <point x="334.0" y="1073.0" type="qcurve"/>
      <point x="247.75" y="1120.25"/>
      <point x="170.0" y="1230.0"/>
      <point x="170.0" y="1311.0" type="qcurve" smooth="yes"/>
      <point x="170.0" y="1428.0"/>
      <point x="373.0" y="1561.0"/>
      <point x="547.0" y="1561.0" type="qcurve" smooth="yes"/>
      <point x="723.7441860465116" y="1561.0"/>
      <point x="883" y="1497" type="qcurve"/>
      <point x="848.0" y="1417.0" type="line"/>
      <point x="757.25" y="1450.75"/>
      <point x="622.25" y="1477.0"/>
      <point x="545.0" y="1477.0" type="qcurve" smooth="yes"/>
      <point x="410.75" y="1477.0"/>
      <point x="268.0" y="1388.0"/>
      <point x="268.0" y="1313.0" type="qcurve" smooth="yes"/>
      <point x="268.0" y="1259.0"/>
      <point x="319.0" y="1189.75"/>
      <point x="379.0" y="1159.0" type="qcurve" smooth="yes"/>
      <point x="409.0" y="1143.25"/>
      <point x="503.25" y="1106.75"/>
      <point x="567.0" y="1085.0" type="qcurve" smooth="yes"/>
      <point x="695.0" y="1042.5"/>
      <point x="841.6666666666665" y="954.75"/>
      <point x="903.0" y="850.0"/>
      <point x="903.0" y="782.0" type="qcurve" smooth="yes"/>
      <point x="903.0" y="608.5"/>
      <point x="717.0" y="508.0" type="qcurve"/>
      <point x="803.25" y="466.0"/>
      <point x="889.0" y="357.75"/>
      <point x="889.0" y="276.0" type="qcurve" smooth="yes"/>
      <point x="889.0" y="141.0"/>
      <point x="663.0" y="-4.0"/>
    </contour>
    <contour>
      <point x="633.0" y="547.0" type="qcurve"/>
      <point x="803.0" y="632.7798165137615"/>
      <point x="803.0" y="766.0" type="qcurve" smooth="yes"/>
      <point x="803.0" y="828.25"/>
      <point x="739.5" y="908.25"/>
      <point x="663.0" y="945.0" type="qcurve" smooth="yes"/>
      <point x="586.5" y="982.5"/>
      <point x="426.0" y="1032.0" type="qcurve"/>
      <point x="345.0" y="1008.75"/>
      <point x="246.0" y="897.0"/>
      <point x="246.0" y="825.0" type="qcurve" smooth="yes"/>
      <point x="246.0" y="759.75"/>
      <point x="308.75" y="682.0"/>
      <point x="383.0" y="646.0" type="qcurve" smooth="yes"/>
      <point x="453.756" y="611.344"/>
    </contour>
  </outline>
</glyph>
<glyph name="copyright" format="1">
  <advance width="1704"/>
  <unicode hex="00A9"/>
  <note>
    copyright
  </note>
  <outline>
    <contour>
      <point x="879" y="279" type="qcurve" smooth="yes"/>
      <point x="692.25" y="279"/>
      <point x="489" y="509"/>
      <point x="489" y="725" type="qcurve" smooth="yes"/>
      <point x="489" y="932.75"/>
      <point x="711" y="1182"/>
      <point x="897" y="1182" type="qcurve" smooth="yes"/>
      <point x="1017.02857" y="1182"/>
      <point x="1124" y="1130" type="qcurve"/>
      <point x="1087" y="1047" type="line"/>
      <point x="989.5" y="1092"/>
      <point x="897" y="1092" type="qcurve" smooth="yes"/>
      <point x="755.25" y="1092"/>
      <point x="594" y="903.25"/>
      <point x="594" y="733" type="qcurve" smooth="yes"/>
      <point x="594" y="547"/>
      <point x="742.75" y="369"/>
      <point x="889" y="369" type="qcurve" smooth="yes"/>
      <point x="974.31034" y="369"/>
      <point x="1087" y="412" type="qcurve"/>
      <point x="1087" y="324" type="line"/>
      <point x="985" y="279"/>
    </contour>
    <contour>
      <point x="852" y="-20" type="qcurve" smooth="yes"/>
      <point x="714" y="-20"/>
      <point x="464.16667" y="73.75"/>
      <point x="263" y="244.5"/>
      <point x="198" y="360" type="qcurve" smooth="yes"/>
      <point x="100" y="533.38462"/>
      <point x="100" y="731" type="qcurve" smooth="yes"/>
      <point x="100" y="931.25"/>
      <point x="300.25" y="1280.75"/>
      <point x="475" y="1382" type="qcurve" smooth="yes"/>
      <point x="651.37313" y="1483"/>
      <point x="852" y="1483" type="qcurve" smooth="yes"/>
      <point x="1052.25" y="1483"/>
      <point x="1401.75" y="1282.75"/>
      <point x="1503" y="1108" type="qcurve" smooth="yes"/>
      <point x="1604" y="931.62687"/>
      <point x="1604" y="731" type="qcurve" smooth="yes"/>
      <point x="1604" y="533.75"/>
      <point x="1409.75" y="188.25"/>
      <point x="1235" y="84" type="qcurve" smooth="yes"/>
      <point x="1058.65217" y="-20"/>
    </contour>
    <contour>
      <point x="852" y="72" type="qcurve" smooth="yes"/>
      <point x="1029.75" y="72"/>
      <point x="1332.75" y="248.75"/>
      <point x="1422" y="401" type="qcurve" smooth="yes"/>
      <point x="1511" y="553.35593"/>
      <point x="1511" y="731" type="qcurve" smooth="yes"/>
      <point x="1511" y="905"/>
      <point x="1340" y="1206.75"/>
      <point x="1187" y="1299" type="qcurve" smooth="yes"/>
      <point x="1031.65574" y="1391"/>
      <point x="852" y="1391" type="qcurve" smooth="yes"/>
      <point x="675.75" y="1391"/>
      <point x="371.25" y="1213.75"/>
      <point x="282" y="1060" type="qcurve" smooth="yes"/>
      <point x="193" y="904.62712"/>
      <point x="193" y="731" type="qcurve" smooth="yes"/>
      <point x="193" y="553.25"/>
      <point x="369.75" y="250.25"/>
      <point x="522" y="161" type="qcurve" smooth="yes"/>
      <point x="674.35593" y="72"/>
    </contour>
  </outline>
</glyph>
<glyph name="ordfeminine" format="1">
  <advance width="686"/>
  <unicode hex="00AA"/>
  <note>
    ordfeminine
  </note>
  <outline>
    <contour>
      <point x="284" y="801" type="qcurve" smooth="yes"/>
      <point x="190.25" y="801"/>
      <point x="78" y="899.25"/>
      <point x="78" y="987" type="qcurve" smooth="yes"/>
      <point x="78" y="1089.75"/>
      <point x="242.25" y="1193.25"/>
      <point x="399" y="1200" type="qcurve" smooth="yes"/>
      <point x="494" y="1204" type="line"/>
      <point x="494" y="1247" type="line" smooth="yes"/>
      <point x="494" y="1399"/>
      <point x="347" y="1399" type="qcurve" smooth="yes"/>
      <point x="262.39394" y="1399"/>
      <point x="154" y="1350" type="qcurve"/>
      <point x="121" y="1423" type="line"/>
      <point x="239.05405" y="1479"/>
      <point x="353" y="1479" type="qcurve" smooth="yes"/>
      <point x="580" y="1479"/>
      <point x="580" y="1264" type="qcurve" smooth="yes"/>
      <point x="580" y="813" type="line"/>
      <point x="512" y="813" type="line"/>
      <point x="488" y="885" type="line"/>
      <point x="486" y="885" type="line"/>
      <point x="403.5" y="801"/>
    </contour>
    <contour>
      <point x="305" y="877" type="qcurve" smooth="yes"/>
      <point x="388.25" y="877"/>
      <point x="494" y="976.75"/>
      <point x="494" y="1069" type="qcurve" smooth="yes"/>
      <point x="494" y="1133" type="line"/>
      <point x="406" y="1128" type="line" smooth="yes"/>
      <point x="286" y="1121.25"/>
      <point x="168" y="1060.25"/>
      <point x="168" y="992" type="qcurve" smooth="yes"/>
      <point x="168" y="938.75"/>
      <point x="238.25" y="877"/>
    </contour>
  </outline>
</glyph>
<glyph name="registered" format="1">
  <advance width="1704"/>
  <unicode hex="00AE"/>
  <note>
registered
</note>
  <outline>
    <contour>
      <point x="852.0" y="-20.0" type="qcurve" smooth="yes"/>
      <point x="714.0" y="-20.0"/>
      <point x="464.16666666666663" y="73.75"/>
      <point x="263.0" y="244.5"/>
      <point x="198.0" y="360.0" type="qcurve" smooth="yes"/>
      <point x="100.0" y="533.3846153846154"/>
      <point x="100.0" y="731.0" type="qcurve" smooth="yes"/>
      <point x="100.0" y="931.25"/>
      <point x="300.25" y="1280.75"/>
      <point x="475.0" y="1382.0" type="qcurve" smooth="yes"/>
      <point x="651.3731343283582" y="1483.0"/>
      <point x="852.0" y="1483.0" type="qcurve" smooth="yes"/>
      <point x="1052.25" y="1483.0"/>
      <point x="1401.75" y="1282.75"/>
      <point x="1503.0" y="1108.0" type="qcurve" smooth="yes"/>
      <point x="1604.0" y="931.6268656716418"/>
      <point x="1604.0" y="731.0" type="qcurve" smooth="yes"/>
      <point x="1604.0" y="533.75"/>
      <point x="1409.75" y="188.25"/>
      <point x="1235.0" y="84.0" type="qcurve" smooth="yes"/>
      <point x="1058.6521739130435" y="-20.0"/>
    </contour>
    <contour>
      <point x="852.0" y="72.0" type="qcurve" smooth="yes"/>
      <point x="1029.75" y="72.0"/>
      <point x="1332.75" y="248.75"/>
      <point x="1422.0" y="401.0" type="qcurve" smooth="yes"/>
      <point x="1511.0" y="553.3559322033898"/>
      <point x="1511.0" y="731.0" type="qcurve" smooth="yes"/>
      <point x="1511.0" y="905.0"/>
      <point x="1340.0" y="1206.75"/>
      <point x="1187.0" y="1299.0" type="qcurve" smooth="yes"/>
      <point x="1031.655737704918" y="1391.0"/>
      <point x="852.0" y="1391.0" type="qcurve" smooth="yes"/>
      <point x="675.75" y="1391.0"/>
      <point x="371.25" y="1213.75"/>
      <point x="282.0" y="1060.0" type="qcurve" smooth="yes"/>
      <point x="193.0" y="904.6271186440678"/>
      <point x="193.0" y="731.0" type="qcurve" smooth="yes"/>
      <point x="193.0" y="553.25"/>
      <point x="369.75" y="250.25"/>
      <point x="522.0" y="161.0" type="qcurve" smooth="yes"/>
      <point x="674.3559322033898" y="72.0"/>
    </contour>
    <contour>
      <point x="608" y="291" type="line"/>
      <point x="608" y="1171" type="line"/>
      <point x="819.0" y="1171.0" type="line" smooth="yes"/>
      <point x="962.25" y="1171.0"/>
      <point x="1120.0" y="1047.0"/>
      <point x="1120.0" y="918.0" type="qcurve" smooth="yes"/>
      <point x="1120.0" y="753.84375"/>
      <point x="971" y="684" type="qcurve"/>
      <point x="1208" y="291" type="line"/>
      <point x="1087" y="291" type="line"/>
      <point x="877" y="651" type="line"/>
      <point x="709" y="651" type="line"/>
      <point x="709" y="291" type="line"/>
    </contour>
    <contour>
      <point x="709" y="731" type="line"/>
      <point x="821.0" y="731.0" type="line" smooth="yes"/>
      <point x="911.75" y="731.0"/>
      <point x="1016.0" y="823.75"/>
      <point x="1016.0" y="913.0" type="qcurve" smooth="yes"/>
      <point x="1016.0" y="1085.0"/>
      <point x="819" y="1085" type="qcurve" smooth="yes"/>
      <point x="709" y="1085" type="line"/>
    </contour>
  </outline>
</glyph>
<glyph name="degree" format="1">
  <advance width="877"/>
  <unicode hex="00B0"/>
  <note>
    degree
  </note>
  <outline>
    <contour>
      <point x="438" y="885" type="qcurve" smooth="yes"/>
      <point x="308.25" y="885"/>
      <point x="139" y="1051.25"/>
      <point x="139" y="1184" type="qcurve" smooth="yes"/>
      <point x="139" y="1272"/>
      <point x="218.5" y="1406.83333"/>
      <point x="354" y="1483"/>
      <point x="438" y="1483" type="qcurve" smooth="yes"/>
      <point x="522" y="1483"/>
      <point x="657.5" y="1406.83333"/>
      <point x="737" y="1272"/>
      <point x="737" y="1184" type="qcurve" smooth="yes"/>
      <point x="737" y="1096"/>
      <point x="657.5" y="961.16667"/>
      <point x="522" y="885"/>
    </contour>
    <contour>
      <point x="438" y="967" type="qcurve" smooth="yes"/>
      <point x="524.25" y="967"/>
      <point x="647" y="1091"/>
      <point x="647" y="1184" type="qcurve" smooth="yes"/>
      <point x="647" y="1276.25"/>
      <point x="527.25" y="1401"/>
      <point x="438" y="1401" type="qcurve" smooth="yes"/>
      <point x="348" y="1401"/>
      <point x="229" y="1273.25"/>
      <point x="229" y="1184" type="qcurve" smooth="yes"/>
      <point x="229" y="1093.25"/>
      <point x="351" y="967"/>
    </contour>
  </outline>
</glyph>
<glyph name="twosuperior" format="1">
  <advance width="688"/>
  <unicode hex="00B2"/>
  <note>
twosuperior
</note>
  <outline>
    <contour>
      <point x="53" y="586" type="line"/>
      <point x="53" y="664" type="line"/>
      <point x="295.0" y="901.0" type="line" smooth="yes"/>
      <point x="366.25" y="970.0"/>
      <point x="456.0" y="1072.5"/>
      <point x="480.0" y="1116.0" type="qcurve" smooth="yes"/>
      <point x="498.0" y="1148.25"/>
      <point x="514.0" y="1210.0"/>
      <point x="514.0" y="1243.0" type="qcurve" smooth="yes"/>
      <point x="514.0" y="1314.25"/>
      <point x="421.25" y="1397.0"/>
      <point x="344.0" y="1397.0" type="qcurve" smooth="yes"/>
      <point x="235.83636363636364" y="1397.0"/>
      <point x="127" y="1315" type="qcurve"/>
      <point x="78.0" y="1380.0" type="line"/>
      <point x="137.25" y="1431.75"/>
      <point x="272.25" y="1483.0"/>
      <point x="348.0" y="1483.0" type="qcurve" smooth="yes"/>
      <point x="471.75" y="1483.0"/>
      <point x="612.0" y="1356.0"/>
      <point x="612.0" y="1245.0" type="qcurve" smooth="yes"/>
      <point x="612.0" y="1197.75"/>
      <point x="586.0" y="1114.5"/>
      <point x="559.0" y="1071.0" type="qcurve" smooth="yes"/>
      <point x="545.5" y="1049.25"/>
      <point x="511.25" y="1004.25"/>
      <point x="491.0" y="981.0" type="qcurve" smooth="yes"/>
      <point x="470.0" y="957.75"/>
      <point x="315.5" y="803.75"/>
      <point x="182" y="674" type="qcurve"/>
      <point x="629" y="674" type="line"/>
      <point x="629" y="586" type="line"/>
    </contour>
  </outline>
</glyph>
<glyph name="threesuperior" format="1">
  <advance width="688"/>
  <unicode hex="00B3"/>
  <note>
threesuperior
</note>
  <outline>
    <contour>
      <point x="305.0" y="569.0" type="qcurve" smooth="yes"/>
      <point x="161.0" y="569.0"/>
      <point x="41" y="629" type="qcurve"/>
      <point x="41.0" y="717.0" type="line"/>
      <point x="178.609756097561" y="655.0"/>
      <point x="307.0" y="655.0" type="qcurve" smooth="yes"/>
      <point x="421.75" y="655.0"/>
      <point x="541.0" y="753.0"/>
      <point x="541.0" y="840.0" type="qcurve" smooth="yes"/>
      <point x="541.0" y="1001.0"/>
      <point x="303" y="1001" type="qcurve" smooth="yes"/>
      <point x="172" y="1001" type="line"/>
      <point x="172" y="1085" type="line"/>
      <point x="307.0" y="1085.0" type="line" smooth="yes"/>
      <point x="412.0" y="1085.0"/>
      <point x="518.0" y="1171.75"/>
      <point x="518.0" y="1249.0" type="qcurve" smooth="yes"/>
      <point x="518.0" y="1315.75"/>
      <point x="424.25" y="1397.0"/>
      <point x="344.0" y="1397.0" type="qcurve" smooth="yes"/>
      <point x="216.5" y="1397.0"/>
      <point x="98" y="1319" type="qcurve"/>
      <point x="51.0" y="1389.0" type="line"/>
      <point x="180.8095238095238" y="1483.0"/>
      <point x="344.0" y="1483.0" type="qcurve" smooth="yes"/>
      <point x="470.75" y="1483.0"/>
      <point x="616.0" y="1362.75"/>
      <point x="616.0" y="1260.0" type="qcurve" smooth="yes"/>
      <point x="616.0" y="1182.0"/>
      <point x="527.75" y="1075.0"/>
      <point x="455" y="1054" type="qcurve"/>
      <point x="455.0" y="1052.0" type="line"/>
      <point x="641.0" y="1008.5"/>
      <point x="641.0" y="842.0" type="qcurve" smooth="yes"/>
      <point x="641.0" y="712.25"/>
      <point x="464.0" y="569.0"/>
    </contour>
  </outline>
</glyph>
<glyph name="micro" format="1">
  <advance width="1221"/>
  <unicode hex="00B5"/>
  <note>
mu
</note>
  <outline>
    <contour>
      <point x="182" y="-492" type="line"/>
      <point x="182" y="1087" type="line"/>
      <point x="281" y="1087" type="line"/>
      <point x="281.0" y="383.0" type="line" smooth="yes"/>
      <point x="281.0" y="218.75"/>
      <point x="419.0" y="70.0"/>
      <point x="563.0" y="70.0" type="qcurve" smooth="yes"/>
      <point x="711.6052631578948" y="70.0"/>
      <point x="797.0" y="125.0" type="qcurve" smooth="yes"/>
      <point x="940.0" y="214.9278350515464"/>
      <point x="940" y="487" type="qcurve" smooth="yes"/>
      <point x="940" y="1087" type="line"/>
      <point x="1038" y="1087" type="line"/>
      <point x="1038" y="0" type="line"/>
      <point x="954" y="0" type="line"/>
      <point x="936" y="150" type="line"/>
      <point x="930.0" y="150.0" type="line"/>
      <point x="879.75" y="72.75"/>
      <point x="680.0" y="-20.0"/>
      <point x="563.0" y="-20.0" type="qcurve" smooth="yes"/>
      <point x="464.0" y="-20.0"/>
      <point x="326.75" y="35.0"/>
      <point x="275" y="92" type="qcurve"/>
      <point x="277.0" y="92.0" type="line"/>
      <point x="278.5" y="46.25"/>
      <point x="281.0" y="-39.0"/>
      <point x="281" y="-78" type="qcurve" smooth="yes"/>
      <point x="281" y="-492" type="line"/>
    </contour>
  </outline>
</glyph>
<glyph name="paragraph" format="1">
  <advance width="1341"/>
  <unicode hex="00B6"/>
  <note>
paragraph
</note>
  <outline>
    <contour>
      <point x="678" y="-260" type="line"/>
      <point x="678.0" y="559.0" type="line"/>
      <point x="613.5" y="541.0"/>
      <point x="532.0" y="541.0" type="qcurve" smooth="yes"/>
      <point x="316.0" y="541.0"/>
      <point x="113.0" y="790.75"/>
      <point x="113.0" y="1042.0" type="qcurve" smooth="yes"/>
      <point x="113.0" y="1302.25"/>
      <point x="331.25" y="1556.0"/>
      <point x="563" y="1556" type="qcurve" smooth="yes"/>
      <point x="1106" y="1556" type="line"/>
      <point x="1106" y="-260" type="line"/>
      <point x="1006" y="-260" type="line"/>
      <point x="1006" y="1462" type="line"/>
      <point x="778" y="1462" type="line"/>
      <point x="778" y="-260" type="line"/>
    </contour>
  </outline>
</glyph>
<glyph name="periodcentered" format="1">
  <advance width="487"/>
  <unicode hex="00B7"/>
  <note>
    periodcentered
  </note>
  <outline>
    <contour>
      <point x="242" y="623" type="qcurve" smooth="yes"/>
      <point x="162" y="623"/>
      <point x="162" y="721" type="qcurve" smooth="yes"/>
      <point x="162" y="819"/>
      <point x="242" y="819" type="qcurve" smooth="yes"/>
      <point x="324" y="819"/>
      <point x="324" y="721" type="qcurve" smooth="yes"/>
      <point x="324" y="623"/>
    </contour>
  </outline>
</glyph>
<glyph name="onesuperior" format="1">
  <advance width="688"/>
  <unicode hex="00B9"/>
  <note>
onesuperior
</note>
  <outline>
    <contour>
      <point x="344" y="586" type="line"/>
      <point x="344.0" y="1133.0" type="line" smooth="yes"/>
      <point x="344.0" y="1166.0"/>
      <point x="346.66666666666663" y="1239.9166666666665"/>
      <point x="352.0" y="1321.5"/>
      <point x="356.0" y="1366.0" type="qcurve"/>
      <point x="350.75" y="1361.5"/>
      <point x="325.25" y="1343.75"/>
      <point x="305.0" y="1331.0" type="qcurve" smooth="yes"/>
      <point x="275.0" y="1312.25"/>
      <point x="184.5" y="1257.0"/>
      <point x="123" y="1221" type="qcurve"/>
      <point x="76" y="1298" type="line"/>
      <point x="350" y="1462" type="line"/>
      <point x="442" y="1462" type="line"/>
      <point x="442" y="586" type="line"/>
    </contour>
  </outline>
</glyph>
<glyph name="ordmasculine" format="1">
  <advance width="739"/>
  <unicode hex="00BA"/>
  <note>
    ordmasculine
  </note>
  <outline>
    <contour>
      <point x="670" y="1141" type="qcurve" smooth="yes"/>
      <point x="670" y="979.75"/>
      <point x="510.25" y="801"/>
      <point x="367" y="801" type="qcurve" smooth="yes"/>
      <point x="223.75" y="801"/>
      <point x="70" y="973"/>
      <point x="70" y="1141" type="qcurve" smooth="yes"/>
      <point x="70" y="1303"/>
      <point x="226.25" y="1479"/>
      <point x="371" y="1479" type="qcurve" smooth="yes"/>
      <point x="512.75" y="1479"/>
      <point x="670" y="1305.25"/>
    </contour>
    <contour>
      <point x="160" y="1141" type="qcurve" smooth="yes"/>
      <point x="160" y="877"/>
      <point x="369" y="877" type="qcurve" smooth="yes"/>
      <point x="578" y="877"/>
      <point x="578" y="1141" type="qcurve" smooth="yes"/>
      <point x="578" y="1272.25"/>
      <point x="477.75" y="1399"/>
      <point x="369" y="1399" type="qcurve" smooth="yes"/>
      <point x="260.25" y="1399"/>
      <point x="160" y="1272.25"/>
    </contour>
  </outline>
</glyph>
<glyph name="AE" format="1">
  <advance width="1653"/>
  <unicode hex="00C6"/>
  <note>
AE
</note>
  <outline>
    <contour>
      <point x="1528" y="94" type="line"/>
      <point x="1528" y="0" type="line"/>
      <point x="811" y="0" type="line"/>
      <point x="811" y="516" type="line"/>
      <point x="336" y="516" type="line"/>
      <point x="109" y="0" type="line"/>
      <point x="-2" y="0" type="line"/>
      <point x="651" y="1462" type="line"/>
      <point x="1528" y="1462" type="line"/>
      <point x="1528" y="1368" type="line"/>
      <point x="913" y="1368" type="line"/>
      <point x="913" y="815" type="line"/>
      <point x="1489" y="815" type="line"/>
      <point x="1489" y="721" type="line"/>
      <point x="913" y="721" type="line"/>
      <point x="913" y="94" type="line"/>
    </contour>
    <contour>
      <point x="811" y="1368" type="line"/>
      <point x="711" y="1368" type="line"/>
      <point x="377" y="608" type="line"/>
      <point x="811" y="608" type="line"/>
    </contour>
    <contour>
      <point x="827" y="0" type="move" name="bottom"/>
    </contour>
    <contour>
      <point x="977" y="1462" type="move" name="top"/>
    </contour>
  </outline>
</glyph>
<glyph name="Eth" format="1">
  <advance width="1466"/>
  <unicode hex="00D0"/>
  <note>
Eth
</note>
  <outline>
    <contour>
      <point x="207" y="0" type="line"/>
      <point x="207" y="678" type="line"/>
      <point x="47" y="678" type="line"/>
      <point x="47" y="772" type="line"/>
      <point x="207" y="772" type="line"/>
      <point x="207" y="1462" type="line"/>
      <point x="602.0" y="1462.0" type="line" smooth="yes"/>
      <point x="952.25" y="1462.0"/>
      <point x="1317.0" y="1096.0"/>
      <point x="1317.0" y="745.0" type="qcurve" smooth="yes"/>
      <point x="1317.0" y="376.75"/>
      <point x="931.25" y="0.0"/>
      <point x="557" y="0" type="qcurve" smooth="yes"/>
    </contour>
    <contour>
      <point x="309" y="90" type="line"/>
      <point x="551.0" y="90.0" type="line" smooth="yes"/>
      <point x="1206.0" y="90.0"/>
      <point x="1206.0" y="741.0" type="qcurve" smooth="yes"/>
      <point x="1206.0" y="1055.25"/>
      <point x="887.0" y="1372.0"/>
      <point x="578" y="1372" type="qcurve" smooth="yes"/>
      <point x="309" y="1372" type="line"/>
      <point x="309" y="772" type="line"/>
      <point x="715" y="772" type="line"/>
      <point x="715" y="678" type="line"/>
      <point x="309" y="678" type="line"/>
    </contour>
  </outline>
</glyph>
<glyph name="Oslash" format="1">
  <advance width="1565"/>
  <unicode hex="00D8"/>
  <note>
    Oslash
  </note>
  <outline>
    <contour>
      <point x="301" y="-20" type="line"/>
      <point x="227" y="39" type="line"/>
      <point x="317" y="166" type="line"/>
      <point x="129" y="366.032"/>
      <point x="129" y="735" type="qcurve" smooth="yes"/>
      <point x="129" y="967.5"/>
      <point x="287.75" y="1303.75"/>
      <point x="581.5" y="1485"/>
      <point x="784" y="1485" type="qcurve" smooth="yes"/>
      <point x="1016.16049" y="1485"/>
      <point x="1176" y="1364" type="qcurve"/>
      <point x="1284" y="1516" type="line"/>
      <point x="1356" y="1456" type="line"/>
      <point x="1245" y="1303" type="line"/>
      <point x="1436" y="1095.45669"/>
      <point x="1436" y="733" type="qcurve" smooth="yes"/>
      <point x="1436" y="501"/>
      <point x="1279" y="163.16667"/>
      <point x="986" y="-20"/>
      <point x="782" y="-20" type="qcurve" smooth="yes"/>
      <point x="546" y="-20"/>
      <point x="387" y="100" type="qcurve"/>
    </contour>
    <contour>
      <point x="379" y="250" type="qcurve"/>
      <point x="1118" y="1284" type="line"/>
      <point x="984.5" y="1386"/>
      <point x="784" y="1386" type="qcurve" smooth="yes"/>
      <point x="523" y="1386"/>
      <point x="240" y="1045.75"/>
      <point x="240" y="733" type="qcurve" smooth="yes"/>
      <point x="240" y="420.3871"/>
    </contour>
    <contour>
      <point x="782" y="76" type="qcurve" smooth="yes"/>
      <point x="1046" y="76"/>
      <point x="1325" y="415.75"/>
      <point x="1325" y="733" type="qcurve" smooth="yes"/>
      <point x="1325" y="1048.6129"/>
      <point x="1186" y="1219" type="qcurve"/>
      <point x="444" y="182" type="line"/>
      <point x="576.87324" y="76"/>
    </contour>
    <contour>
      <point x="783" y="0" type="move" name="bottom"/>
    </contour>
    <contour>
      <point x="783" y="1462" type="move" name="top"/>
    </contour>
  </outline>
</glyph>
<glyph name="Thorn" format="1">
  <advance width="1198"/>
  <unicode hex="00DE"/>
  <note>
    Thorn
  </note>
  <outline>
    <contour>
      <point x="207" y="0" type="line"/>
      <point x="207" y="1462" type="line"/>
      <point x="309" y="1462" type="line"/>
      <point x="309" y="1198" type="line"/>
      <point x="565" y="1198" type="line" smooth="yes"/>
      <point x="1087" y="1198"/>
      <point x="1087" y="778" type="qcurve" smooth="yes"/>
      <point x="1087" y="565.75"/>
      <point x="799" y="340"/>
      <point x="535" y="340" type="qcurve" smooth="yes"/>
      <point x="309" y="340" type="line"/>
      <point x="309" y="0" type="line"/>
    </contour>
    <contour>
      <point x="309" y="428" type="line"/>
      <point x="510" y="428" type="line" smooth="yes"/>
      <point x="756.75" y="428"/>
      <point x="977" y="591"/>
      <point x="977" y="774" type="qcurve" smooth="yes"/>
      <point x="977" y="942.75"/>
      <point x="769.25" y="1106"/>
      <point x="551" y="1106" type="qcurve" smooth="yes"/>
      <point x="309" y="1106" type="line"/>
    </contour>
    <contour>
      <point x="599" y="0" type="move" name="bottom"/>
    </contour>
    <contour>
      <point x="599" y="1462" type="move" name="top"/>
    </contour>
  </outline>
</glyph>
<glyph name="germandbls" format="1">
  <advance width="1194"/>
  <unicode hex="00DF"/>
  <note>
    germandbls
  </note>
  <outline>
    <contour>
      <point x="747" y="-20" type="qcurve" smooth="yes"/>
      <point x="669.75" y="-20"/>
      <point x="505.75" y="15.5"/>
      <point x="457" y="47" type="qcurve"/>
      <point x="457" y="154" type="line"/>
      <point x="523" y="115.75"/>
      <point x="687.25" y="68"/>
      <point x="763" y="68" type="qcurve" smooth="yes"/>
      <point x="873.25" y="68"/>
      <point x="993" y="178.25"/>
      <point x="993" y="287" type="qcurve" smooth="yes"/>
      <point x="993" y="355.5"/>
      <point x="946.08333" y="447.91667"/>
      <point x="861.5" y="522"/>
      <point x="805" y="563" type="qcurve" smooth="yes"/>
      <point x="730" y="617"/>
      <point x="631" y="699.41667"/>
      <point x="582" y="787.5"/>
      <point x="582" y="850" type="qcurve" smooth="yes"/>
      <point x="582" y="924.25"/>
      <point x="650.5" y="1015.5"/>
      <point x="721" y="1074" type="qcurve" smooth="yes"/>
      <point x="779.5" y="1122"/>
      <point x="860" y="1213.25"/>
      <point x="860" y="1286" type="qcurve" smooth="yes"/>
      <point x="860" y="1379"/>
      <point x="718.75" y="1479"/>
      <point x="592" y="1479" type="qcurve" smooth="yes"/>
      <point x="442.75" y="1479"/>
      <point x="281" y="1340.75"/>
      <point x="281" y="1214" type="qcurve" smooth="yes"/>
      <point x="281" y="0" type="line"/>
      <point x="182" y="0" type="line"/>
      <point x="182" y="1206" type="line" smooth="yes"/>
      <point x="182" y="1379.25"/>
      <point x="387.75" y="1567"/>
      <point x="588" y="1567" type="qcurve" smooth="yes"/>
      <point x="762.75" y="1567"/>
      <point x="961" y="1423.25"/>
      <point x="961" y="1289" type="qcurve" smooth="yes"/>
      <point x="961" y="1211"/>
      <point x="891" y="1090.25"/>
      <point x="822" y="1034" type="qcurve" smooth="yes"/>
      <point x="781.5" y="1001"/>
      <point x="729.25" y="955.75"/>
      <point x="712" y="934" type="qcurve" smooth="yes"/>
      <point x="697" y="915.25"/>
      <point x="682" y="878.25"/>
      <point x="682" y="852" type="qcurve" smooth="yes"/>
      <point x="682" y="811.5"/>
      <point x="715.75" y="761.5"/>
      <point x="748" y="733" type="qcurve" smooth="yes"/>
      <point x="785.5" y="700"/>
      <point x="850" y="655" type="qcurve" smooth="yes"/>
      <point x="954.25" y="580.75"/>
      <point x="1048.25" y="481.25"/>
      <point x="1070" y="428" type="qcurve" smooth="yes"/>
      <point x="1092" y="375.2"/>
      <point x="1092" y="303" type="qcurve" smooth="yes"/>
      <point x="1092" y="150"/>
      <point x="916.5" y="-20"/>
    </contour>
    <contour>
      <point x="597" y="0" type="move" name="bottom"/>
    </contour>
    <contour>
      <point x="597" y="1087" type="move" name="top"/>
    </contour>
  </outline>
</glyph>
<glyph name="ae" format="1">
  <advance width="1731"/>
  <unicode hex="00E6"/>
  <note>
ae
</note>
  <outline>
    <contour>
      <point x="438.0" y="-20.0" type="qcurve" smooth="yes"/>
      <point x="272.25" y="-20.0"/>
      <point x="98.0" y="142.75"/>
      <point x="98.0" y="280.0" type="qcurve" smooth="yes"/>
      <point x="98.0" y="444.25"/>
      <point x="350.25" y="621.5"/>
      <point x="600" y="629" type="qcurve" smooth="yes"/>
      <point x="801" y="635" type="line"/>
      <point x="801.0" y="707.0" type="line" smooth="yes"/>
      <point x="801.0" y="863.0"/>
      <point x="677.75" y="1020.0"/>
      <point x="539.0" y="1020.0" type="qcurve" smooth="yes"/>
      <point x="467.0" y="1020.0"/>
      <point x="314.75" y="978.0"/>
      <point x="236" y="936" type="qcurve"/>
      <point x="199.0" y="1022.0" type="line"/>
      <point x="285.25" y="1064.0"/>
      <point x="459.0" y="1106.0"/>
      <point x="543.0" y="1106.0" type="qcurve" smooth="yes"/>
      <point x="675.75" y="1106.0"/>
      <point x="837.75" y="1000.75"/>
      <point x="870.0" y="895.0" type="qcurve"/>
      <point x="924.0" y="999.25"/>
      <point x="1097.75" y="1108.0"/>
      <point x="1214.0" y="1108.0" type="qcurve" smooth="yes"/>
      <point x="1401.5" y="1108.0"/>
      <point x="1612.0" y="838.75"/>
      <point x="1612" y="610" type="qcurve" smooth="yes"/>
      <point x="1612" y="530" type="line"/>
      <point x="897.0" y="530.0" type="line"/>
      <point x="897.0" y="287.75"/>
      <point x="1077.5" y="70.0"/>
      <point x="1271.0" y="70.0" type="qcurve" smooth="yes"/>
      <point x="1339.25" y="70.0"/>
      <point x="1476.0" y="100.0"/>
      <point x="1569" y="139" type="qcurve"/>
      <point x="1569.0" y="49.0" type="line"/>
      <point x="1478.25" y="7.75"/>
      <point x="1327.25" y="-20.0"/>
      <point x="1259.0" y="-20.0" type="qcurve" smooth="yes"/>
      <point x="1105.25" y="-20.0"/>
      <point x="903.0" y="96.5"/>
      <point x="846.0" y="236.0" type="qcurve"/>
      <point x="801.5" y="147.5"/>
      <point x="680.75" y="34.25"/>
      <point x="529.0" y="-20.0"/>
    </contour>
    <contour>
      <point x="443.0" y="70.0" type="qcurve" smooth="yes"/>
      <point x="602.0" y="70.0"/>
      <point x="797.0" y="269.0"/>
      <point x="797" y="446" type="qcurve" smooth="yes"/>
      <point x="797" y="553" type="line"/>
      <point x="610.0" y="545.0" type="line" smooth="yes"/>
      <point x="391.0" y="535.25"/>
      <point x="203.0" y="410.75"/>
      <point x="203.0" y="287.0" type="qcurve" smooth="yes"/>
      <point x="203.0" y="183.5"/>
      <point x="323.0" y="70.0"/>
    </contour>
    <contour>
      <point x="903" y="618" type="qcurve"/>
      <point x="1507.0" y="618.0" type="line"/>
      <point x="1507.0" y="806.25"/>
      <point x="1352.75" y="1020.0"/>
      <point x="1211.0" y="1020.0" type="qcurve" smooth="yes"/>
      <point x="1076.0" y="1020.0"/>
      <point x="917.25" y="817.5"/>
    </contour>
    <contour>
      <point x="866" y="0" type="move" name="bottom"/>
    </contour>
    <contour>
      <point x="866" y="1087" type="move" name="top"/>
    </contour>
  </outline>
</glyph>
<glyph name="eth" format="1">
  <advance width="1174"/>
  <unicode hex="00F0"/>
  <note>
    eth
  </note>
  <outline>
    <contour>
      <point x="582" y="-20" type="qcurve" smooth="yes"/>
      <point x="368.25" y="-20"/>
      <point x="117" y="240"/>
      <point x="117" y="471" type="qcurve" smooth="yes"/>
      <point x="117" y="699"/>
      <point x="370" y="958"/>
      <point x="586" y="958" type="qcurve" smooth="yes"/>
      <point x="694" y="958"/>
      <point x="853" y="892"/>
      <point x="922" y="829" type="qcurve"/>
      <point x="926" y="831" type="line"/>
      <point x="861.21843" y="1102.17867"/>
      <point x="657" y="1290" type="qcurve"/>
      <point x="387" y="1133" type="line"/>
      <point x="338" y="1210" type="line"/>
      <point x="582" y="1356" type="line"/>
      <point x="496.53135" y="1417.47745"/>
      <point x="383" y="1475" type="qcurve"/>
      <point x="428" y="1556" type="line"/>
      <point x="578.01775" y="1485.58351"/>
      <point x="676" y="1411" type="qcurve"/>
      <point x="901" y="1548" type="line"/>
      <point x="950" y="1464" type="line"/>
      <point x="748" y="1343" type="line"/>
      <point x="901.75" y="1192.25"/>
      <point x="1055" y="787.75"/>
      <point x="1055" y="559" type="qcurve" smooth="yes"/>
      <point x="1055" y="283"/>
      <point x="807" y="-20"/>
    </contour>
    <contour>
      <point x="584" y="70" type="qcurve" smooth="yes"/>
      <point x="763.25" y="70"/>
      <point x="950" y="316.25"/>
      <point x="950" y="557" type="qcurve" smooth="yes"/>
      <point x="950" y="703.25"/>
      <point x="756.25" y="868"/>
      <point x="586" y="868" type="qcurve" smooth="yes"/>
      <point x="221" y="868"/>
      <point x="221" y="463" type="qcurve" smooth="yes"/>
      <point x="221" y="277"/>
      <point x="410" y="70"/>
    </contour>
  </outline>
</glyph>
<glyph name="divide" format="1">
  <advance width="1169"/>
  <unicode hex="00F7"/>
  <note>
    divide
  </note>
  <outline>
    <contour>
      <point x="111" y="682" type="line"/>
      <point x="111" y="764" type="line"/>
      <point x="1059" y="764" type="line"/>
      <point x="1059" y="682" type="line"/>
    </contour>
    <contour>
      <point x="584" y="272" type="qcurve" smooth="yes"/>
      <point x="550.25" y="272"/>
      <point x="504" y="317.75"/>
      <point x="504" y="371" type="qcurve" smooth="yes"/>
      <point x="504" y="469"/>
      <point x="584" y="469" type="qcurve" smooth="yes"/>
      <point x="666" y="469"/>
      <point x="666" y="371" type="qcurve" smooth="yes"/>
      <point x="666" y="317.75"/>
      <point x="619.25" y="272"/>
    </contour>
    <contour>
      <point x="584" y="977" type="qcurve" smooth="yes"/>
      <point x="550.25" y="977"/>
      <point x="504" y="1023.25"/>
      <point x="504" y="1075" type="qcurve" smooth="yes"/>
      <point x="504" y="1174"/>
      <point x="584" y="1174" type="qcurve" smooth="yes"/>
      <point x="666" y="1174"/>
      <point x="666" y="1075" type="qcurve" smooth="yes"/>
      <point x="666" y="1023.25"/>
      <point x="619.25" y="977"/>
    </contour>
  </outline>
</glyph>
<glyph name="oslash" format="1">
  <advance width="1200"/>
  <unicode hex="00F8"/>
  <note>
    oslash
  </note>
  <outline>
    <contour>
      <point x="219" y="-35" type="line"/>
      <point x="147" y="23" type="line"/>
      <point x="240" y="143" type="line"/>
      <point x="119" y="295.37037"/>
      <point x="119" y="545" type="qcurve" smooth="yes"/>
      <point x="119" y="811.25"/>
      <point x="377" y="1108"/>
      <point x="602" y="1108" type="qcurve" smooth="yes"/>
      <point x="780.91304" y="1108"/>
      <point x="903" y="1004" type="qcurve"/>
      <point x="999" y="1128" type="line"/>
      <point x="1073" y="1073" type="line"/>
      <point x="969" y="936" type="line"/>
      <point x="1081" y="789.65333"/>
      <point x="1081" y="545" type="qcurve" smooth="yes"/>
      <point x="1081" y="278.75"/>
      <point x="823.25" y="-20"/>
      <point x="596" y="-20" type="qcurve" smooth="yes"/>
      <point x="424.10769" y="-20"/>
      <point x="305" y="78" type="qcurve"/>
    </contour>
    <contour>
      <point x="600" y="70" type="qcurve" smooth="yes"/>
      <point x="780" y="70"/>
      <point x="977" y="320.75"/>
      <point x="977" y="545" type="qcurve" smooth="yes"/>
      <point x="977" y="735.5"/>
      <point x="905" y="854" type="qcurve"/>
      <point x="362" y="152" type="line"/>
      <point x="455.92727" y="70"/>
    </contour>
    <contour>
      <point x="301" y="223" type="qcurve"/>
      <point x="844" y="928" type="line"/>
      <point x="746.5" y="1018"/>
      <point x="598" y="1018" type="qcurve" smooth="yes"/>
      <point x="418" y="1018"/>
      <point x="223" y="770.75"/>
      <point x="223" y="545" type="qcurve" smooth="yes"/>
      <point x="223" y="344.5"/>
    </contour>
    <contour>
      <point x="600" y="1087" type="move" name="top"/>
    </contour>
  </outline>
</glyph>
<glyph name="thorn" format="1">
  <advance width="1219"/>
  <unicode hex="00FE"/>
  <note>
thorn
</note>
  <outline>
    <contour>
      <point x="182" y="-492" type="line"/>
      <point x="182" y="1556" type="line"/>
      <point x="281" y="1556" type="line"/>
      <point x="281.0" y="1165.0" type="line" smooth="yes"/>
      <point x="281.0" y="1103.5"/>
      <point x="275.5" y="979.5"/>
      <point x="274" y="918" type="qcurve"/>
      <point x="281.0" y="918.0" type="line"/>
      <point x="394.7007874015748" y="1108.0"/>
      <point x="649.0" y="1108.0" type="qcurve" smooth="yes"/>
      <point x="868.75" y="1108.0"/>
      <point x="1100.0" y="819.0"/>
      <point x="1100.0" y="543.0" type="qcurve" smooth="yes"/>
      <point x="1100.0" y="275.25"/>
      <point x="857.0" y="-20.0"/>
      <point x="647.0" y="-20.0" type="qcurve" smooth="yes"/>
      <point x="396.808" y="-20.0"/>
      <point x="281" y="168" type="qcurve"/>
      <point x="274.0" y="168.0" type="line"/>
      <point x="277.75" y="84.75"/>
      <point x="281.0" y="-36.0"/>
      <point x="281" y="-78" type="qcurve" smooth="yes"/>
      <point x="281" y="-492" type="line"/>
    </contour>
    <contour>
      <point x="645.0" y="68.0" type="qcurve" smooth="yes"/>
      <point x="812.25" y="68.0"/>
      <point x="995.0" y="316.25"/>
      <point x="995.0" y="539.0" type="qcurve" smooth="yes"/>
      <point x="995.0" y="1018.0"/>
      <point x="647.0" y="1018.0" type="qcurve" smooth="yes"/>
      <point x="454.25" y="1018.0"/>
      <point x="281.0" y="808.0"/>
      <point x="281" y="559" type="qcurve" smooth="yes"/>
      <point x="281.0" y="541.0" type="line" smooth="yes"/>
      <point x="281.0" y="286.0"/>
      <point x="452.25" y="68.0"/>
    </contour>
    <contour>
      <point x="610" y="0" type="move" name="bottom"/>
    </contour>
    <contour>
      <point x="610" y="1087" type="move" name="top"/>
    </contour>
  </outline>
</glyph>
<glyph name="dcroat" format="1">
  <advance width="1219"/>
  <unicode hex="0111"/>
  <note>
dcroat
</note>
  <outline>
    <contour>
      <point x="582.0" y="-20.0" type="qcurve" smooth="yes"/>
      <point x="357.0" y="-20.0"/>
      <point x="119.0" y="260.25"/>
      <point x="119.0" y="528.0" type="qcurve" smooth="yes"/>
      <point x="119.0" y="810.0"/>
      <point x="355.0" y="1108.0"/>
      <point x="580.0" y="1108.0" type="qcurve" smooth="yes"/>
      <point x="697.75" y="1108.0"/>
      <point x="869.75" y="1022.25"/>
      <point x="938" y="918" type="qcurve"/>
      <point x="944.0" y="918.0" type="line"/>
      <point x="941.0" y="981.0"/>
      <point x="938.0" y="1104.25"/>
      <point x="938" y="1165" type="qcurve" smooth="yes"/>
      <point x="938" y="1272" type="line"/>
      <point x="465" y="1272" type="line"/>
      <point x="465" y="1354" type="line"/>
      <point x="938" y="1354" type="line"/>
      <point x="938" y="1556" type="line"/>
      <point x="1036" y="1556" type="line"/>
      <point x="1036" y="1354" type="line"/>
      <point x="1192" y="1354" type="line"/>
      <point x="1192" y="1272" type="line"/>
      <point x="1036" y="1272" type="line"/>
      <point x="1036" y="0" type="line"/>
      <point x="971" y="0" type="line"/>
      <point x="946" y="166" type="line"/>
      <point x="938.0" y="166.0" type="line"/>
      <point x="875.75" y="73.0"/>
      <point x="698.25" y="-20.0"/>
    </contour>
    <contour>
      <point x="582.0" y="68.0" type="qcurve" smooth="yes"/>
      <point x="765.75" y="68.0"/>
      <point x="938.0" y="282.0"/>
      <point x="938" y="528" type="qcurve" smooth="yes"/>
      <point x="938.0" y="545.0" type="line" smooth="yes"/>
      <point x="938.0" y="713.0"/>
      <point x="864.0" y="921.4999999999999"/>
      <point x="706.0" y="1018.0"/>
      <point x="580.0" y="1018.0" type="qcurve" smooth="yes"/>
      <point x="402.25" y="1018.0"/>
      <point x="223.0" y="767.75"/>
      <point x="223.0" y="530.0" type="qcurve" smooth="yes"/>
      <point x="223.0" y="376.0"/>
      <point x="302.9166666666667" y="170.66666666666663"/>
      <point x="462.5" y="68.0"/>
    </contour>
  </outline>
</glyph>
<glyph name="hbar" format="1">
  <advance width="1208"/>
  <unicode hex="0127"/>
  <note>
hbar
</note>
  <outline>
    <contour>
      <point x="182" y="0" type="line"/>
      <point x="182" y="1272" type="line"/>
      <point x="27" y="1272" type="line"/>
      <point x="27" y="1354" type="line"/>
      <point x="182" y="1354" type="line"/>
      <point x="182" y="1556" type="line"/>
      <point x="281" y="1556" type="line"/>
      <point x="281" y="1354" type="line"/>
      <point x="754" y="1354" type="line"/>
      <point x="754" y="1272" type="line"/>
      <point x="281" y="1272" type="line"/>
      <point x="281.0" y="1030.0" type="line" smooth="yes"/>
      <point x="281.0" y="1007.0"/>
      <point x="279.75" y="960.5"/>
      <point x="277.5" y="914.0"/>
      <point x="276" y="891" type="qcurve"/>
      <point x="283.0" y="891.0" type="line"/>
      <point x="343.75" y="989.25"/>
      <point x="530.0" y="1077.0"/>
      <point x="668.0" y="1077.0" type="qcurve" smooth="yes"/>
      <point x="853.25" y="1077.0"/>
      <point x="1038.0" y="878.75"/>
      <point x="1038" y="680" type="qcurve" smooth="yes"/>
      <point x="1038" y="0" type="line"/>
      <point x="940" y="0" type="line"/>
      <point x="940.0" y="674.0" type="line" smooth="yes"/>
      <point x="940.0" y="838.25"/>
      <point x="801.75" y="987.0"/>
      <point x="657.0" y="987.0" type="qcurve" smooth="yes"/>
      <point x="494.6363636363636" y="987.0"/>
      <point x="406.0" y="922.0" type="qcurve" smooth="yes"/>
      <point x="342.25" y="874.75"/>
      <point x="281.0" y="699.5"/>
      <point x="281" y="569" type="qcurve" smooth="yes"/>
      <point x="281" y="0" type="line"/>
    </contour>
  </outline>
</glyph>
<glyph name="idotless" format="1">
  <advance width="463"/>
  <unicode hex="0131"/>
  <note>
dotlessi
</note>
  <outline>
    <contour>
      <point x="281" y="1087" type="line"/>
      <point x="281" y="0" type="line"/>
      <point x="182" y="0" type="line"/>
      <point x="182" y="1087" type="line"/>
    </contour>
    <contour>
      <point x="232" y="0" type="move" name="bottom"/>
    </contour>
    <contour>
      <point x="401" y="10" type="move" name="ogonek"/>
    </contour>
    <contour>
      <point x="231" y="1087" type="move" name="top"/>
    </contour>
  </outline>
</glyph>
<glyph name="kgreenlandic" format="1">
  <advance width="991"/>
  <unicode hex="0138"/>
  <note>
    kgreenlandic
  </note>
  <outline>
    <contour>
      <point x="182" y="0" type="line"/>
      <point x="182" y="1087" type="line"/>
      <point x="281" y="1087" type="line"/>
      <point x="281" y="776" type="line" smooth="yes"/>
      <point x="281" y="701"/>
      <point x="277" y="552"/>
      <point x="274" y="477" type="qcurve"/>
      <point x="279" y="477" type="line"/>
      <point x="314.25" y="516"/>
      <point x="385" y="594"/>
      <point x="421" y="633" type="qcurve" smooth="yes"/>
      <point x="834" y="1087" type="line"/>
      <point x="954" y="1087" type="line"/>
      <point x="526" y="623" type="line"/>
      <point x="991" y="0" type="line"/>
      <point x="872" y="0" type="line"/>
      <point x="459" y="549" type="line"/>
      <point x="281" y="387" type="line"/>
      <point x="281" y="0" type="line"/>
    </contour>
    <contour>
      <point x="496" y="0" type="move" name="bottom"/>
    </contour>
    <contour>
      <point x="496" y="1087" type="move" name="top"/>
    </contour>
  </outline>
</glyph>
<glyph name="Ldot" format="1">
  <advance width="1051"/>
  <unicode hex="013F"/>
  <note>
Ldot
</note>
  <outline>
    <contour>
      <point x="1006" y="0" type="line"/>
      <point x="207" y="0" type="line"/>
      <point x="207" y="1462" type="line"/>
      <point x="309" y="1462" type="line"/>
      <point x="309" y="96" type="line"/>
      <point x="1006" y="96" type="line"/>
    </contour>
    <contour>
      <point x="692.0" y="728.0" type="qcurve" smooth="yes"/>
      <point x="692.0" y="776.0"/>
      <point x="723.75" y="824.0"/>
      <point x="756.0" y="824.0" type="qcurve" smooth="yes"/>
      <point x="786.75" y="824.0"/>
      <point x="821.0" y="773.75"/>
      <point x="821.0" y="728.0" type="qcurve" smooth="yes"/>
      <point x="821.0" y="683.0"/>
      <point x="786.75" y="631.0"/>
      <point x="756.0" y="631.0" type="qcurve" smooth="yes"/>
      <point x="723.75" y="631.0"/>
      <point x="692.0" y="679.25"/>
    </contour>
  </outline>
</glyph>
<glyph name="ldot" format="1">
  <advance width="477"/>
  <unicode hex="0140"/>
  <note>
    ldot
  </note>
  <outline>
    <contour>
      <point x="281" y="1556" type="line"/>
      <point x="281" y="0" type="line"/>
      <point x="182" y="0" type="line"/>
      <point x="182" y="1556" type="line"/>
    </contour>
    <contour>
      <point x="405" y="677" type="qcurve" smooth="yes"/>
      <point x="405" y="773"/>
      <point x="469" y="773" type="qcurve" smooth="yes"/>
      <point x="534" y="773"/>
      <point x="534" y="677" type="qcurve" smooth="yes"/>
      <point x="534" y="632"/>
      <point x="499.75" y="580"/>
      <point x="469" y="580" type="qcurve" smooth="yes"/>
      <point x="405" y="580"/>
    </contour>
  </outline>
</glyph>
<glyph name="Eng" format="1">
  <advance width="1477"/>
  <unicode hex="014A"/>
  <note>
Eng
</note>
  <outline>
    <contour>
      <point x="928.0" y="-369.0" type="qcurve" smooth="yes"/>
      <point x="834.5" y="-369.0"/>
      <point x="776" y="-342" type="qcurve"/>
      <point x="776.0" y="-254.0" type="line"/>
      <point x="815.0" y="-263.75"/>
      <point x="890.0" y="-274.0"/>
      <point x="926.0" y="-274.0" type="qcurve" smooth="yes"/>
      <point x="1061.0" y="-274.0"/>
      <point x="1174.25" y="-116.25"/>
      <point x="1166" y="42" type="qcurve"/>
      <point x="1193" y="-39" type="line"/>
      <point x="301" y="1298" type="line"/>
      <point x="293.0" y="1298.0" type="line"/>
      <point x="299.0" y="1181.75"/>
      <point x="305.0" y="1007.25"/>
      <point x="305" y="948" type="qcurve" smooth="yes"/>
      <point x="305" y="0" type="line"/>
      <point x="207" y="0" type="line"/>
      <point x="207" y="1462" type="line"/>
      <point x="309" y="1462" type="line"/>
      <point x="1174" y="166" type="line"/>
      <point x="1180.0" y="166.0" type="line"/>
      <point x="1175.5" y="256.0"/>
      <point x="1171.0" y="427.0"/>
      <point x="1171" y="508" type="qcurve" smooth="yes"/>
      <point x="1171" y="1462" type="line"/>
      <point x="1270" y="1462" type="line"/>
      <point x="1270.0" y="0.0" type="line" smooth="yes"/>
      <point x="1270.0" y="-184.5"/>
      <point x="1099.0" y="-369.0"/>
    </contour>
  </outline>
</glyph>
<glyph name="eng" format="1">
  <advance width="1208"/>
  <unicode hex="014B"/>
  <note>
eng
</note>
  <outline>
    <contour>
      <point x="795.0" y="-492.0" type="qcurve" smooth="yes"/>
      <point x="755.25" y="-492.0"/>
      <point x="687.5" y="-479.75"/>
      <point x="659" y="-467" type="qcurve"/>
      <point x="659.0" y="-381.0" type="line"/>
      <point x="693.5" y="-390.75"/>
      <point x="758.0" y="-401.0"/>
      <point x="788.0" y="-401.0" type="qcurve" smooth="yes"/>
      <point x="940.0" y="-401.0"/>
      <point x="940" y="-225" type="qcurve" smooth="yes"/>
      <point x="940.0" y="705.0" type="line" smooth="yes"/>
      <point x="940.0" y="869.25"/>
      <point x="795.25" y="1018.0"/>
      <point x="643.0" y="1018.0" type="qcurve" smooth="yes"/>
      <point x="546.2455000000001" y="1018.0"/>
      <point x="407.25" y="967.25"/>
      <point x="363.0" y="914.0" type="qcurve" smooth="yes"/>
      <point x="321.0" y="862.25"/>
      <point x="281.0" y="707.25"/>
      <point x="281" y="600" type="qcurve" smooth="yes"/>
      <point x="281" y="0" type="line"/>
      <point x="182" y="0" type="line"/>
      <point x="182" y="1087" type="line"/>
      <point x="266" y="1087" type="line"/>
      <point x="285" y="938" type="line"/>
      <point x="291.0" y="938.0" type="line"/>
      <point x="345.0" y="1025.0"/>
      <point x="531.25" y="1108.0"/>
      <point x="643.0" y="1108.0" type="qcurve" smooth="yes"/>
      <point x="844.0" y="1108.0"/>
      <point x="1038.0" y="909.75"/>
      <point x="1038" y="711" type="qcurve" smooth="yes"/>
      <point x="1038.0" y="-211.0" type="line" smooth="yes"/>
      <point x="1038.0" y="-345.25"/>
      <point x="912.75" y="-492.0"/>
    </contour>
  </outline>
</glyph>
<glyph name="OE" format="1">
  <advance width="1839"/>
  <unicode hex="0152"/>
  <note>
OE
</note>
  <outline>
    <contour>
      <point x="782.0" y="-16.0" type="qcurve" smooth="yes"/>
      <point x="578.5" y="-16.0"/>
      <point x="285.91666666666663" y="164.5"/>
      <point x="129.0" y="501.0"/>
      <point x="129.0" y="735.0" type="qcurve" smooth="yes"/>
      <point x="129.0" y="966.5"/>
      <point x="286.5" y="1299.9166666666665"/>
      <point x="580.0" y="1479.0"/>
      <point x="784.0" y="1479.0" type="qcurve" smooth="yes"/>
      <point x="810.0" y="1479.0"/>
      <point x="868.0" y="1475.0833333333333"/>
      <point x="932.0" y="1467.5"/>
      <point x="967" y="1462" type="qcurve"/>
      <point x="1714" y="1462" type="line"/>
      <point x="1714" y="1368" type="line"/>
      <point x="1059" y="1368" type="line"/>
      <point x="1059" y="815" type="line"/>
      <point x="1675" y="815" type="line"/>
      <point x="1675" y="721" type="line"/>
      <point x="1059" y="721" type="line"/>
      <point x="1059" y="94" type="line"/>
      <point x="1714" y="94" type="line"/>
      <point x="1714" y="0" type="line"/>
      <point x="958.0" y="0.0" type="line"/>
      <point x="932.5" y="-5.5"/>
      <point x="876.6666666666665" y="-12.583333333333332"/>
      <point x="815.5" y="-16.0"/>
    </contour>
    <contour>
      <point x="782.0" y="80.0" type="qcurve" smooth="yes"/>
      <point x="836.75" y="80.0"/>
      <point x="923.75" y="89.0"/>
      <point x="956" y="98" type="qcurve"/>
      <point x="956.0" y="1364.0" type="line"/>
      <point x="925.25" y="1372.25"/>
      <point x="838.75" y="1380.0"/>
      <point x="784.0" y="1380.0" type="qcurve" smooth="yes"/>
      <point x="522.25" y="1380.0"/>
      <point x="240.0" y="1045.0"/>
      <point x="240.0" y="733.0" type="qcurve" smooth="yes"/>
      <point x="240.0" y="418.0"/>
      <point x="521.0" y="80.0"/>
    </contour>
    <contour>
      <point x="920" y="0" type="move" name="bottom"/>
    </contour>
    <contour>
      <point x="920" y="1462" type="move" name="top"/>
    </contour>
  </outline>
</glyph>
<glyph name="oe" format="1">
  <advance width="1942"/>
  <unicode hex="0153"/>
  <note>
    oe
  </note>
  <outline>
    <contour>
      <point x="596" y="-20" type="qcurve" smooth="yes"/>
      <point x="442.5" y="-20"/>
      <point x="229.58333" y="126.66667"/>
      <point x="119" y="382"/>
      <point x="119" y="545" type="qcurve" smooth="yes"/>
      <point x="119" y="811.25"/>
      <point x="377" y="1108"/>
      <point x="602" y="1108" type="qcurve" smooth="yes"/>
      <point x="752.75" y="1108"/>
      <point x="953" y="967.75"/>
      <point x="1010" y="829" type="qcurve"/>
      <point x="1119.5" y="1108"/>
      <point x="1409" y="1108" type="qcurve" smooth="yes"/>
      <point x="1601" y="1108"/>
      <point x="1823" y="840.25"/>
      <point x="1823" y="610" type="qcurve" smooth="yes"/>
      <point x="1823" y="530" type="line"/>
      <point x="1061" y="530" type="line"/>
      <point x="1063.25" y="299.75"/>
      <point x="1260.25" y="70"/>
      <point x="1438" y="70" type="qcurve" smooth="yes"/>
      <point x="1500" y="70"/>
      <point x="1600.66667" y="80.75"/>
      <point x="1708" y="110.5"/>
      <point x="1780" y="139" type="qcurve"/>
      <point x="1780" y="49" type="line"/>
      <point x="1687.75" y="9.25"/>
      <point x="1531.75" y="-20"/>
      <point x="1438" y="-20" type="qcurve" smooth="yes"/>
      <point x="1282" y="-20"/>
      <point x="1060.75" y="114.75"/>
      <point x="1006" y="246" type="qcurve"/>
      <point x="946.75" y="117.75"/>
      <point x="749" y="-20"/>
    </contour>
    <contour>
      <point x="600" y="70" type="qcurve" smooth="yes"/>
      <point x="787.7234" y="70"/>
      <point x="879" y="213" type="qcurve" smooth="yes"/>
      <point x="956" y="333.78431"/>
      <point x="956" y="545" type="qcurve" smooth="yes"/>
      <point x="956" y="753.73585"/>
      <point x="875" y="876" type="qcurve" smooth="yes"/>
      <point x="780.84783" y="1018"/>
      <point x="598" y="1018" type="qcurve" smooth="yes"/>
      <point x="431.3" y="1018"/>
      <point x="335" y="911" type="qcurve" smooth="yes"/>
      <point x="223" y="788.26027"/>
      <point x="223" y="545" type="qcurve" smooth="yes"/>
      <point x="223" y="297.12987"/>
      <point x="341" y="173" type="qcurve" smooth="yes"/>
      <point x="437.85075" y="70"/>
    </contour>
    <contour>
      <point x="1065" y="618" type="qcurve"/>
      <point x="1718" y="618" type="line"/>
      <point x="1718" y="807"/>
      <point x="1553.75" y="1020"/>
      <point x="1409" y="1020" type="qcurve" smooth="yes"/>
      <point x="1253.75" y="1020"/>
      <point x="1080" y="812.25"/>
    </contour>
    <contour>
      <point x="971" y="0" type="move" name="bottom"/>
    </contour>
    <contour>
      <point x="971" y="1087" type="move" name="top"/>
    </contour>
  </outline>
</glyph>
<glyph name="tbar" format="1">
  <advance width="686"/>
  <unicode hex="0167"/>
  <note>
    tbar
  </note>
  <outline>
    <contour>
      <point x="467" y="-20" type="qcurve" smooth="yes"/>
      <point x="323" y="-20"/>
      <point x="186" y="134"/>
      <point x="186" y="299" type="qcurve" smooth="yes"/>
      <point x="186" y="602" type="line"/>
      <point x="41" y="602" type="line"/>
      <point x="41" y="688" type="line"/>
      <point x="186" y="688" type="line"/>
      <point x="186" y="1001" type="line"/>
      <point x="25" y="1001" type="line"/>
      <point x="25" y="1059" type="line"/>
      <point x="186" y="1104" type="line"/>
      <point x="236" y="1350" type="line"/>
      <point x="287" y="1350" type="line"/>
      <point x="287" y="1087" type="line"/>
      <point x="606" y="1087" type="line"/>
      <point x="606" y="1001" type="line"/>
      <point x="287" y="1001" type="line"/>
      <point x="287" y="688" type="line"/>
      <point x="596" y="688" type="line"/>
      <point x="596" y="602" type="line"/>
      <point x="287" y="602" type="line"/>
      <point x="287" y="313" type="line" smooth="yes"/>
      <point x="287" y="68"/>
      <point x="469" y="68" type="qcurve" smooth="yes"/>
      <point x="564.63636" y="68"/>
      <point x="633" y="84" type="qcurve"/>
      <point x="633" y="4" type="line"/>
      <point x="561" y="-20"/>
    </contour>
  </outline>
</glyph>
<glyph name="longs" format="1">
  <advance width="627"/>
  <unicode hex="017F"/>
  <note>
    longs
  </note>
  <outline>
    <contour>
      <point x="182" y="0" type="line"/>
      <point x="182" y="1180" type="line" smooth="yes"/>
      <point x="182" y="1383.25"/>
      <point x="331" y="1567"/>
      <point x="496" y="1567" type="qcurve" smooth="yes"/>
      <point x="586" y="1567"/>
      <point x="676" y="1540" type="qcurve"/>
      <point x="653" y="1454" type="line"/>
      <point x="575.05882" y="1479"/>
      <point x="494" y="1479" type="qcurve" smooth="yes"/>
      <point x="358.11765" y="1479"/>
      <point x="312" y="1381" type="qcurve" smooth="yes"/>
      <point x="281" y="1313.09524"/>
      <point x="281" y="1188" type="qcurve" smooth="yes"/>
      <point x="281" y="0" type="line"/>
    </contour>
    <contour>
      <point x="314" y="0" type="move" name="bottom"/>
    </contour>
    <contour>
      <point x="314" y="1087" type="move" name="top"/>
    </contour>
  </outline>
</glyph>
<glyph name="florin" format="1">
  <advance width="1169"/>
  <unicode hex="0192"/>
  <note>
    florin
  </note>
  <outline>
    <contour>
      <point x="330" y="-492" type="qcurve" smooth="yes"/>
      <point x="244.07692" y="-492"/>
      <point x="190" y="-473" type="qcurve"/>
      <point x="190" y="-383" type="line"/>
      <point x="268" y="-401"/>
      <point x="334" y="-401" type="qcurve" smooth="yes"/>
      <point x="510" y="-401"/>
      <point x="510" y="-184" type="qcurve" smooth="yes"/>
      <point x="510" y="854" type="line"/>
      <point x="303" y="854" type="line"/>
      <point x="303" y="913" type="line"/>
      <point x="510" y="950" type="line"/>
      <point x="510" y="1096" type="line" smooth="yes"/>
      <point x="510" y="1297"/>
      <point x="662.75" y="1483"/>
      <point x="827" y="1483" type="qcurve" smooth="yes"/>
      <point x="911.09524" y="1483"/>
      <point x="1010" y="1452" type="qcurve"/>
      <point x="985" y="1366" type="line"/>
      <point x="894.94737" y="1395"/>
      <point x="825" y="1395" type="qcurve" smooth="yes"/>
      <point x="708.04167" y="1395"/>
      <point x="657" y="1325" type="qcurve" smooth="yes"/>
      <point x="608" y="1257.26471"/>
      <point x="608" y="1104" type="qcurve" smooth="yes"/>
      <point x="608" y="942" type="line"/>
      <point x="889" y="942" type="line"/>
      <point x="889" y="854" type="line"/>
      <point x="608" y="854" type="line"/>
      <point x="608" y="-174" type="line" smooth="yes"/>
      <point x="608" y="-329.25"/>
      <point x="465.75" y="-492"/>
    </contour>
  </outline>
</glyph>
<glyph name="Ohorn" format="1">
  <advance width="1565"/>
  <unicode hex="01A0"/>
  <note>
    Ohorn
  </note>
  <outline>
    <contour>
      <point x="782" y="-20" type="qcurve" smooth="yes"/>
      <point x="578.5" y="-20"/>
      <point x="285.91667" y="162.91667"/>
      <point x="129" y="501.5"/>
      <point x="129" y="735" type="qcurve" smooth="yes"/>
      <point x="129" y="967.5"/>
      <point x="287.75" y="1303.75"/>
      <point x="581.5" y="1485"/>
      <point x="784" y="1485" type="qcurve" smooth="yes"/>
      <point x="1114.13072" y="1485"/>
      <point x="1284" y="1255" type="qcurve"/>
      <point x="1365" y="1276"/>
      <point x="1444" y="1418"/>
      <point x="1444" y="1556" type="qcurve"/>
      <point x="1548" y="1556" type="line"/>
      <point x="1561" y="1538" type="line"/>
      <point x="1551.25" y="1391"/>
      <point x="1436.25" y="1221.25"/>
      <point x="1329" y="1186" type="qcurve"/>
      <point x="1436" y="1003.64789"/>
      <point x="1436" y="733" type="qcurve" smooth="yes"/>
      <point x="1436" y="501"/>
      <point x="1279" y="163.16667"/>
      <point x="986" y="-20"/>
    </contour>
    <contour>
      <point x="782" y="76" type="qcurve" smooth="yes"/>
      <point x="1046" y="76"/>
      <point x="1325" y="415.75"/>
      <point x="1325" y="733" type="qcurve" smooth="yes"/>
      <point x="1325" y="1048.75"/>
      <point x="1045.75" y="1386"/>
      <point x="784" y="1386" type="qcurve" smooth="yes"/>
      <point x="523" y="1386"/>
      <point x="240" y="1045.75"/>
      <point x="240" y="733" type="qcurve" smooth="yes"/>
      <point x="240" y="418.75"/>
      <point x="520.25" y="76"/>
    </contour>
    <contour>
      <point x="783" y="0" type="move" name="bottom"/>
    </contour>
    <contour>
      <point x="783" y="1462" type="move" name="top"/>
    </contour>
  </outline>
</glyph>
<glyph name="ohorn" format="1">
  <advance width="1200"/>
  <unicode hex="01A1"/>
  <note>
    ohorn
  </note>
  <outline>
    <contour>
      <point x="596" y="-20" type="qcurve" smooth="yes"/>
      <point x="442.5" y="-20"/>
      <point x="229.58333" y="126.66667"/>
      <point x="119" y="382"/>
      <point x="119" y="545" type="qcurve" smooth="yes"/>
      <point x="119" y="811.25"/>
      <point x="377" y="1108"/>
      <point x="602" y="1108" type="qcurve" smooth="yes"/>
      <point x="821" y="1108"/>
      <point x="950" y="961" type="qcurve"/>
      <point x="1022" y="985"/>
      <point x="1093" y="1120.75"/>
      <point x="1096" y="1255" type="qcurve"/>
      <point x="1196" y="1255" type="line"/>
      <point x="1208" y="1237" type="line"/>
      <point x="1196.75" y="1093"/>
      <point x="1095" y="931.25"/>
      <point x="999" y="893" type="qcurve"/>
      <point x="1081" y="757.32727"/>
      <point x="1081" y="545" type="qcurve" smooth="yes"/>
      <point x="1081" y="278.75"/>
      <point x="823.25" y="-20"/>
    </contour>
    <contour>
      <point x="600" y="70" type="qcurve" smooth="yes"/>
      <point x="774.09091" y="70"/>
      <point x="873" y="189" type="qcurve" smooth="yes"/>
      <point x="977" y="312.88235"/>
      <point x="977" y="545" type="qcurve" smooth="yes"/>
      <point x="977" y="801.09756"/>
      <point x="850" y="925" type="qcurve" smooth="yes"/>
      <point x="753.95082" y="1018"/>
      <point x="598" y="1018" type="qcurve" smooth="yes"/>
      <point x="449.67857" y="1018"/>
      <point x="356" y="932" type="qcurve" smooth="yes"/>
      <point x="223" y="811.22989"/>
      <point x="223" y="545" type="qcurve" smooth="yes"/>
      <point x="223" y="425.75"/>
      <point x="280.75" y="241.75"/>
      <point x="334" y="181" type="qcurve" smooth="yes"/>
      <point x="431.125" y="70"/>
    </contour>
    <contour>
      <point x="600" y="0" type="move" name="bottom"/>
    </contour>
    <contour>
      <point x="600" y="1087" type="move" name="top"/>
    </contour>
  </outline>
</glyph>
<glyph name="Uhorn" format="1">
  <advance width="1497"/>
  <unicode hex="01AF"/>
  <note>
    Uhorn
  </note>
  <outline>
    <contour>
      <point x="729" y="-20" type="qcurve" smooth="yes"/>
      <point x="474.75" y="-20"/>
      <point x="190" y="265"/>
      <point x="190" y="520" type="qcurve" smooth="yes"/>
      <point x="190" y="1462" type="line"/>
      <point x="293" y="1462" type="line"/>
      <point x="293" y="516" type="line" smooth="yes"/>
      <point x="293" y="305.25"/>
      <point x="527.25" y="70"/>
      <point x="741" y="70" type="qcurve" smooth="yes"/>
      <point x="950.25" y="70"/>
      <point x="1180" y="301.25"/>
      <point x="1180" y="506" type="qcurve" smooth="yes"/>
      <point x="1180" y="1462" type="line"/>
      <point x="1282" y="1462" type="line"/>
      <point x="1282" y="1255" type="line"/>
      <point x="1371.25" y="1273.75"/>
      <point x="1454" y="1414.25"/>
      <point x="1454" y="1556" type="qcurve"/>
      <point x="1559" y="1556" type="line"/>
      <point x="1571" y="1538" type="line"/>
      <point x="1557.74535" y="1359.79859"/>
      <point x="1473" y="1269" type="qcurve" smooth="yes"/>
      <point x="1402.25476" y="1193.83318"/>
      <point x="1282" y="1171" type="qcurve"/>
      <point x="1282" y="516" type="line" smooth="yes"/>
      <point x="1282" y="264"/>
      <point x="990" y="-20"/>
    </contour>
    <contour>
      <point x="749" y="0" type="move" name="bottom"/>
    </contour>
    <contour>
      <point x="749" y="1462" type="move" name="top"/>
    </contour>
  </outline>
</glyph>
<glyph name="uhorn" format="1">
  <advance width="1262"/>
  <unicode hex="01B0"/>
  <note>
    uhorn
  </note>
  <outline>
    <contour>
      <point x="565" y="-20" type="qcurve" smooth="yes"/>
      <point x="364" y="-20"/>
      <point x="170" y="176"/>
      <point x="170" y="377" type="qcurve" smooth="yes"/>
      <point x="170" y="1087" type="line"/>
      <point x="268" y="1087" type="line"/>
      <point x="268" y="383" type="line" smooth="yes"/>
      <point x="268" y="218.75"/>
      <point x="412.75" y="70"/>
      <point x="565" y="70" type="qcurve" smooth="yes"/>
      <point x="754" y="70"/>
      <point x="928" y="268"/>
      <point x="928" y="487" type="qcurve" smooth="yes"/>
      <point x="928" y="1087" type="line"/>
      <point x="1026" y="1087" type="line"/>
      <point x="1026" y="965" type="line"/>
      <point x="1153.50173" y="986.73325"/>
      <point x="1186" y="1099" type="qcurve" smooth="yes"/>
      <point x="1202" y="1154.27273"/>
      <point x="1202" y="1266" type="qcurve"/>
      <point x="1303" y="1266" type="line"/>
      <point x="1315" y="1247" type="line"/>
      <point x="1306" y="1124"/>
      <point x="1242.25" y="989.75"/>
      <point x="1183" y="944" type="qcurve" smooth="yes"/>
      <point x="1122.86032" y="897.39175"/>
      <point x="1026" y="881" type="qcurve"/>
      <point x="1026" y="0" type="line"/>
      <point x="942" y="0" type="line"/>
      <point x="924" y="150" type="line"/>
      <point x="918" y="150" type="line"/>
      <point x="866.25" y="68.25"/>
      <point x="682.75" y="-20"/>
    </contour>
    <contour>
      <point x="631" y="0" type="move" name="bottom"/>
    </contour>
    <contour>
      <point x="631" y="1087" type="move" name="top"/>
    </contour>
  </outline>
</glyph>
<glyph name="Aringacute" format="1">
  <advance width="1229"/>
  <unicode hex="01FA"/>
  <note>
Aringacute
</note>
  <outline>
    <contour>
      <point x="-12" y="0" type="line"/>
      <point x="553.0" y="1206.0" type="line"/>
      <point x="484.75" y="1223.25"/>
      <point x="401.0" y="1327.0"/>
      <point x="401.0" y="1411.0" type="qcurve" smooth="yes"/>
      <point x="401.0" y="1504.75"/>
      <point x="521.25" y="1622.0"/>
      <point x="618.0" y="1622.0" type="qcurve" smooth="yes"/>
      <point x="716.25" y="1622.0"/>
      <point x="836.0" y="1506.25"/>
      <point x="836.0" y="1411.0" type="qcurve" smooth="yes"/>
      <point x="836.0" y="1330.0"/>
      <point x="754.25" y="1226.25"/>
      <point x="686" y="1206" type="qcurve"/>
      <point x="1239" y="0" type="line"/>
      <point x="1124" y="0" type="line"/>
      <point x="924" y="446" type="line"/>
      <point x="307" y="446" type="line"/>
      <point x="98" y="0" type="line"/>
    </contour>
    <contour>
      <point x="346" y="539" type="qcurve"/>
      <point x="885.0" y="539.0" type="line"/>
      <point x="849.0" y="616.0"/>
      <point x="779.8333333333333" y="768.0833333333333"/>
      <point x="712.0" y="918.5"/>
      <point x="678.0" y="993.0" type="qcurve" smooth="yes"/>
      <point x="666.0" y="1019.25"/>
      <point x="636.0" y="1096.0"/>
      <point x="618.0" y="1147.0" type="qcurve"/>
      <point x="606.75" y="1111.75"/>
      <point x="575.25" y="1032.0"/>
      <point x="555.0" y="987.0" type="qcurve" smooth="yes"/>
      <point x="528.75" y="931.125"/>
      <point x="476.5520833333333" y="819.0729166666666"/>
      <point x="424.4479166666667" y="706.9270833333334"/>
      <point x="372.25" y="594.875"/>
    </contour>
    <contour>
      <point x="618.0" y="1270.0" type="qcurve" smooth="yes"/>
      <point x="680.25" y="1270.0"/>
      <point x="756.0" y="1345.0"/>
      <point x="756.0" y="1411.0" type="qcurve" smooth="yes"/>
      <point x="756.0" y="1474.75"/>
      <point x="678.0" y="1550.0"/>
      <point x="618.0" y="1550.0" type="qcurve" smooth="yes"/>
      <point x="558.0" y="1550.0"/>
      <point x="481.0" y="1474.0"/>
      <point x="481.0" y="1411.0" type="qcurve" smooth="yes"/>
      <point x="481.0" y="1345.0"/>
      <point x="557.25" y="1270.0"/>
    </contour>
    <contour>
      <point x="561" y="1673" type="line"/>
      <point x="561.0" y="1690.0" type="line"/>
      <point x="595.5" y="1727.0"/>
      <point x="660.6666666666666" y="1812.25"/>
      <point x="722.5" y="1908.5"/>
      <point x="752" y="1962" type="qcurve"/>
      <point x="893" y="1962" type="line"/>
      <point x="893.0" y="1946.0" type="line"/>
      <point x="870.875" y="1915.625"/>
      <point x="807.5885416666666" y="1842.625"/>
      <point x="735.1614583333334" y="1767.375"/>
      <point x="662.5" y="1698.875"/>
      <point x="631" y="1673" type="qcurve"/>
    </contour>
  </outline>
</glyph>
<glyph name="jdotless" format="1">
  <advance width="426"/>
  <unicode hex="0237"/>
  <note>
uni0237
</note>
  <outline>
    <contour>
      <point x="14.0" y="-492.0" type="qcurve" smooth="yes"/>
      <point x="-25.75" y="-492.0"/>
      <point x="-93.25" y="-479.75"/>
      <point x="-121" y="-467" type="qcurve"/>
      <point x="-121.0" y="-381.0" type="line"/>
      <point x="-86.5" y="-390.75"/>
      <point x="-22.0" y="-401.0"/>
      <point x="8.0" y="-401.0" type="qcurve" smooth="yes"/>
      <point x="74.0" y="-401.0"/>
      <point x="110.0" y="-368.0" type="qcurve" smooth="yes"/>
      <point x="159.0" y="-324.93939393939394"/>
      <point x="159" y="-225" type="qcurve" smooth="yes"/>
      <point x="159" y="1087" type="line"/>
      <point x="258" y="1087" type="line"/>
      <point x="258.0" y="-211.0" type="line" smooth="yes"/>
      <point x="258.0" y="-346.0"/>
      <point x="131.0" y="-492.0"/>
    </contour>
    <contour>
      <point x="209" y="0" type="move" name="bottom"/>
    </contour>
    <contour>
      <point x="209" y="1087" type="move" name="top"/>
    </contour>
  </outline>
</glyph>
<glyph name="apostrophemod" format="1">
  <advance width="310"/>
  <unicode hex="02BC"/>
  <note>
afii57929
</note>
  <outline>
    <contour>
      <point x="35" y="961" type="line"/>
      <point x="54.5" y="1025.0"/>
      <point x="96.66666666666666" y="1201.5"/>
      <point x="133.5" y="1386.0"/>
      <point x="145" y="1462" type="qcurve"/>
      <point x="262" y="1462" type="line"/>
      <point x="274.0" y="1442.0" type="line"/>
      <point x="236.5" y="1309.25"/>
      <point x="149.5" y="1069.0"/>
      <point x="100" y="961" type="qcurve"/>
    </contour>
  </outline>
</glyph>
<glyph name="firsttonechinese" format="1">
  <advance width="1155"/>
  <unicode hex="02C9"/>
  <note>
    uni02C9
  </note>
  <outline>
    <contour>
      <point x="300" y="1251" type="line"/>
      <point x="300" y="1333" type="line"/>
      <point x="855" y="1333" type="line"/>
      <point x="855" y="1251" type="line"/>
    </contour>
  </outline>
</glyph>
<glyph name="lowringmod" format="1">
  <advance width="682"/>
  <unicode hex="02F3"/>
  <note>
    uni02F3
  </note>
  <outline>
    <contour>
      <point x="340" y="-551" type="qcurve" smooth="yes"/>
      <point x="243.25" y="-551"/>
      <point x="123" y="-434.75"/>
      <point x="123" y="-338" type="qcurve" smooth="yes"/>
      <point x="123" y="-244.25"/>
      <point x="243.25" y="-127"/>
      <point x="340" y="-127" type="qcurve" smooth="yes"/>
      <point x="436.75" y="-127"/>
      <point x="557" y="-245"/>
      <point x="557" y="-338" type="qcurve" smooth="yes"/>
      <point x="557" y="-434.75"/>
      <point x="436.75" y="-551"/>
    </contour>
    <contour>
      <point x="340" y="-479" type="qcurve" smooth="yes"/>
      <point x="402.25" y="-479"/>
      <point x="477" y="-404"/>
      <point x="477" y="-338" type="qcurve" smooth="yes"/>
      <point x="477" y="-274.25"/>
      <point x="399.25" y="-199"/>
      <point x="340" y="-199" type="qcurve" smooth="yes"/>
      <point x="277.75" y="-199"/>
      <point x="203" y="-275"/>
      <point x="203" y="-338" type="qcurve" smooth="yes"/>
      <point x="203" y="-404"/>
      <point x="277.75" y="-479"/>
    </contour>
    <contour>
      <point x="340" y="1" type="move" name="_bottom"/>
    </contour>
  </outline>
</glyph>
<glyph name="gravecomb" format="1">
  <advance width="9"/>
  <unicode hex="0300"/>
  <note>
    gravecomb
  </note>
  <outline>
    <contour>
      <point x="127" y="1241" type="line"/>
      <point x="63" y="1294"/>
      <point x="-65" y="1414"/>
      <point x="-165" y="1521"/>
      <point x="-187" y="1552" type="qcurve"/>
      <point x="-187" y="1569" type="line"/>
      <point x="-45" y="1569" type="line"/>
      <point x="-28" y="1537"/>
      <point x="51" y="1428"/>
      <point x="150" y="1308"/>
      <point x="196" y="1257" type="qcurve"/>
      <point x="196" y="1241" type="line"/>
    </contour>
    <contour>
      <point x="84" y="1127" type="move" name="_top"/>
    </contour>
    <contour>
      <point x="4" y="1569" type="move" name="top"/>
    </contour>
  </outline>
</glyph>
<glyph name="acutecomb" format="1">
  <advance width="9"/>
  <unicode hex="0301"/>
  <note>
    acutecomb
  </note>
  <outline>
    <contour>
      <point x="-187" y="1241" type="line"/>
      <point x="-187" y="1257" type="line"/>
      <point x="-139" y="1310"/>
      <point x="-40" y="1430"/>
      <point x="38" y="1537"/>
      <point x="55" y="1569" type="qcurve"/>
      <point x="196" y="1569" type="line"/>
      <point x="196" y="1552" type="line"/>
      <point x="160" y="1500"/>
      <point x="-13" y="1328"/>
      <point x="-117" y="1241" type="qcurve"/>
    </contour>
    <contour>
      <point x="-96" y="1127" type="move" name="_top"/>
    </contour>
    <contour>
      <point x="4" y="1569" type="move" name="top"/>
    </contour>
  </outline>
</glyph>
<glyph name="circumflexcomb" format="1">
  <advance width="582"/>
  <unicode hex="0302"/>
  <note>
    circumflex
  </note>
  <outline>
    <contour>
      <point x="0" y="1241" type="line"/>
      <point x="0" y="1257" type="line"/>
      <point x="41.5" y="1301.5"/>
      <point x="132.66667" y="1413"/>
      <point x="214.5" y="1524.5"/>
      <point x="242" y="1569" type="qcurve"/>
      <point x="340" y="1569" type="line"/>
      <point x="406.68182" y="1450.45455"/>
      <point x="582" y="1257" type="qcurve"/>
      <point x="582" y="1241" type="line"/>
      <point x="512" y="1241" type="line"/>
      <point x="481.25" y="1266.5"/>
      <point x="421.75" y="1318.75"/>
      <point x="394" y="1345" type="qcurve" smooth="yes"/>
      <point x="367" y="1370.5"/>
      <point x="315" y="1421.75"/>
      <point x="291" y="1448" type="qcurve"/>
      <point x="237.24658" y="1391.26027"/>
      <point x="182" y="1339" type="qcurve" smooth="yes"/>
      <point x="154.25" y="1313.5"/>
      <point x="98.5" y="1264.25"/>
      <point x="70" y="1241" type="qcurve"/>
    </contour>
    <contour>
      <point x="291" y="1127" type="move" name="_top"/>
    </contour>
    <contour>
      <point x="291" y="1569" type="move" name="top"/>
    </contour>
  </outline>
</glyph>
<glyph name="tildecomb" format="1">
  <advance width="93"/>
  <unicode hex="0303"/>
  <note>
    tildecomb
  </note>
  <outline>
    <contour>
      <point x="-303" y="1243" type="line"/>
      <point x="-293" y="1354"/>
      <point x="-187" y="1481"/>
      <point x="-103" y="1481" type="qcurve" smooth="yes"/>
      <point x="-55" y="1481"/>
      <point x="26" y="1431"/>
      <point x="68" y="1397" type="qcurve" smooth="yes"/>
      <point x="101" y="1369"/>
      <point x="165" y="1325"/>
      <point x="195" y="1325" type="qcurve" smooth="yes"/>
      <point x="240" y="1325"/>
      <point x="302" y="1398"/>
      <point x="320" y="1481" type="qcurve"/>
      <point x="396" y="1481" type="line"/>
      <point x="380" y="1365"/>
      <point x="273" y="1243"/>
      <point x="195" y="1243" type="qcurve" smooth="yes"/>
      <point x="159" y="1243"/>
      <point x="81" y="1280"/>
      <point x="19" y="1333" type="qcurve" smooth="yes"/>
      <point x="-14" y="1359"/>
      <point x="-74" y="1399"/>
      <point x="-107" y="1399" type="qcurve" smooth="yes"/>
      <point x="-152" y="1399"/>
      <point x="-212" y="1330"/>
      <point x="-230" y="1243" type="qcurve"/>
    </contour>
    <contour>
      <point x="27" y="1127" type="move" name="_top"/>
    </contour>
    <contour>
      <point x="47" y="1481" type="move" name="top"/>
    </contour>
  </outline>
</glyph>
<glyph name="macroncomb" format="1">
  <advance width="52"/>
  <unicode hex="0304"/>
  <outline>
    <contour>
      <point x="-252" y="1251" type="line"/>
      <point x="-252" y="1333" type="line"/>
      <point x="304" y="1333" type="line"/>
      <point x="304" y="1251" type="line"/>
    </contour>
    <contour>
      <point x="24" y="1127" type="move" name="_top"/>
    </contour>
    <contour>
      <point x="27" y="1333" type="move" name="top"/>
    </contour>
  </outline>
</glyph>
<glyph name="overlinecomb" format="1">
  <advance width="0"/>
  <unicode hex="0305"/>
  <outline>
    <contour>
      <point x="-427" y="1579" type="line"/>
      <point x="-427" y="1724" type="line"/>
      <point x="427" y="1724" type="line"/>
      <point x="427" y="1579" type="line"/>
    </contour>
    <contour>
      <point x="1" y="1303" type="move" name="_top"/>
    </contour>
    <contour>
      <point x="1" y="1724" type="move" name="top"/>
    </contour>
  </outline>
</glyph>
<glyph name="brevecomb" format="1">
  <advance width="56"/>
  <unicode hex="0306"/>
  <note>
    breve
  </note>
  <outline>
    <contour>
      <point x="27" y="1241" type="qcurve" smooth="yes"/>
      <point x="-226" y="1241"/>
      <point x="-249" y="1487" type="qcurve"/>
      <point x="-167" y="1487" type="line"/>
      <point x="-152" y="1400"/>
      <point x="-59" y="1325"/>
      <point x="29" y="1325" type="qcurve" smooth="yes"/>
      <point x="116" y="1325"/>
      <point x="210" y="1400"/>
      <point x="225" y="1487" type="qcurve"/>
      <point x="305" y="1487" type="line"/>
      <point x="275" y="1241"/>
    </contour>
    <contour>
      <point x="29" y="1127" type="move" name="_top"/>
    </contour>
    <contour>
      <point x="29" y="1487" type="move" name="top"/>
    </contour>
  </outline>
</glyph>
<glyph name="dotaccentcomb" format="1">
  <advance width="0"/>
  <unicode hex="0307"/>
  <note>
    dotaccent
  </note>
  <outline>
    <contour>
      <point x="-1" y="1292" type="qcurve" smooth="yes"/>
      <point x="-65" y="1292"/>
      <point x="-65" y="1389" type="qcurve" smooth="yes"/>
      <point x="-65" y="1485"/>
      <point x="-1" y="1485" type="qcurve" smooth="yes"/>
      <point x="65" y="1485"/>
      <point x="65" y="1389" type="qcurve" smooth="yes"/>
      <point x="65" y="1344"/>
      <point x="30" y="1292"/>
    </contour>
    <contour>
      <point x="1" y="1087" type="move" name="_top"/>
    </contour>
    <contour>
      <point x="1" y="1485" type="move" name="top"/>
    </contour>
  </outline>
</glyph>
<glyph name="dieresiscomb" format="1">
  <unicode hex="0308"/>
  <note>
dieresis
</note>
  <outline>
    <contour>
      <point x="-373.0" y="1303.0" type="qcurve" smooth="yes"/>
      <point x="-404.5" y="1303.0"/>
      <point x="-436.0" y="1346.25"/>
      <point x="-436.0" y="1389.0" type="qcurve" smooth="yes"/>
      <point x="-436.0" y="1434.75"/>
      <point x="-405.25" y="1475.0"/>
      <point x="-373.0" y="1475.0" type="qcurve" smooth="yes"/>
      <point x="-340.75" y="1475.0"/>
      <point x="-309.0" y="1431.75"/>
      <point x="-309.0" y="1389.0" type="qcurve" smooth="yes"/>
      <point x="-309.0" y="1346.25"/>
      <point x="-340.75" y="1303.0"/>
    </contour>
    <contour>
      <point x="-754.0" y="1303.0" type="qcurve" smooth="yes"/>
      <point x="-785.5" y="1303.0"/>
      <point x="-817.0" y="1346.25"/>
      <point x="-817.0" y="1389.0" type="qcurve" smooth="yes"/>
      <point x="-817.0" y="1434.75"/>
      <point x="-786.25" y="1475.0"/>
      <point x="-754.0" y="1475.0" type="qcurve" smooth="yes"/>
      <point x="-721.75" y="1475.0"/>
      <point x="-690.0" y="1431.75"/>
      <point x="-690.0" y="1389.0" type="qcurve" smooth="yes"/>
      <point x="-690.0" y="1346.25"/>
      <point x="-721.75" y="1303.0"/>
    </contour>
    <contour>
      <point x="-563" y="1127" type="move" name="_top"/>
    </contour>
    <contour>
      <point x="-563" y="1475" type="move" name="top"/>
    </contour>
  </outline>
</glyph>
<glyph name="hookabovecomb" format="1">
  <advance width="0"/>
  <unicode hex="0309"/>
  <note>
    hookabovecomb
  </note>
  <outline>
    <contour>
      <point x="-90" y="1208" type="line"/>
      <point x="-100" y="1386" type="line"/>
      <point x="-11" y="1401"/>
      <point x="70" y="1457"/>
      <point x="70" y="1501" type="qcurve" smooth="yes"/>
      <point x="70" y="1549"/>
      <point x="3" y="1597"/>
      <point x="-75" y="1597" type="qcurve" smooth="yes"/>
      <point x="-120" y="1597"/>
      <point x="-168" y="1589" type="qcurve"/>
      <point x="-168" y="1667" type="line"/>
      <point x="-116" y="1679"/>
      <point x="-61" y="1679" type="qcurve" smooth="yes"/>
      <point x="47" y="1679"/>
      <point x="168" y="1588"/>
      <point x="168" y="1505" type="qcurve" smooth="yes"/>
      <point x="168" y="1365"/>
      <point x="0" y="1329" type="qcurve"/>
      <point x="-10" y="1208" type="line"/>
    </contour>
    <contour>
      <point x="-56" y="1087" type="move" name="_top"/>
    </contour>
    <contour>
      <point x="0" y="1679" type="move" name="top"/>
    </contour>
  </outline>
</glyph>
<glyph name="ringcomb" format="1">
  <advance width="4"/>
  <unicode hex="030A"/>
  <note>
    ring
  </note>
  <outline>
    <contour>
      <point x="2" y="1243" type="qcurve" smooth="yes"/>
      <point x="-95" y="1243"/>
      <point x="-215" y="1359"/>
      <point x="-215" y="1456" type="qcurve" smooth="yes"/>
      <point x="-215" y="1550"/>
      <point x="-95" y="1667"/>
      <point x="2" y="1667" type="qcurve" smooth="yes"/>
      <point x="99" y="1667"/>
      <point x="219" y="1549"/>
      <point x="219" y="1456" type="qcurve" smooth="yes"/>
      <point x="219" y="1359"/>
      <point x="99" y="1243"/>
    </contour>
    <contour>
      <point x="2" y="1315" type="qcurve" smooth="yes"/>
      <point x="64" y="1315"/>
      <point x="139" y="1390"/>
      <point x="139" y="1456" type="qcurve" smooth="yes"/>
      <point x="139" y="1520"/>
      <point x="61" y="1595"/>
      <point x="2" y="1595" type="qcurve" smooth="yes"/>
      <point x="-60" y="1595"/>
      <point x="-135" y="1519"/>
      <point x="-135" y="1456" type="qcurve" smooth="yes"/>
      <point x="-135" y="1390"/>
      <point x="-60" y="1315"/>
    </contour>
    <contour>
      <point x="2" y="1087" type="move" name="_top"/>
    </contour>
    <contour>
      <point x="2" y="1667" type="move" name="top"/>
    </contour>
  </outline>
</glyph>
<glyph name="hungarumlautcomb" format="1">
  <advance width="1162"/>
  <unicode hex="030B"/>
  <note>
    hungarumlaut
  </note>
  <outline>
    <contour>
      <point x="588" y="1241" type="line"/>
      <point x="588" y="1257" type="line"/>
      <point x="632.25" y="1303.5"/>
      <point x="726.5" y="1472.25"/>
      <point x="776" y="1569" type="qcurve"/>
      <point x="912" y="1569" type="line"/>
      <point x="912" y="1552" type="line"/>
      <point x="844.5" y="1450.75"/>
      <point x="717.25" y="1295.75"/>
      <point x="658" y="1241" type="qcurve"/>
    </contour>
    <contour>
      <point x="250" y="1241" type="line"/>
      <point x="250" y="1257" type="line"/>
      <point x="294.25" y="1303.5"/>
      <point x="388.5" y="1472.25"/>
      <point x="438" y="1569" type="qcurve"/>
      <point x="574" y="1569" type="line"/>
      <point x="574" y="1552" type="line"/>
      <point x="506.5" y="1450.75"/>
      <point x="379.25" y="1295.75"/>
      <point x="320" y="1241" type="qcurve"/>
    </contour>
    <contour>
      <point x="511" y="1087" type="move" name="_top"/>
    </contour>
    <contour>
      <point x="581" y="1569" type="move" name="top"/>
    </contour>
  </outline>
</glyph>
<glyph name="caroncomb" format="1">
  <advance width="582"/>
  <unicode hex="030C"/>
  <note>
caron
</note>
  <outline>
    <contour>
      <point x="242" y="1241" type="line"/>
      <point x="227.0" y="1265.75"/>
      <point x="191.0" y="1319.5"/>
      <point x="170.0" y="1348.0" type="qcurve" smooth="yes"/>
      <point x="135.5" y="1393.75"/>
      <point x="51.0" y="1495.75"/>
      <point x="0" y="1552" type="qcurve"/>
      <point x="0" y="1569" type="line"/>
      <point x="70.0" y="1569.0" type="line"/>
      <point x="108.0" y="1537.5"/>
      <point x="182.58333333333331" y="1470.5"/>
      <point x="255.49999999999997" y="1399.5"/>
      <point x="291.0" y="1362.0" type="qcurve"/>
      <point x="327.0" y="1400.0"/>
      <point x="400.24999999999994" y="1471.3333333333333"/>
      <point x="474.5" y="1538.0"/>
      <point x="512" y="1569" type="qcurve"/>
      <point x="582" y="1569" type="line"/>
      <point x="582.0" y="1552.0" type="line"/>
      <point x="526.5" y="1490.5"/>
      <point x="435.5" y="1381.0"/>
      <point x="401.0" y="1333.0" type="qcurve" smooth="yes"/>
      <point x="383.0" y="1308.25"/>
      <point x="352.0" y="1262.0"/>
      <point x="340" y="1241" type="qcurve"/>
    </contour>
    <contour>
      <point x="291" y="1087" type="move" name="_top"/>
    </contour>
    <contour>
      <point x="291" y="1569" type="move" name="top"/>
    </contour>
  </outline>
</glyph>
<glyph name="dblgravecomb" format="1">
  <advance width="10"/>
  <unicode hex="030F"/>
  <note>
uni030F
</note>
  <outline>
    <contour>
      <point x="-411" y="1241" type="line"/>
      <point x="-439.5" y="1266.125"/>
      <point x="-507.5416666666667" y="1340.5729166666667"/>
      <point x="-577.4583333333334" y="1426.9270833333333"/>
      <point x="-641.0" y="1514.125"/>
      <point x="-665" y="1552" type="qcurve"/>
      <point x="-665" y="1569" type="line"/>
      <point x="-530.0" y="1569.0" type="line"/>
      <point x="-480.5" y="1473.75"/>
      <point x="-388.25" y="1308.75"/>
      <point x="-341" y="1257" type="qcurve"/>
      <point x="-341" y="1241" type="line"/>
    </contour>
    <contour>
      <point x="-749" y="1241" type="line"/>
      <point x="-777.5" y="1266.125"/>
      <point x="-845.5416666666666" y="1340.5729166666667"/>
      <point x="-915.4583333333334" y="1426.9270833333333"/>
      <point x="-979.0" y="1514.125"/>
      <point x="-1003" y="1552" type="qcurve"/>
      <point x="-1003" y="1569" type="line"/>
      <point x="-868.0" y="1569.0" type="line"/>
      <point x="-835.0" y="1505.0"/>
      <point x="-769.7499999999999" y="1384.2499999999998"/>
      <point x="-707.5" y="1286.5"/>
      <point x="-679" y="1257" type="qcurve"/>
      <point x="-679" y="1241" type="line"/>
    </contour>
    <contour>
      <point x="-672" y="1087" type="move" name="_top"/>
    </contour>
    <contour>
      <point x="-672" y="1569" type="move" name="top"/>
    </contour>
  </outline>
</glyph>
<glyph name="commaturnedabovecomb" format="1">
  <unicode hex="0312"/>
  <outline>
    <contour>
      <point x="-277" y="1241" type="line"/>
      <point x="-277.0" y="1255.0" type="line"/>
      <point x="-263.5" y="1306.5"/>
      <point x="-216.58333333333331" y="1421.1666666666665"/>
      <point x="-160.0" y="1528.5"/>
      <point x="-132" y="1569" type="qcurve"/>
      <point x="-79" y="1569" type="line"/>
      <point x="-79.0" y="1552.0" type="line"/>
      <point x="-97.0" y="1513.5"/>
      <point x="-133.66666666666669" y="1392.7499999999998"/>
      <point x="-161.0" y="1275.0"/>
      <point x="-165" y="1241" type="qcurve"/>
    </contour>
    <contour>
      <point x="-238" y="1087" type="move" name="_top"/>
    </contour>
    <contour>
      <point x="-178" y="1569" type="move" name="top"/>
    </contour>
  </outline>
</glyph>
<glyph name="dotbelowcomb" format="1">
  <unicode hex="0323"/>
  <note>
dotbelowcomb
</note>
  <outline>
    <contour>
      <point x="-1.0" y="-324.0" type="qcurve" smooth="yes"/>
      <point x="-65.0" y="-324.0"/>
      <point x="-65.0" y="-227.0" type="qcurve" smooth="yes"/>
      <point x="-65.0" y="-179.0"/>
      <point x="-33.25" y="-131.0"/>
      <point x="-1.0" y="-131.0" type="qcurve" smooth="yes"/>
      <point x="29.75" y="-131.0"/>
      <point x="65.0" y="-181.25"/>
      <point x="65.0" y="-227.0" type="qcurve" smooth="yes"/>
      <point x="65.0" y="-272.0"/>
      <point x="29.75" y="-324.0"/>
    </contour>
    <contour>
      <point x="0" y="0" type="move" name="_bottom"/>
    </contour>
    <contour>
      <point x="0" y="-324" type="move" name="bottom"/>
    </contour>
  </outline>
</glyph>
<glyph name="commaaccentcomb" format="1">
  <unicode hex="0326"/>
  <outline>
    <contour>
      <point x="-334" y="-453" type="line"/>
      <point x="-334.0" y="-436.0" type="line"/>
      <point x="-309.25" y="-382.0"/>
      <point x="-259.25" y="-200.0"/>
      <point x="-248" y="-125" type="qcurve"/>
      <point x="-135" y="-125" type="line"/>
      <point x="-135.0" y="-139.0" type="line"/>
      <point x="-158.25" y="-220.75"/>
      <point x="-238.75" y="-392.25"/>
      <point x="-280" y="-453" type="qcurve"/>
    </contour>
    <contour>
      <point x="-204" y="0" type="move" name="_bottom"/>
    </contour>
    <contour>
      <point x="-234" y="-453" type="move" name="bottom"/>
    </contour>
  </outline>
</glyph>
<glyph name="cedillacomb" format="1">
  <advance width="0"/>
  <unicode hex="0327"/>
  <note>
    cedilla
  </note>
  <outline>
    <contour>
      <point x="-81" y="-492" type="qcurve" smooth="yes"/>
      <point x="-148" y="-492"/>
      <point x="-175" y="-481" type="qcurve"/>
      <point x="-175" y="-393" type="line"/>
      <point x="-146" y="-403"/>
      <point x="-83" y="-403" type="qcurve" smooth="yes"/>
      <point x="77" y="-403"/>
      <point x="77" y="-295" type="qcurve" smooth="yes"/>
      <point x="77" y="-201"/>
      <point x="-116" y="-174" type="qcurve"/>
      <point x="-23" y="0" type="line"/>
      <point x="73" y="0" type="line"/>
      <point x="7" y="-117" type="line"/>
      <point x="175" y="-155"/>
      <point x="175" y="-291" type="qcurve" smooth="yes"/>
      <point x="175" y="-391"/>
      <point x="40" y="-492"/>
    </contour>
    <contour>
      <point x="0" y="0" type="move" name="_bottom"/>
    </contour>
    <contour>
      <point x="0" y="-492" type="move" name="bottom"/>
    </contour>
  </outline>
</glyph>
<glyph name="ogonekcomb" format="1">
  <advance width="8"/>
  <unicode hex="0328"/>
  <note>
    ogonek
  </note>
  <outline>
    <contour>
      <point x="44" y="-446" type="qcurve" smooth="yes"/>
      <point x="-41" y="-446"/>
      <point x="-140" y="-351"/>
      <point x="-140" y="-264" type="qcurve" smooth="yes"/>
      <point x="-140" y="-194"/>
      <point x="-60" y="-56"/>
      <point x="13" y="0" type="qcurve"/>
      <point x="103" y="0" type="line"/>
      <point x="31" y="-63"/>
      <point x="-41" y="-176"/>
      <point x="-41" y="-248" type="qcurve" smooth="yes"/>
      <point x="-41" y="-358"/>
      <point x="66" y="-358" type="qcurve" smooth="yes"/>
      <point x="115" y="-358"/>
      <point x="148" y="-346" type="qcurve"/>
      <point x="148" y="-430" type="line"/>
      <point x="108" y="-446"/>
    </contour>
    <contour>
      <point x="3" y="10" type="move" name="_ogonek"/>
    </contour>
  </outline>
</glyph>
